<?xml version="1.0" encoding="UTF-8"?>
<svg xmlns="http://www.w3.org/2000/svg" xmlns:xlink="http://www.w3.org/1999/xlink" width="375pt" height="374.999991pt" viewBox="0 0 375 374.999991" version="1.2">
<defs>
<clipPath id="clip1">
  <path d="M 10 142 L 366 142 L 366 220.949219 L 10 220.949219 Z M 10 142 "/>
</clipPath>
</defs>
<g id="surface1">
<g clip-path="url(#clip1)" clip-rule="nonzero">
<path style=" stroke:none;fill-rule:nonzero;fill:rgb(0%,0%,0%);fill-opacity:1;" d="M 120.539062 221.234375 L 120.539062 143.636719 L 124.746094 143.636719 L 124.746094 155.84375 C 125.242188 155.300781 125.699219 154.726562 126.117188 154.121094 C 129.632812 146.828125 137.042969 142.226562 145.132812 142.316406 C 154.722656 142.03125 162.519531 145.582031 167.097656 154.121094 C 167.824219 155.441406 168.46875 156.804688 169.035156 158.203125 C 169.597656 159.601562 170.078125 161.027344 170.472656 162.484375 C 170.867188 163.9375 171.171875 165.414062 171.390625 166.90625 C 171.609375 168.398438 171.738281 169.894531 171.777344 171.402344 C 171.816406 172.910156 171.765625 174.417969 171.628906 175.917969 C 171.488281 177.417969 171.257812 178.90625 170.941406 180.382812 C 170.625 181.855469 170.222656 183.304688 169.734375 184.734375 C 169.242188 186.160156 168.671875 187.550781 168.015625 188.910156 C 163.746094 198.480469 153.207031 203.238281 141.921875 201.488281 C 140.164062 201.339844 138.457031 200.976562 136.789062 200.398438 C 135.125 199.820312 133.558594 199.046875 132.085938 198.074219 C 130.617188 197.101562 129.289062 195.964844 128.101562 194.660156 C 126.914062 193.355469 125.910156 191.925781 125.082031 190.371094 L 125.082031 221.230469 Z M 124.746094 171.085938 L 125.6875 180.199219 C 127.347656 190.570312 133.476562 196.699219 143.101562 197.847656 C 144.222656 198.035156 145.351562 198.121094 146.484375 198.109375 C 147.621094 198.101562 148.75 197.992188 149.867188 197.789062 C 150.984375 197.585938 152.078125 197.285156 153.144531 196.894531 C 154.210938 196.5 155.234375 196.019531 156.21875 195.449219 C 157.203125 194.882812 158.128906 194.230469 159 193.503906 C 159.875 192.773438 160.675781 191.976562 161.410156 191.109375 C 162.144531 190.242188 162.800781 189.316406 163.375 188.335938 C 163.949219 187.355469 164.4375 186.332031 164.835938 185.269531 C 168.578125 176.34375 168.304688 166.242188 164.097656 157.527344 C 163.671875 156.574219 163.171875 155.660156 162.597656 154.785156 C 162.019531 153.910156 161.378906 153.089844 160.671875 152.320312 C 159.964844 151.550781 159.203125 150.839844 158.378906 150.195312 C 157.558594 149.546875 156.6875 148.972656 155.773438 148.464844 C 154.859375 147.960938 153.910156 147.53125 152.925781 147.179688 C 151.941406 146.828125 150.933594 146.554688 149.90625 146.367188 C 148.878906 146.175781 147.839844 146.070312 146.796875 146.050781 C 145.75 146.027344 144.710938 146.089844 143.675781 146.238281 C 142.703125 146.308594 141.742188 146.453125 140.792969 146.675781 C 139.84375 146.894531 138.914062 147.183594 138.011719 147.546875 C 137.105469 147.910156 136.234375 148.34375 135.398438 148.839844 C 134.558594 149.339844 133.765625 149.898438 133.015625 150.519531 C 132.261719 151.140625 131.5625 151.816406 130.917969 152.546875 C 130.269531 153.277344 129.683594 154.050781 129.15625 154.871094 C 128.632812 155.695312 128.171875 156.550781 127.777344 157.441406 C 127.382812 158.332031 127.058594 159.25 126.808594 160.191406 C 125.910156 163.78125 125.222656 167.414062 124.746094 171.082031 Z M 257.675781 181.632812 C 257.515625 182.988281 257.238281 184.316406 256.839844 185.621094 C 256.441406 186.925781 255.933594 188.183594 255.308594 189.398438 C 254.683594 190.609375 253.953125 191.757812 253.125 192.835938 C 252.292969 193.917969 251.371094 194.917969 250.359375 195.832031 C 249.347656 196.746094 248.265625 197.5625 247.105469 198.28125 C 245.945312 199 244.734375 199.613281 243.464844 200.113281 C 242.195312 200.613281 240.894531 200.996094 239.558594 201.261719 C 238.21875 201.527344 236.871094 201.667969 235.507812 201.691406 C 217.863281 202.578125 209.585938 190.859375 208.269531 177.332031 C 207.8125 173.660156 207.875 169.996094 208.460938 166.339844 C 209.042969 162.6875 210.125 159.183594 211.707031 155.839844 C 212.253906 154.699219 212.882812 153.605469 213.601562 152.566406 C 214.320312 151.527344 215.117188 150.546875 215.992188 149.632812 C 216.867188 148.71875 217.804688 147.878906 218.8125 147.113281 C 219.816406 146.347656 220.878906 145.667969 221.992188 145.070312 C 223.105469 144.472656 224.261719 143.964844 225.457031 143.550781 C 226.648438 143.136719 227.867188 142.816406 229.113281 142.59375 C 230.359375 142.375 231.613281 142.25 232.875 142.226562 C 234.140625 142.203125 235.398438 142.28125 236.652344 142.457031 C 237.839844 142.558594 239.015625 142.75 240.175781 143.035156 C 241.335938 143.320312 242.46875 143.695312 243.570312 144.15625 C 244.671875 144.621094 245.730469 145.164062 246.746094 145.792969 C 247.765625 146.417969 248.726562 147.121094 249.632812 147.902344 C 250.539062 148.679688 251.378906 149.523438 252.15625 150.433594 C 252.929688 151.34375 253.628906 152.308594 254.253906 153.328125 C 254.878906 154.347656 255.417969 155.40625 255.875 156.511719 C 256.335938 157.617188 256.703125 158.746094 256.984375 159.910156 C 257.882812 164.171875 258.539062 168.472656 258.960938 172.804688 L 212.628906 172.804688 C 211.769531 185.070312 218.355469 194.929688 227.691406 197.308594 C 239.320312 200.167969 249.257812 195.128906 252.867188 184.066406 C 253.667969 181.226562 255.128906 180.828125 257.707031 181.632812 Z M 212.59375 168.878906 L 254.035156 168.878906 C 253.777344 155.816406 245.648438 146.320312 234.617188 146.210938 C 222.164062 146.007812 213.136719 155.125 212.59375 168.878906 Z M 266.242188 181.917969 L 270.300781 181.917969 C 270.378906 183.414062 270.652344 184.875 271.128906 186.296875 C 271.605469 187.714844 272.265625 189.046875 273.109375 190.285156 C 273.953125 191.523438 274.949219 192.625 276.097656 193.589844 C 277.246094 194.550781 278.5 195.34375 279.867188 195.960938 C 281.582031 196.730469 283.359375 197.304688 285.203125 197.671875 C 287.046875 198.042969 288.910156 198.203125 290.789062 198.15625 C 292.667969 198.105469 294.519531 197.847656 296.339844 197.378906 C 298.160156 196.914062 299.90625 196.25 301.578125 195.386719 C 302.488281 194.976562 303.316406 194.4375 304.0625 193.773438 C 304.808594 193.109375 305.4375 192.347656 305.953125 191.488281 C 306.464844 190.628906 306.835938 189.714844 307.066406 188.742188 C 307.296875 187.769531 307.378906 186.785156 307.304688 185.789062 C 307.359375 184.824219 307.257812 183.878906 307 182.953125 C 306.746094 182.023438 306.347656 181.160156 305.8125 180.359375 C 305.273438 179.5625 304.625 178.867188 303.859375 178.28125 C 303.097656 177.695312 302.257812 177.246094 301.347656 176.929688 C 296.878906 175.269531 292.128906 174.351562 287.574219 172.890625 C 282.828125 171.539062 278.207031 169.847656 273.710938 167.820312 C 266.375 164.238281 265.921875 150.28125 274.226562 145.863281 C 275.285156 145.265625 276.378906 144.738281 277.503906 144.273438 C 278.628906 143.8125 279.777344 143.421875 280.953125 143.105469 C 282.125 142.789062 283.3125 142.542969 284.519531 142.375 C 285.722656 142.203125 286.933594 142.109375 288.148438 142.089844 C 289.363281 142.070312 290.578125 142.128906 291.785156 142.261719 C 292.996094 142.394531 294.191406 142.601562 295.375 142.882812 C 296.558594 143.164062 297.71875 143.519531 298.855469 143.945312 C 299.996094 144.371094 301.105469 144.867188 302.179688 145.433594 C 307.546875 148.398438 310.511719 154.378906 309.628906 160.453125 L 306.144531 160.453125 C 306.144531 160.285156 305.828125 160.136719 305.828125 159.964844 C 305.398438 148.851562 296.0625 145.375 286.039062 146.351562 C 283.011719 146.691406 280.140625 147.605469 277.449219 148.960938 C 276.636719 149.328125 275.902344 149.8125 275.246094 150.410156 C 274.585938 151.007812 274.035156 151.695312 273.585938 152.464844 C 273.140625 153.234375 272.824219 154.054688 272.632812 154.921875 C 272.441406 155.792969 272.386719 156.667969 272.464844 157.554688 C 272.46875 158.441406 272.605469 159.308594 272.875 160.152344 C 273.144531 161 273.535156 161.78125 274.046875 162.507812 C 274.5625 163.230469 275.171875 163.859375 275.878906 164.394531 C 276.585938 164.929688 277.359375 165.34375 278.195312 165.636719 C 282.570312 167.242188 287.214844 168.273438 291.742188 169.535156 L 302.679688 172.394531 C 303.296875 172.597656 303.894531 172.847656 304.476562 173.140625 C 305.058594 173.433594 305.613281 173.769531 306.140625 174.148438 C 306.671875 174.523438 307.171875 174.9375 307.636719 175.390625 C 308.105469 175.84375 308.535156 176.328125 308.929688 176.847656 C 309.324219 177.363281 309.675781 177.910156 309.988281 178.480469 C 310.300781 179.050781 310.566406 179.640625 310.789062 180.253906 C 311.011719 180.867188 311.1875 181.488281 311.316406 182.128906 C 311.445312 182.765625 311.527344 183.410156 311.558594 184.058594 C 312.433594 189.9375 309.4375 195.710938 304.140625 198.386719 C 294.574219 203.800781 278.820312 202.371094 271.804688 195.527344 C 268.210938 191.914062 266.210938 187.007812 266.25 181.914062 Z M 363.101562 160.457031 L 359.289062 160.457031 C 359.289062 159.941406 359.089844 159.445312 359.03125 159.050781 C 359.015625 158.34375 358.941406 157.640625 358.804688 156.941406 C 358.671875 156.246094 358.476562 155.566406 358.226562 154.902344 C 357.976562 154.242188 357.667969 153.601562 357.308594 152.992188 C 356.949219 152.382812 356.542969 151.804688 356.082031 151.265625 C 355.625 150.722656 355.125 150.222656 354.582031 149.769531 C 354.039062 149.3125 353.460938 148.90625 352.847656 148.550781 C 352.234375 148.191406 351.597656 147.890625 350.933594 147.644531 C 350.265625 147.394531 349.585938 147.207031 348.890625 147.074219 C 346.242188 146.3125 343.542969 146 340.792969 146.132812 C 338.042969 146.265625 335.386719 146.835938 332.824219 147.847656 C 332.320312 147.992188 331.832031 148.175781 331.359375 148.398438 C 330.882812 148.621094 330.429688 148.878906 330 149.175781 C 329.566406 149.472656 329.160156 149.800781 328.78125 150.160156 C 328.402344 150.523438 328.054688 150.910156 327.738281 151.328125 C 327.421875 151.746094 327.140625 152.183594 326.894531 152.648438 C 326.648438 153.109375 326.441406 153.589844 326.273438 154.082031 C 326.101562 154.578125 325.972656 155.085938 325.886719 155.601562 C 325.800781 156.117188 325.753906 156.636719 325.75 157.160156 C 325.730469 157.675781 325.757812 158.1875 325.828125 158.695312 C 325.898438 159.207031 326.007812 159.707031 326.164062 160.195312 C 326.320312 160.6875 326.515625 161.160156 326.753906 161.617188 C 326.988281 162.070312 327.261719 162.503906 327.574219 162.914062 C 327.882812 163.324219 328.226562 163.703125 328.601562 164.054688 C 328.980469 164.40625 329.382812 164.71875 329.8125 165 C 330.242188 165.285156 330.691406 165.527344 331.164062 165.730469 C 331.636719 165.933594 332.121094 166.097656 332.621094 166.214844 L 350.035156 170.6875 C 351.917969 171.140625 353.769531 171.703125 355.585938 172.378906 C 361.140625 174.398438 364.910156 179.558594 365.078125 185.453125 C 365.097656 186.171875 365.066406 186.886719 364.980469 187.597656 C 364.894531 188.3125 364.753906 189.011719 364.5625 189.703125 C 364.367188 190.394531 364.125 191.070312 363.832031 191.722656 C 363.539062 192.378906 363.195312 193.007812 362.808594 193.613281 C 362.421875 194.214844 361.988281 194.785156 361.515625 195.324219 C 361.042969 195.863281 360.53125 196.363281 359.980469 196.824219 C 359.429688 197.285156 358.851562 197.703125 358.238281 198.078125 C 357.625 198.453125 356.988281 198.78125 356.328125 199.058594 C 354.308594 199.976562 352.214844 200.675781 350.046875 201.15625 C 347.878906 201.636719 345.6875 201.890625 343.46875 201.910156 C 341.246094 201.933594 339.050781 201.726562 336.875 201.289062 C 334.699219 200.851562 332.589844 200.195312 330.550781 199.316406 C 329.71875 198.957031 328.917969 198.535156 328.148438 198.054688 C 327.378906 197.574219 326.648438 197.035156 325.960938 196.441406 C 325.273438 195.851562 324.636719 195.207031 324.046875 194.519531 C 323.457031 193.828125 322.921875 193.097656 322.441406 192.324219 C 321.964844 191.554688 321.546875 190.75 321.191406 189.914062 C 320.835938 189.078125 320.542969 188.222656 320.316406 187.34375 C 320.09375 186.464844 319.933594 185.570312 319.84375 184.667969 C 319.753906 183.765625 319.734375 182.859375 319.78125 181.953125 L 323.503906 181.953125 C 324.90625 188.703125 329.539062 194.328125 335.894531 196.988281 C 342.253906 199.648438 349.511719 198.992188 355.296875 195.25 C 356.164062 194.796875 356.949219 194.234375 357.65625 193.558594 C 358.359375 192.878906 358.957031 192.117188 359.445312 191.269531 C 359.933594 190.421875 360.289062 189.523438 360.519531 188.570312 C 360.75 187.621094 360.839844 186.65625 360.792969 185.679688 C 360.835938 184.71875 360.726562 183.773438 360.460938 182.847656 C 360.195312 181.921875 359.792969 181.058594 359.246094 180.265625 C 358.699219 179.472656 358.042969 178.785156 357.273438 178.207031 C 356.503906 177.628906 355.664062 177.183594 354.75 176.878906 C 350.28125 175.21875 345.527344 174.332031 340.976562 172.839844 C 336.203125 171.507812 331.554688 169.839844 327.027344 167.828125 C 319.867188 164.300781 319.292969 150.460938 327.457031 146.046875 C 328.53125 145.421875 329.636719 144.871094 330.78125 144.390625 C 331.925781 143.914062 333.09375 143.507812 334.289062 143.179688 C 335.484375 142.847656 336.695312 142.597656 337.921875 142.425781 C 339.148438 142.253906 340.382812 142.160156 341.625 142.144531 C 342.863281 142.132812 344.097656 142.195312 345.328125 142.34375 C 346.558594 142.488281 347.777344 142.710938 348.980469 143.015625 C 350.179688 143.316406 351.359375 143.695312 352.511719 144.148438 C 353.664062 144.605469 354.785156 145.132812 355.871094 145.730469 C 357.117188 146.476562 358.234375 147.382812 359.214844 148.449219 C 360.199219 149.519531 361.011719 150.707031 361.648438 152.011719 C 362.285156 153.316406 362.726562 154.6875 362.964844 156.121094 C 363.207031 157.550781 363.238281 158.988281 363.058594 160.433594 Z M 113.613281 200.289062 C 113.242188 200.429688 112.863281 200.535156 112.46875 200.609375 C 112.078125 200.679688 111.683594 200.714844 111.289062 200.714844 C 110.890625 200.714844 110.496094 200.679688 110.105469 200.605469 C 109.714844 200.535156 109.332031 200.425781 108.960938 200.285156 C 108.589844 200.144531 108.234375 199.972656 107.894531 199.765625 C 107.554688 199.558594 107.234375 199.324219 106.9375 199.058594 C 106.640625 198.796875 106.371094 198.507812 106.125 198.195312 C 105.878906 197.878906 105.664062 197.546875 105.480469 197.195312 L 90.671875 176.707031 L 88.523438 173.84375 L 71.339844 197.226562 C 71.167969 197.5625 70.964844 197.882812 70.734375 198.183594 C 70.5 198.484375 70.246094 198.761719 69.964844 199.015625 C 69.683594 199.269531 69.382812 199.496094 69.058594 199.695312 C 68.734375 199.894531 68.398438 200.0625 68.046875 200.203125 C 67.691406 200.339844 67.332031 200.449219 66.957031 200.519531 C 66.585938 200.59375 66.210938 200.632812 65.832031 200.636719 C 65.453125 200.644531 65.074219 200.613281 64.703125 200.550781 C 64.328125 200.488281 63.964844 200.390625 63.605469 200.261719 L 85.746094 170.546875 L 65.148438 143.695312 C 68.203125 142.59375 71.609375 143.789062 73.308594 146.558594 L 88.65625 167.300781 L 104.09375 146.640625 C 104.269531 146.308594 104.472656 145.996094 104.703125 145.699219 C 104.9375 145.40625 105.191406 145.136719 105.472656 144.886719 C 105.753906 144.640625 106.054688 144.421875 106.378906 144.230469 C 106.699219 144.035156 107.035156 143.875 107.386719 143.742188 C 107.738281 143.613281 108.097656 143.515625 108.464844 143.449219 C 108.835938 143.382812 109.207031 143.351562 109.582031 143.355469 C 109.957031 143.359375 110.328125 143.394531 110.695312 143.464844 C 111.0625 143.535156 111.421875 143.636719 111.769531 143.773438 L 103.789062 154.382812 L 92.960938 168.484375 C 92.65625 168.753906 92.421875 169.074219 92.253906 169.449219 C 92.089844 169.820312 92.003906 170.210938 92.003906 170.617188 C 92.003906 171.023438 92.089844 171.414062 92.253906 171.789062 C 92.421875 172.160156 92.65625 172.480469 92.960938 172.753906 L 113.582031 200.289062 Z M 207.613281 143.410156 L 207.613281 147.449219 C 206.890625 147.402344 206.167969 147.394531 205.445312 147.421875 C 204.722656 147.449219 204.003906 147.515625 203.285156 147.621094 C 202.570312 147.722656 201.859375 147.863281 201.160156 148.042969 C 200.457031 148.21875 199.765625 148.433594 199.085938 148.683594 C 198.40625 148.933594 197.742188 149.21875 197.09375 149.535156 C 196.445312 149.855469 195.8125 150.207031 195.199219 150.59375 C 194.589844 150.980469 193.996094 151.394531 193.429688 151.84375 C 192.859375 152.289062 192.3125 152.765625 191.796875 153.269531 C 191.277344 153.773438 190.785156 154.304688 190.320312 154.859375 C 189.855469 155.417969 189.421875 155.996094 189.019531 156.597656 C 188.613281 157.195312 188.242188 157.816406 187.90625 158.457031 C 187.566406 159.097656 187.261719 159.753906 186.992188 160.425781 C 186.71875 161.097656 186.484375 161.78125 186.289062 162.476562 C 186.089844 163.171875 185.925781 163.878906 185.800781 164.589844 C 185.675781 165.304688 185.589844 166.023438 185.539062 166.746094 C 185.488281 167.46875 185.476562 168.191406 185.5 168.914062 C 185.5 178.351562 185.5 187.789062 185.5 197.226562 L 185.5 200.433594 L 181.40625 200.433594 L 181.40625 143.664062 L 185.445312 143.664062 L 185.445312 155.296875 C 190.398438 146.8125 198.046875 143.664062 207.640625 143.433594 Z M 10.605469 170.175781 L 12.410156 161.261719 C 17.363281 143.640625 37.558594 136.304688 51.449219 147.222656 C 59.585938 153.613281 61.613281 162.667969 61.21875 172.871094 L 15.390625 172.871094 C 14.648438 191.09375 27.789062 202.097656 44.601562 196.480469 C 50.140625 194.460938 54.3125 189.855469 55.683594 184.128906 C 56.574219 181.269531 58.039062 180.777344 60.726562 181.605469 C 60.5 183.351562 60.085938 185.046875 59.476562 186.695312 C 58.867188 188.347656 58.082031 189.90625 57.121094 191.378906 C 56.15625 192.851562 55.042969 194.195312 53.777344 195.414062 C 52.507812 196.632812 51.121094 197.695312 49.613281 198.601562 C 48.375 199.277344 47.089844 199.855469 45.761719 200.328125 C 44.433594 200.804688 43.078125 201.171875 41.691406 201.433594 C 40.304688 201.699219 38.90625 201.847656 37.496094 201.890625 C 36.085938 201.933594 34.679688 201.863281 33.28125 201.6875 C 31.882812 201.507812 30.503906 201.21875 29.148438 200.824219 C 27.796875 200.429688 26.480469 199.929688 25.203125 199.328125 C 23.929688 198.726562 22.707031 198.027344 21.539062 197.230469 C 20.375 196.4375 19.277344 195.554688 18.25 194.589844 C 14.15625 189.988281 11.6875 184.167969 11.207031 178.023438 C 11.207031 177.011719 10.867188 176.070312 10.632812 175.160156 C 10.609375 173.460938 10.601562 171.800781 10.601562 170.175781 Z M 15.445312 168.945312 L 56.890625 168.945312 C 56.628906 155.734375 48.296875 146.363281 37.183594 146.277344 C 24.8125 146.105469 15.960938 155.273438 15.414062 168.886719 Z M 15.445312 168.945312 "/>
</g>
</g>
</svg>
