<?xml version="1.0" encoding="UTF-8"?>
<svg xmlns="http://www.w3.org/2000/svg" xmlns:xlink="http://www.w3.org/1999/xlink" width="375pt" height="374.999991pt" viewBox="0 0 375 374.999991" version="1.2">
<g id="surface1">
<path style=" stroke:none;fill-rule:nonzero;fill:rgb(98.429871%,73.728943%,1.568604%);fill-opacity:1;" d="M 55.140625 243.507812 L 147.21875 85.867188 C 158.917969 92.753906 217.898438 125.394531 227.421875 131.601562 L 135.339844 289.25 C 125.269531 302.554688 42.382812 263.695312 55.140625 243.5 L 55.140625 243.511719 Z M 55.140625 243.507812 "/>
<path style=" stroke:none;fill-rule:nonzero;fill:rgb(25.878906%,52.159119%,95.689392%);fill-opacity:1;" d="M 319.691406 243.496094 L 227.613281 85.878906 C 214.746094 64.453125 187.019531 56.667969 164.25 69.320312 C 141.480469 81.972656 134.546875 109.226562 147.417969 131.605469 L 239.5 289.246094 C 252.371094 310.664062 280.09375 318.441406 302.867188 305.789062 C 324.640625 293.144531 332.570312 264.921875 319.691406 243.515625 Z M 319.691406 243.496094 "/>
<path style=" stroke:none;fill-rule:nonzero;fill:rgb(20.388794%,65.879822%,32.548523%);fill-opacity:1;" d="M 141.203125 266.808594 C 141.203125 268.285156 141.128906 269.757812 140.980469 271.226562 C 140.832031 272.695312 140.609375 274.15625 140.316406 275.601562 C 140.019531 277.050781 139.652344 278.480469 139.214844 279.894531 C 138.773438 281.304688 138.265625 282.695312 137.683594 284.058594 C 137.105469 285.421875 136.460938 286.753906 135.746094 288.054688 C 135.03125 289.359375 134.253906 290.621094 133.414062 291.851562 C 132.574219 293.078125 131.671875 294.261719 130.710938 295.402344 C 129.75 296.542969 128.738281 297.636719 127.667969 298.679688 C 126.597656 299.722656 125.476562 300.714844 124.304688 301.652344 C 123.136719 302.585938 121.921875 303.464844 120.660156 304.285156 C 119.402344 305.105469 118.105469 305.863281 116.769531 306.558594 C 115.4375 307.253906 114.070312 307.886719 112.671875 308.449219 C 111.273438 309.015625 109.847656 309.511719 108.398438 309.941406 C 106.953125 310.367188 105.484375 310.726562 104 311.015625 C 102.515625 311.304688 101.019531 311.519531 99.511719 311.664062 C 98.007812 311.808594 96.496094 311.882812 94.984375 311.882812 C 93.46875 311.882812 91.960938 311.808594 90.453125 311.664062 C 88.945312 311.519531 87.449219 311.304688 85.964844 311.015625 C 84.480469 310.726562 83.015625 310.367188 81.566406 309.941406 C 80.117188 309.511719 78.695312 309.015625 77.296875 308.449219 C 75.898438 307.886719 74.53125 307.253906 73.195312 306.558594 C 71.859375 305.863281 70.5625 305.105469 69.304688 304.285156 C 68.046875 303.464844 66.832031 302.585938 65.660156 301.652344 C 64.492188 300.714844 63.371094 299.722656 62.300781 298.679688 C 61.230469 297.636719 60.214844 296.542969 59.253906 295.402344 C 58.292969 294.261719 57.394531 293.078125 56.550781 291.851562 C 55.710938 290.621094 54.933594 289.359375 54.21875 288.054688 C 53.507812 286.753906 52.859375 285.421875 52.28125 284.058594 C 51.703125 282.695312 51.191406 281.304688 50.753906 279.894531 C 50.3125 278.480469 49.945312 277.050781 49.652344 275.601562 C 49.355469 274.15625 49.132812 272.695312 48.984375 271.226562 C 48.835938 269.757812 48.761719 268.285156 48.761719 266.808594 C 48.761719 265.332031 48.835938 263.859375 48.984375 262.390625 C 49.132812 260.921875 49.355469 259.464844 49.652344 258.015625 C 49.945312 256.570312 50.3125 255.136719 50.753906 253.726562 C 51.191406 252.3125 51.703125 250.925781 52.28125 249.5625 C 52.859375 248.199219 53.507812 246.863281 54.21875 245.5625 C 54.933594 244.261719 55.710938 242.996094 56.550781 241.769531 C 57.394531 240.542969 58.292969 239.355469 59.253906 238.214844 C 60.214844 237.074219 61.230469 235.984375 62.300781 234.9375 C 63.371094 233.894531 64.492188 232.90625 65.660156 231.96875 C 66.832031 231.03125 68.046875 230.152344 69.304688 229.332031 C 70.5625 228.511719 71.859375 227.753906 73.195312 227.058594 C 74.53125 226.363281 75.898438 225.734375 77.296875 225.167969 C 78.695312 224.605469 80.117188 224.105469 81.566406 223.679688 C 83.015625 223.25 84.480469 222.890625 85.964844 222.605469 C 87.449219 222.316406 88.945312 222.097656 90.453125 221.953125 C 91.960938 221.808594 93.46875 221.738281 94.984375 221.738281 C 96.496094 221.738281 98.007812 221.808594 99.511719 221.953125 C 101.019531 222.097656 102.515625 222.316406 104 222.605469 C 105.484375 222.890625 106.953125 223.25 108.398438 223.679688 C 109.847656 224.105469 111.273438 224.605469 112.671875 225.167969 C 114.070312 225.734375 115.4375 226.363281 116.769531 227.058594 C 118.105469 227.753906 119.402344 228.511719 120.660156 229.332031 C 121.921875 230.152344 123.136719 231.03125 124.304688 231.96875 C 125.476562 232.90625 126.597656 233.894531 127.667969 234.9375 C 128.738281 235.984375 129.75 237.074219 130.710938 238.214844 C 131.671875 239.355469 132.574219 240.542969 133.414062 241.769531 C 134.253906 242.996094 135.03125 244.261719 135.746094 245.5625 C 136.460938 246.863281 137.105469 248.199219 137.683594 249.5625 C 138.265625 250.925781 138.773438 252.3125 139.214844 253.726562 C 139.652344 255.136719 140.019531 256.570312 140.316406 258.015625 C 140.609375 259.464844 140.832031 260.921875 140.980469 262.390625 C 141.128906 263.859375 141.203125 265.332031 141.203125 266.808594 Z M 141.203125 266.808594 "/>
</g>
</svg>
