<?xml version="1.0" encoding="UTF-8"?>
<svg xmlns="http://www.w3.org/2000/svg" xmlns:xlink="http://www.w3.org/1999/xlink" width="375pt" height="374.999991pt" viewBox="0 0 375 374.999991" version="1.2">
<defs>
<clipPath id="clip1">
  <path d="M 70.207031 56.445312 L 304.957031 56.445312 L 304.957031 317.84375 L 70.207031 317.84375 Z M 70.207031 56.445312 "/>
</clipPath>
</defs>
<g id="surface1">
<g clip-path="url(#clip1)" clip-rule="nonzero">
<path style=" stroke:none;fill-rule:nonzero;fill:rgb(0.779724%,46.669006%,74.119568%);fill-opacity:1;" d="M 305.082031 56.445312 L 70.242188 56.445312 L 90.964844 290.328125 L 187.664062 317.84375 L 284.363281 290.328125 Z M 305.082031 56.445312 "/>
</g>
<path style=" stroke:none;fill-rule:nonzero;fill:rgb(1.179504%,60.778809%,89.7995%);fill-opacity:1;" d="M 187.664062 77.082031 L 187.664062 296.519531 L 265.023438 274.507812 L 282.289062 77.082031 Z M 187.664062 77.082031 "/>
<path style=" stroke:none;fill-rule:nonzero;fill:rgb(100%,100%,100%);fill-opacity:1;" d="M 250.519531 111.476562 L 187.664062 111.476562 L 187.664062 138.992188 L 221.507812 138.992188 L 219.4375 166.507812 L 187.664062 166.507812 L 187.664062 194.023438 L 218.054688 194.023438 L 215.980469 224.980469 L 187.664062 234.609375 L 187.664062 263.5 L 242.230469 245.617188 L 247.0625 166.507812 Z M 250.519531 111.476562 "/>
<path style=" stroke:none;fill-rule:nonzero;fill:rgb(93.328857%,93.328857%,93.328857%);fill-opacity:1;" d="M 187.664062 111.476562 L 187.664062 138.992188 L 126.191406 138.992188 L 124.117188 111.476562 Z M 155.890625 166.507812 L 157.273438 194.023438 L 187.664062 194.023438 L 187.664062 166.507812 Z M 158.652344 207.78125 L 131.027344 207.78125 L 133.097656 245.617188 L 187.664062 263.5 L 187.664062 234.609375 L 159.34375 224.980469 Z M 158.652344 207.78125 "/>
</g>
</svg>
