<?xml version="1.0" encoding="UTF-8"?>
<svg xmlns="http://www.w3.org/2000/svg" xmlns:xlink="http://www.w3.org/1999/xlink" width="375pt" height="374.999991pt" viewBox="0 0 375 374.999991" version="1.2">
<defs>
<clipPath id="clip1">
  <path d="M 98 147 L 332 147 L 332 236.683594 L 98 236.683594 Z M 98 147 "/>
</clipPath>
<clipPath id="clip2">
  <path d="M 195 95.894531 L 277 95.894531 L 277 236 L 195 236 Z M 195 95.894531 "/>
</clipPath>
<clipPath id="clip3">
  <path d="M 98 147 L 181 147 L 181 236.683594 L 98 236.683594 Z M 98 147 "/>
</clipPath>
</defs>
<g id="surface1">
<g clip-path="url(#clip1)" clip-rule="nonzero">
<path style=" stroke:none;fill-rule:nonzero;fill:rgb(21.958923%,55.688477%,23.529053%);fill-opacity:1;" d="M 137.433594 148.390625 L 101.105469 168.402344 C 99.742188 169.148438 98.90625 170.535156 98.90625 172.03125 L 98.90625 212.078125 C 98.90625 213.574219 99.742188 214.953125 101.105469 215.703125 L 137.441406 235.730469 C 138.792969 236.476562 140.476562 236.476562 141.828125 235.730469 L 178.160156 215.703125 C 179.507812 214.953125 180.34375 213.574219 180.34375 212.078125 L 180.34375 172.03125 C 180.34375 170.535156 179.507812 169.15625 178.144531 168.402344 L 141.824219 148.390625 C 141.140625 148.015625 140.378906 147.832031 139.625 147.832031 C 138.859375 147.832031 138.105469 148.015625 137.425781 148.390625 M 324.347656 184.441406 L 318.289062 187.773438 C 318.0625 187.898438 317.929688 188.128906 317.929688 188.378906 L 317.929688 195.058594 C 317.929688 195.308594 318.070312 195.535156 318.289062 195.660156 L 324.347656 199 C 324.574219 199.125 324.851562 199.125 325.078125 199 L 331.136719 195.660156 C 331.359375 195.535156 331.5 195.308594 331.5 195.058594 L 331.5 188.378906 C 331.5 188.128906 331.359375 187.898438 331.128906 187.773438 L 325.070312 184.441406 C 324.960938 184.375 324.835938 184.347656 324.710938 184.347656 C 324.582031 184.347656 324.457031 184.375 324.347656 184.441406 "/>
</g>
<g clip-path="url(#clip2)" clip-rule="nonzero">
<path style=" stroke:none;fill-rule:nonzero;fill:rgb(21.569824%,27.839661%,30.979919%);fill-opacity:1;" d="M 274.742188 105.945312 L 257.058594 96.121094 C 256.5 95.8125 255.820312 95.820312 255.273438 96.144531 C 254.726562 96.46875 254.382812 97.050781 254.382812 97.683594 L 254.375 157.035156 L 238.066406 148.050781 C 237.386719 147.675781 236.625 147.492188 235.867188 147.492188 C 235.113281 147.492188 234.351562 147.675781 233.667969 148.050781 L 233.675781 148.050781 L 197.347656 168.0625 C 195.984375 168.808594 195.148438 170.195312 195.148438 171.683594 L 195.148438 211.730469 C 195.148438 213.226562 195.984375 214.605469 197.347656 215.359375 L 233.683594 235.386719 C 235.039062 236.128906 236.71875 236.128906 238.074219 235.386719 L 274.402344 215.359375 C 275.75 214.613281 276.585938 213.226562 276.585938 211.730469 L 276.585938 109.074219 C 276.585938 107.773438 275.875 106.582031 274.742188 105.945312 Z M 253.386719 202.464844 L 236.875 211.570312 C 236.261719 211.90625 235.5 211.90625 234.882812 211.570312 L 218.367188 202.464844 C 217.738281 202.125 217.359375 201.492188 217.359375 200.8125 L 217.359375 182.605469 C 217.359375 181.929688 217.738281 181.300781 218.359375 180.957031 L 234.875 171.859375 L 234.867188 171.859375 C 235.179688 171.691406 235.519531 171.609375 235.867188 171.609375 C 236.214844 171.609375 236.558594 171.699219 236.867188 171.859375 L 253.378906 180.957031 C 254 181.300781 254.375 181.9375 254.375 182.613281 L 254.375 200.820312 C 254.375 201.492188 254 202.125 253.386719 202.464844 Z M 253.386719 202.464844 "/>
</g>
<g clip-path="url(#clip3)" clip-rule="nonzero">
<path style=" stroke:none;fill-rule:nonzero;fill:rgb(18.03894%,49.01886%,19.60907%);fill-opacity:1;" d="M 137.433594 148.390625 L 98.90625 212.078125 C 98.90625 213.574219 99.742188 214.953125 101.105469 215.703125 L 137.441406 235.730469 C 138.792969 236.476562 140.476562 236.476562 141.828125 235.730469 L 180.34375 172.03125 C 180.34375 170.535156 179.507812 169.15625 178.144531 168.402344 L 141.824219 148.390625 C 141.140625 148.015625 140.378906 147.832031 139.625 147.832031 C 138.859375 147.832031 138.105469 148.015625 137.425781 148.390625 "/>
<path style=" stroke:none;fill-rule:nonzero;fill:rgb(29.798889%,68.629456%,31.369019%);fill-opacity:1;" d="M 137.433594 148.390625 L 101.105469 168.402344 C 99.742188 169.148438 98.90625 170.535156 98.90625 172.03125 L 137.433594 235.730469 C 138.789062 236.476562 140.46875 236.476562 141.824219 235.730469 L 178.152344 215.703125 C 179.507812 214.953125 180.34375 213.574219 180.34375 212.078125 L 141.824219 148.390625 C 141.140625 148.015625 140.378906 147.832031 139.625 147.832031 C 138.859375 147.832031 138.105469 148.015625 137.425781 148.390625 "/>
</g>
<path style=" stroke:none;fill-rule:nonzero;fill:rgb(21.569824%,27.839661%,30.979919%);fill-opacity:1;" d="M 363.230469 168.0625 L 326.910156 148.050781 C 326.226562 147.675781 325.464844 147.492188 324.710938 147.492188 C 323.953125 147.492188 323.191406 147.675781 322.511719 148.050781 L 322.519531 148.050781 L 286.1875 168.0625 C 284.835938 168.808594 283.992188 170.222656 283.992188 171.773438 L 283.992188 211.65625 C 283.992188 213.199219 284.835938 214.621094 286.1875 215.363281 L 322.527344 235.390625 C 323.886719 236.144531 325.554688 236.144531 326.914062 235.390625 L 343.667969 226.15625 C 345.203125 225.308594 345.195312 223.121094 343.65625 222.277344 L 307.199219 202.472656 C 306.585938 202.125 306.199219 201.484375 306.199219 200.792969 L 306.199219 182.613281 C 306.199219 181.9375 306.570312 181.308594 307.164062 180.984375 L 323.710938 171.875 L 323.703125 171.875 C 324.011719 171.707031 324.355469 171.625 324.703125 171.625 C 325.050781 171.625 325.390625 171.710938 325.703125 171.875 L 342.25 180.992188 C 342.839844 181.316406 343.210938 181.945312 343.210938 182.621094 L 343.210938 197.453125 C 343.210938 198.085938 343.550781 198.675781 344.105469 198.992188 C 344.660156 199.304688 345.34375 199.304688 345.898438 198.984375 L 363.652344 188.71875 C 364.746094 188.085938 365.429688 186.910156 365.429688 185.644531 L 365.429688 171.785156 C 365.429688 170.230469 364.585938 168.808594 363.230469 168.0625 Z M 89.304688 168.0625 L 52.980469 148.050781 C 52.300781 147.675781 51.539062 147.492188 50.78125 147.492188 C 50.027344 147.492188 49.265625 147.675781 48.582031 148.050781 L 48.589844 148.050781 L 12.261719 168.0625 C 10.90625 168.808594 10.0625 170.222656 10.0625 171.773438 L 10.0625 226.796875 C 10.0625 227.429688 10.40625 228.019531 10.960938 228.339844 C 11.515625 228.648438 12.195312 228.648438 12.75 228.332031 L 30.503906 218.0625 C 31.601562 217.429688 32.273438 216.257812 32.273438 214.988281 L 32.273438 182.605469 C 32.273438 181.929688 32.644531 181.300781 33.238281 180.976562 L 49.785156 171.867188 C 50.09375 171.699219 50.433594 171.617188 50.78125 171.617188 C 51.128906 171.617188 51.472656 171.707031 51.78125 171.867188 L 68.328125 180.984375 C 68.921875 181.308594 69.292969 181.9375 69.292969 182.613281 L 69.292969 214.996094 C 69.292969 216.265625 69.964844 217.4375 71.066406 218.070312 L 88.820312 228.339844 C 89.375 228.65625 90.058594 228.65625 90.613281 228.34375 C 91.160156 228.019531 91.5 227.429688 91.5 226.796875 L 91.5 171.777344 C 91.5 170.230469 90.65625 168.808594 89.304688 168.0625 Z M 89.304688 168.0625 "/>
</g>
</svg>
