<?xml version="1.0" encoding="UTF-8"?>
<svg xmlns="http://www.w3.org/2000/svg" xmlns:xlink="http://www.w3.org/1999/xlink" width="43.5pt" height="43.499998pt" viewBox="0 0 43.5 43.499998" version="1.2">
<defs>
<clipPath id="clip1">
  <path d="M 5 7.132812 L 39 7.132812 L 39 41.632812 L 5 41.632812 Z M 5 7.132812 "/>
</clipPath>
<clipPath id="clip2">
  <path d="M 4.546875 7.132812 L 39 7.132812 L 39 41.632812 L 4.546875 41.632812 Z M 4.546875 7.132812 "/>
</clipPath>
<clipPath id="clip3">
  <path d="M 7 23 L 20 23 L 20 35 L 7 35 Z M 7 23 "/>
</clipPath>
<clipPath id="clip4">
  <path d="M 14.476562 23.671875 L 19.921875 31.757812 L 10.589844 38.042969 L 5.144531 29.953125 Z M 14.476562 23.671875 "/>
</clipPath>
<clipPath id="clip5">
  <path d="M 14.476562 23.671875 L 19.921875 31.757812 L 10.589844 38.042969 L 5.144531 29.953125 Z M 14.476562 23.671875 "/>
</clipPath>
<clipPath id="clip6">
  <path d="M 29 10 L 38 10 L 38 27 L 29 27 Z M 29 10 "/>
</clipPath>
<clipPath id="clip7">
  <path d="M 39.148438 22.894531 L 30.238281 26.855469 L 20.183594 4.238281 L 29.089844 0.277344 Z M 39.148438 22.894531 "/>
</clipPath>
<clipPath id="clip8">
  <path d="M 39.148438 22.894531 L 30.238281 26.855469 L 20.183594 4.238281 L 29.089844 0.277344 Z M 39.148438 22.894531 "/>
</clipPath>
<clipPath id="clip9">
  <path d="M 39.148438 22.894531 L 29.90625 27.003906 L 19.972656 4.664062 L 29.214844 0.554688 Z M 39.148438 22.894531 "/>
</clipPath>
<clipPath id="clip10">
  <path d="M 27 0 L 37 0 L 37 19 L 27 19 Z M 27 0 "/>
</clipPath>
<clipPath id="clip11">
  <path d="M 39.148438 22.894531 L 30.238281 26.855469 L 20.183594 4.238281 L 29.089844 0.277344 Z M 39.148438 22.894531 "/>
</clipPath>
<clipPath id="clip12">
  <path d="M 39.148438 22.894531 L 30.238281 26.855469 L 20.183594 4.238281 L 29.089844 0.277344 Z M 39.148438 22.894531 "/>
</clipPath>
<clipPath id="clip13">
  <path d="M 39.148438 22.894531 L 29.90625 27.003906 L 19.972656 4.664062 L 29.214844 0.554688 Z M 39.148438 22.894531 "/>
</clipPath>
<clipPath id="clip14">
  <path d="M 25 14 L 33 14 L 33 19 L 25 19 Z M 25 14 "/>
</clipPath>
<clipPath id="clip15">
  <path d="M 39.148438 22.894531 L 30.238281 26.855469 L 20.183594 4.238281 L 29.089844 0.277344 Z M 39.148438 22.894531 "/>
</clipPath>
<clipPath id="clip16">
  <path d="M 39.148438 22.894531 L 30.238281 26.855469 L 20.183594 4.238281 L 29.089844 0.277344 Z M 39.148438 22.894531 "/>
</clipPath>
<clipPath id="clip17">
  <path d="M 39.148438 22.894531 L 29.90625 27.003906 L 19.972656 4.664062 L 29.214844 0.554688 Z M 39.148438 22.894531 "/>
</clipPath>
</defs>
<g id="surface1">
<path style=" stroke:none;fill-rule:nonzero;fill:rgb(100%,100%,100%);fill-opacity:1;" d="M 22.109375 29.996094 C 19.078125 30.167969 16.480469 27.863281 16.308594 24.855469 C 16.140625 21.839844 18.457031 19.265625 21.488281 19.09375 C 24.519531 18.921875 27.117188 21.226562 27.285156 24.238281 C 27.453125 27.25 25.136719 29.828125 22.109375 29.996094 Z M 20.871094 8.191406 C 11.777344 8.699219 4.824219 16.4375 5.335938 25.46875 C 5.847656 34.503906 13.636719 41.410156 22.730469 40.898438 C 31.820312 40.390625 38.773438 32.65625 38.257812 23.625 C 37.746094 14.589844 29.960938 7.679688 20.871094 8.191406 "/>
<g clip-path="url(#clip1)" clip-rule="nonzero">
<path style=" stroke:none;fill-rule:nonzero;fill:rgb(32.939148%,32.939148%,32.939148%);fill-opacity:1;" d="M 22.109375 29.996094 L 22.097656 29.828125 C 21.996094 29.835938 21.894531 29.839844 21.792969 29.839844 C 18.988281 29.839844 16.640625 27.660156 16.480469 24.84375 C 16.472656 24.742188 16.46875 24.640625 16.46875 24.542969 C 16.46875 21.753906 18.660156 19.421875 21.5 19.261719 C 21.601562 19.253906 21.703125 19.253906 21.804688 19.253906 C 24.609375 19.253906 26.957031 21.429688 27.117188 24.246094 C 27.121094 24.347656 27.125 24.449219 27.125 24.546875 C 27.125 27.335938 24.933594 29.671875 22.097656 29.828125 L 22.109375 29.996094 L 22.117188 30.164062 C 25.132812 29.996094 27.464844 27.511719 27.464844 24.546875 C 27.464844 24.441406 27.460938 24.335938 27.453125 24.230469 C 27.285156 21.230469 24.789062 18.914062 21.804688 18.914062 C 21.699219 18.914062 21.589844 18.917969 21.480469 18.925781 C 18.460938 19.097656 16.132812 21.578125 16.132812 24.542969 C 16.132812 24.648438 16.132812 24.753906 16.140625 24.863281 C 16.3125 27.859375 18.808594 30.175781 21.792969 30.175781 C 21.902344 30.175781 22.011719 30.171875 22.117188 30.164062 Z M 20.871094 8.191406 L 20.859375 8.023438 C 11.992188 8.519531 5.140625 15.820312 5.140625 24.53125 C 5.140625 24.847656 5.148438 25.160156 5.167969 25.480469 C 5.667969 34.285156 13.011719 41.09375 21.78125 41.09375 C 22.097656 41.09375 22.417969 41.085938 22.738281 41.066406 C 31.605469 40.570312 38.457031 33.273438 38.457031 24.5625 C 38.457031 24.246094 38.445312 23.929688 38.429688 23.613281 C 37.925781 14.804688 30.582031 7.996094 21.8125 7.996094 C 21.5 7.996094 21.179688 8.003906 20.859375 8.023438 L 20.871094 8.191406 L 20.878906 8.359375 C 21.195312 8.339844 21.503906 8.332031 21.8125 8.332031 C 30.402344 8.332031 37.597656 15.003906 38.089844 23.632812 C 38.109375 23.945312 38.117188 24.253906 38.117188 24.5625 C 38.117188 33.097656 31.402344 40.246094 22.71875 40.730469 C 22.40625 40.75 22.09375 40.757812 21.78125 40.757812 C 13.191406 40.757812 5.996094 34.085938 5.503906 25.460938 C 5.488281 25.148438 5.480469 24.839844 5.480469 24.53125 C 5.480469 15.996094 12.191406 8.84375 20.878906 8.359375 L 20.871094 8.191406 "/>
</g>
<g clip-path="url(#clip2)" clip-rule="nonzero">
<path style=" stroke:none;fill-rule:nonzero;fill:rgb(100%,100%,100%);fill-opacity:1;" d="M 21.804688 19.613281 C 21.710938 19.613281 21.617188 19.613281 21.519531 19.621094 C 18.785156 19.773438 16.6875 22.109375 16.839844 24.824219 C 16.996094 27.527344 19.300781 29.65625 22.078125 29.46875 C 24.808594 29.316406 26.90625 26.984375 26.753906 24.269531 C 26.605469 21.65625 24.433594 19.613281 21.804688 19.613281 Z M 21.792969 30.535156 C 18.601562 30.535156 15.960938 28.050781 15.78125 24.882812 C 15.59375 21.585938 18.140625 18.753906 21.460938 18.566406 C 24.8125 18.398438 27.628906 20.925781 27.816406 24.207031 C 28 27.503906 25.453125 30.339844 22.140625 30.527344 C 22.023438 30.53125 21.90625 30.535156 21.792969 30.535156 Z M 21.816406 8.695312 C 21.511719 8.695312 21.207031 8.703125 20.902344 8.71875 C 16.644531 8.957031 12.738281 10.828125 9.898438 13.988281 C 7.058594 17.140625 5.628906 21.210938 5.867188 25.4375 C 6.34375 33.828125 13.335938 40.398438 21.785156 40.398438 C 22.089844 40.398438 22.390625 40.390625 22.699219 40.371094 C 26.953125 40.136719 30.863281 38.261719 33.699219 35.105469 C 36.539062 31.949219 37.96875 27.878906 37.730469 23.652344 C 37.25 15.261719 30.261719 8.695312 21.816406 8.695312 Z M 21.785156 41.453125 C 12.773438 41.453125 5.3125 34.445312 4.804688 25.5 C 4.550781 20.988281 6.074219 16.648438 9.105469 13.28125 C 12.132812 9.914062 16.300781 7.917969 20.839844 7.664062 C 30.253906 7.136719 38.261719 14.324219 38.789062 23.59375 C 39.046875 28.101562 37.519531 32.441406 34.492188 35.808594 C 31.464844 39.179688 27.296875 41.171875 22.757812 41.429688 C 22.433594 41.445312 22.109375 41.453125 21.785156 41.453125 "/>
<path style=" stroke:none;fill-rule:nonzero;fill:rgb(32.939148%,32.939148%,32.939148%);fill-opacity:1;" d="M 21.804688 19.613281 L 21.804688 19.445312 C 21.707031 19.445312 21.609375 19.445312 21.507812 19.453125 L 21.511719 19.453125 C 18.78125 19.605469 16.664062 21.859375 16.664062 24.542969 C 16.664062 24.640625 16.667969 24.734375 16.671875 24.832031 C 16.75 26.171875 17.335938 27.375 18.242188 28.246094 C 19.152344 29.113281 20.382812 29.648438 21.738281 29.648438 C 21.855469 29.648438 21.972656 29.644531 22.089844 29.636719 L 22.078125 29.46875 L 22.089844 29.636719 C 24.816406 29.484375 26.929688 27.230469 26.933594 24.546875 C 26.933594 24.453125 26.929688 24.355469 26.921875 24.257812 C 26.769531 21.558594 24.523438 19.445312 21.804688 19.445312 L 21.804688 19.78125 C 24.34375 19.78125 26.441406 21.753906 26.585938 24.277344 C 26.589844 24.367188 26.59375 24.457031 26.59375 24.546875 C 26.59375 27.050781 24.613281 29.160156 22.070312 29.300781 L 22.066406 29.300781 C 21.957031 29.308594 21.847656 29.3125 21.738281 29.3125 C 20.472656 29.3125 19.328125 28.816406 18.480469 28.003906 C 17.632812 27.191406 17.082031 26.066406 17.011719 24.8125 C 17.003906 24.722656 17.003906 24.632812 17.003906 24.542969 C 17.003906 22.039062 18.980469 19.929688 21.53125 19.789062 C 21.621094 19.78125 21.710938 19.78125 21.804688 19.78125 Z M 21.792969 30.535156 L 21.792969 30.367188 C 18.691406 30.367188 16.125 27.953125 15.949219 24.875 C 15.941406 24.761719 15.9375 24.652344 15.9375 24.542969 C 15.9375 21.480469 18.355469 18.910156 21.46875 18.734375 C 21.570312 18.726562 21.671875 18.726562 21.769531 18.726562 C 24.898438 18.726562 27.472656 21.128906 27.648438 24.21875 C 27.652344 24.328125 27.65625 24.4375 27.65625 24.546875 C 27.65625 27.605469 25.242188 30.183594 22.128906 30.359375 C 22.019531 30.363281 21.90625 30.367188 21.792969 30.367188 L 21.792969 30.703125 C 21.910156 30.703125 22.03125 30.699219 22.148438 30.695312 C 25.441406 30.507812 27.996094 27.785156 27.996094 24.546875 C 27.996094 24.429688 27.992188 24.316406 27.984375 24.199219 C 27.800781 20.929688 25.074219 18.390625 21.769531 18.390625 C 21.664062 18.390625 21.558594 18.390625 21.449219 18.398438 C 18.15625 18.582031 15.601562 21.304688 15.601562 24.542969 C 15.601562 24.65625 15.605469 24.773438 15.609375 24.890625 C 15.796875 28.152344 18.511719 30.703125 21.792969 30.703125 Z M 21.816406 8.695312 L 21.816406 8.527344 C 21.507812 8.527344 21.203125 8.53125 20.890625 8.550781 C 16.589844 8.789062 12.640625 10.683594 9.769531 13.875 C 7.109375 16.832031 5.671875 20.589844 5.671875 24.527344 C 5.671875 24.835938 5.679688 25.140625 5.695312 25.449219 C 6.179688 33.925781 13.246094 40.566406 21.785156 40.566406 C 22.09375 40.566406 22.398438 40.558594 22.707031 40.539062 C 27.007812 40.300781 30.957031 38.40625 33.828125 35.21875 C 36.488281 32.257812 37.925781 28.503906 37.925781 24.566406 C 37.925781 24.261719 37.914062 23.953125 37.898438 23.644531 C 37.414062 15.164062 30.351562 8.527344 21.816406 8.527344 L 21.816406 8.863281 C 30.171875 8.863281 37.085938 15.363281 37.558594 23.664062 C 37.578125 23.964844 37.585938 24.265625 37.585938 24.566406 C 37.585938 28.421875 36.179688 32.09375 33.574219 34.992188 C 30.765625 38.117188 26.902344 39.96875 22.6875 40.203125 C 22.386719 40.222656 22.085938 40.230469 21.785156 40.230469 C 13.425781 40.230469 6.507812 33.730469 6.035156 25.429688 C 6.019531 25.128906 6.011719 24.828125 6.011719 24.527344 C 6.011719 20.671875 7.417969 16.996094 10.023438 14.097656 C 12.835938 10.972656 16.699219 9.121094 20.910156 8.886719 C 21.214844 8.871094 21.515625 8.863281 21.816406 8.863281 Z M 21.785156 41.453125 L 21.785156 41.285156 C 12.863281 41.285156 5.476562 34.347656 4.972656 25.492188 C 4.957031 25.167969 4.945312 24.847656 4.945312 24.527344 C 4.945312 20.410156 6.449219 16.488281 9.230469 13.394531 C 12.230469 10.058594 16.355469 8.082031 20.851562 7.832031 C 21.171875 7.8125 21.496094 7.804688 21.8125 7.804688 C 30.707031 7.804688 38.113281 14.746094 38.621094 23.601562 C 38.640625 23.925781 38.648438 24.25 38.648438 24.570312 C 38.648438 28.683594 37.148438 32.601562 34.367188 35.699219 C 31.367188 39.03125 27.246094 41.007812 22.75 41.261719 C 22.425781 41.277344 22.105469 41.285156 21.785156 41.285156 L 21.785156 41.621094 C 22.109375 41.621094 22.4375 41.613281 22.769531 41.597656 C 27.351562 41.339844 31.5625 39.324219 34.621094 35.921875 C 37.453125 32.765625 38.988281 28.765625 38.988281 24.570312 C 38.988281 24.242188 38.976562 23.914062 38.960938 23.582031 C 38.441406 14.546875 30.886719 7.46875 21.8125 7.46875 C 21.488281 7.46875 21.160156 7.476562 20.832031 7.496094 C 16.246094 7.75 12.035156 9.765625 8.980469 13.167969 C 6.140625 16.324219 4.605469 20.328125 4.609375 24.527344 C 4.609375 24.855469 4.617188 25.179688 4.636719 25.507812 C 5.148438 34.542969 12.683594 41.621094 21.785156 41.621094 L 21.785156 41.453125 "/>
</g>
<path style=" stroke:none;fill-rule:nonzero;fill:rgb(100%,100%,100%);fill-opacity:1;" d="M 36.21875 23.75 C 36.660156 31.660156 30.554688 38.449219 22.59375 38.898438 L 22.566406 38.902344 L 22.574219 39.148438 C 22.585938 39.148438 22.597656 39.148438 22.605469 39.148438 C 30.703125 38.695312 36.917969 31.785156 36.472656 23.738281 L 36.21875 23.75 "/>
<path style=" stroke:none;fill-rule:nonzero;fill:rgb(32.939148%,32.939148%,32.939148%);fill-opacity:1;" d="M 36.21875 23.75 L 36.050781 23.761719 C 36.066406 24.027344 36.074219 24.292969 36.074219 24.558594 C 36.074219 32.027344 30.183594 38.304688 22.582031 38.730469 L 22.578125 38.730469 L 22.550781 38.734375 C 22.460938 38.742188 22.390625 38.820312 22.394531 38.910156 L 22.40625 39.15625 C 22.410156 39.203125 22.429688 39.246094 22.464844 39.277344 C 22.5 39.304688 22.546875 39.320312 22.59375 39.316406 L 22.585938 39.257812 L 22.589844 39.316406 L 22.59375 39.316406 L 22.585938 39.257812 L 22.589844 39.316406 L 22.59375 39.316406 C 22.597656 39.316406 22.609375 39.316406 22.628906 39.3125 L 22.605469 39.148438 L 22.613281 39.316406 C 30.527344 38.871094 36.664062 32.335938 36.664062 24.550781 C 36.664062 24.277344 36.65625 24.003906 36.640625 23.726562 C 36.640625 23.683594 36.621094 23.640625 36.585938 23.609375 C 36.550781 23.582031 36.507812 23.566406 36.464844 23.570312 L 36.210938 23.582031 C 36.117188 23.589844 36.042969 23.667969 36.050781 23.761719 L 36.21875 23.75 L 36.230469 23.917969 L 36.480469 23.90625 L 36.472656 23.738281 L 36.304688 23.746094 C 36.316406 24.015625 36.324219 24.285156 36.324219 24.550781 C 36.324219 32.15625 30.328125 38.546875 22.597656 38.980469 L 22.582031 38.980469 L 22.597656 39.085938 L 22.59375 38.980469 L 22.582031 38.980469 L 22.597656 39.085938 L 22.59375 38.980469 L 22.59375 39 L 22.59375 38.980469 L 22.59375 39 L 22.59375 38.980469 C 22.585938 38.980469 22.574219 38.980469 22.558594 38.980469 L 22.574219 39.148438 L 22.746094 39.140625 L 22.734375 38.894531 L 22.566406 38.902344 L 22.578125 39.070312 L 22.609375 39.066406 L 22.59375 38.898438 L 22.601562 39.066406 C 30.382812 38.628906 36.410156 32.207031 36.410156 24.558594 C 36.410156 24.289062 36.402344 24.015625 36.386719 23.742188 L 36.21875 23.75 L 36.230469 23.917969 L 36.21875 23.75 "/>
<path style=" stroke:none;fill-rule:nonzero;fill:rgb(100%,100%,100%);fill-opacity:1;" d="M 7.335938 25.421875 C 7.335938 25.402344 7.335938 25.378906 7.332031 25.355469 C 6.882812 17.445312 13 10.640625 20.960938 10.195312 L 20.984375 10.195312 L 20.96875 9.945312 L 20.945312 9.949219 C 12.847656 10.398438 6.625 17.320312 7.082031 25.371094 C 7.085938 25.394531 7.085938 25.414062 7.085938 25.4375 L 7.335938 25.421875 "/>
<path style=" stroke:none;fill-rule:nonzero;fill:rgb(32.939148%,32.939148%,32.939148%);fill-opacity:1;" d="M 7.335938 25.421875 L 7.507812 25.402344 C 7.503906 25.394531 7.503906 25.371094 7.5 25.332031 L 7.332031 25.355469 L 7.5 25.347656 C 7.484375 25.078125 7.476562 24.808594 7.476562 24.539062 C 7.476562 17.070312 13.375 10.789062 20.972656 10.363281 L 20.960938 10.195312 L 20.960938 10.363281 L 20.984375 10.363281 C 21.03125 10.363281 21.074219 10.34375 21.105469 10.308594 C 21.140625 10.277344 21.15625 10.230469 21.152344 10.183594 L 21.140625 9.933594 C 21.136719 9.886719 21.113281 9.839844 21.074219 9.8125 C 21.035156 9.78125 20.988281 9.769531 20.941406 9.777344 L 20.917969 9.78125 L 20.945312 9.949219 L 20.9375 9.78125 C 13.027344 10.222656 6.886719 16.757812 6.886719 24.539062 C 6.886719 24.816406 6.894531 25.097656 6.910156 25.382812 L 6.914062 25.394531 C 6.914062 25.402344 6.914062 25.417969 6.917969 25.445312 C 6.921875 25.539062 7.003906 25.609375 7.09375 25.605469 L 7.347656 25.589844 C 7.394531 25.589844 7.4375 25.566406 7.46875 25.53125 C 7.5 25.496094 7.511719 25.445312 7.507812 25.402344 L 7.335938 25.421875 L 7.328125 25.253906 L 7.078125 25.269531 L 7.085938 25.4375 L 7.253906 25.425781 C 7.253906 25.414062 7.253906 25.386719 7.25 25.347656 L 7.082031 25.371094 L 7.25 25.363281 C 7.234375 25.085938 7.226562 24.8125 7.226562 24.539062 C 7.226562 16.9375 13.226562 10.546875 20.957031 10.117188 L 20.976562 10.113281 L 21 10.109375 L 20.96875 9.945312 L 20.800781 9.953125 L 20.816406 10.203125 L 20.984375 10.195312 L 20.984375 10.027344 L 20.953125 10.027344 C 13.171875 10.464844 7.140625 16.890625 7.140625 24.539062 C 7.140625 24.8125 7.148438 25.089844 7.164062 25.367188 L 7.164062 25.382812 C 7.164062 25.390625 7.164062 25.410156 7.171875 25.445312 L 7.335938 25.421875 L 7.328125 25.253906 L 7.335938 25.421875 "/>
<path style=" stroke:none;fill-rule:nonzero;fill:rgb(100%,100%,100%);fill-opacity:1;" d="M 8.574219 25.355469 C 8.574219 25.332031 8.570312 25.308594 8.570312 25.289062 C 8.160156 18.050781 13.75 11.832031 21.027344 11.425781 L 21.050781 11.421875 L 21.039062 11.175781 L 21.015625 11.175781 C 13.59375 11.59375 7.898438 17.929688 8.320312 25.304688 C 8.320312 25.324219 8.320312 25.347656 8.324219 25.367188 L 8.574219 25.355469 "/>
<path style=" stroke:none;fill-rule:nonzero;fill:rgb(32.939148%,32.939148%,32.939148%);fill-opacity:1;" d="M 8.574219 25.355469 L 8.742188 25.339844 C 8.742188 25.320312 8.742188 25.304688 8.742188 25.289062 L 8.742188 25.277344 C 8.726562 25.03125 8.71875 24.785156 8.71875 24.539062 C 8.71875 17.71875 14.101562 11.980469 21.039062 11.59375 L 21.050781 11.59375 L 21.074219 11.589844 C 21.160156 11.578125 21.222656 11.5 21.21875 11.414062 L 21.207031 11.167969 C 21.203125 11.078125 21.128906 11.007812 21.039062 11.007812 L 21.007812 11.007812 C 13.753906 11.414062 8.128906 17.40625 8.128906 24.539062 C 8.128906 24.796875 8.136719 25.054688 8.148438 25.3125 L 8.320312 25.304688 L 8.148438 25.304688 C 8.148438 25.332031 8.152344 25.355469 8.152344 25.382812 C 8.160156 25.472656 8.238281 25.539062 8.332031 25.535156 L 8.582031 25.523438 C 8.628906 25.519531 8.671875 25.5 8.703125 25.464844 C 8.730469 25.429688 8.746094 25.386719 8.742188 25.339844 L 8.574219 25.355469 L 8.566406 25.1875 L 8.3125 25.199219 L 8.324219 25.367188 L 8.492188 25.351562 C 8.488281 25.335938 8.488281 25.316406 8.488281 25.304688 L 8.488281 25.292969 C 8.472656 25.039062 8.464844 24.789062 8.46875 24.539062 C 8.464844 17.585938 13.953125 11.742188 21.027344 11.34375 L 21.015625 11.175781 L 21.015625 11.34375 L 21.039062 11.34375 L 21.039062 11.175781 L 20.871094 11.183594 L 20.882812 11.429688 L 21.050781 11.421875 L 21.027344 11.253906 L 21.003906 11.257812 L 21.027344 11.425781 L 21.019531 11.257812 C 13.902344 11.65625 8.382812 17.539062 8.378906 24.539062 C 8.378906 24.789062 8.386719 25.042969 8.402344 25.296875 L 8.570312 25.289062 L 8.402344 25.289062 C 8.402344 25.316406 8.402344 25.34375 8.40625 25.367188 L 8.574219 25.355469 L 8.566406 25.1875 L 8.574219 25.355469 "/>
<path style=" stroke:none;fill-rule:nonzero;fill:rgb(100%,100%,100%);fill-opacity:1;" d="M 34.984375 23.820312 C 35.386719 31.050781 29.796875 37.261719 22.523438 37.667969 C 22.515625 37.667969 22.503906 37.667969 22.496094 37.667969 L 22.507812 37.921875 C 22.515625 37.921875 22.523438 37.921875 22.535156 37.921875 C 29.953125 37.503906 35.644531 31.175781 35.234375 23.808594 L 34.984375 23.820312 "/>
<path style=" stroke:none;fill-rule:nonzero;fill:rgb(32.939148%,32.939148%,32.939148%);fill-opacity:1;" d="M 34.984375 23.820312 L 34.816406 23.832031 C 34.828125 24.070312 34.835938 24.3125 34.835938 24.550781 C 34.835938 31.375 29.449219 37.113281 22.515625 37.5 L 22.523438 37.667969 L 22.523438 37.5 C 22.515625 37.5 22.503906 37.5 22.496094 37.5 C 22.449219 37.5 22.40625 37.519531 22.371094 37.554688 C 22.339844 37.585938 22.324219 37.632812 22.324219 37.679688 L 22.339844 37.929688 C 22.34375 38.019531 22.417969 38.089844 22.507812 38.089844 C 22.515625 38.089844 22.523438 38.089844 22.535156 38.089844 L 22.546875 38.089844 C 29.800781 37.679688 35.425781 31.683594 35.425781 24.550781 C 35.425781 24.300781 35.417969 24.050781 35.40625 23.796875 C 35.398438 23.707031 35.320312 23.632812 35.226562 23.640625 L 34.976562 23.652344 C 34.933594 23.65625 34.890625 23.675781 34.859375 23.707031 C 34.828125 23.742188 34.8125 23.785156 34.816406 23.832031 L 34.984375 23.820312 L 34.996094 23.988281 L 35.246094 23.976562 L 35.234375 23.808594 L 35.066406 23.816406 C 35.082031 24.0625 35.085938 24.308594 35.085938 24.550781 C 35.089844 31.507812 29.601562 37.355469 22.527344 37.753906 L 22.535156 37.921875 L 22.535156 37.753906 C 22.523438 37.753906 22.515625 37.753906 22.507812 37.753906 L 22.507812 37.921875 L 22.675781 37.914062 L 22.664062 37.660156 L 22.496094 37.667969 L 22.496094 37.839844 C 22.503906 37.839844 22.515625 37.839844 22.523438 37.839844 L 22.535156 37.835938 C 29.652344 37.4375 35.175781 31.554688 35.175781 24.550781 C 35.175781 24.304688 35.167969 24.058594 35.15625 23.8125 L 34.984375 23.820312 L 34.996094 23.988281 L 34.984375 23.820312 "/>
<path style=" stroke:none;fill-rule:nonzero;fill:rgb(100%,100%,100%);fill-opacity:1;" d="M 9.855469 25.28125 C 9.855469 25.257812 9.855469 25.238281 9.855469 25.214844 C 9.480469 18.683594 14.527344 13.070312 21.101562 12.699219 C 21.109375 12.699219 21.117188 12.699219 21.125 12.699219 L 21.113281 12.449219 L 21.089844 12.453125 C 14.378906 12.828125 9.222656 18.5625 9.601562 25.230469 C 9.605469 25.253906 9.605469 25.273438 9.605469 25.296875 L 9.855469 25.28125 "/>
<path style=" stroke:none;fill-rule:nonzero;fill:rgb(32.939148%,32.939148%,32.939148%);fill-opacity:1;" d="M 9.855469 25.28125 L 10.027344 25.28125 C 10.027344 25.242188 10.023438 25.222656 10.023438 25.214844 L 10.023438 25.207031 C 10.011719 24.980469 10.003906 24.757812 10.003906 24.539062 C 10.003906 18.390625 14.855469 13.21875 21.113281 12.867188 L 21.101562 12.699219 L 21.101562 12.867188 C 21.109375 12.867188 21.117188 12.867188 21.125 12.867188 C 21.171875 12.867188 21.21875 12.847656 21.25 12.816406 C 21.28125 12.78125 21.296875 12.734375 21.296875 12.6875 L 21.28125 12.4375 C 21.277344 12.394531 21.257812 12.351562 21.21875 12.320312 C 21.183594 12.289062 21.136719 12.277344 21.09375 12.28125 L 21.070312 12.285156 L 21.089844 12.453125 L 21.078125 12.285156 C 14.511719 12.652344 9.414062 18.082031 9.414062 24.539062 C 9.414062 24.769531 9.417969 25.003906 9.433594 25.238281 L 9.433594 25.246094 C 9.433594 25.261719 9.433594 25.28125 9.433594 25.296875 C 9.433594 25.339844 9.453125 25.386719 9.488281 25.417969 C 9.523438 25.449219 9.566406 25.464844 9.613281 25.464844 L 9.867188 25.449219 C 9.957031 25.441406 10.027344 25.371094 10.027344 25.28125 L 9.855469 25.28125 L 9.847656 25.113281 L 9.59375 25.128906 L 9.605469 25.296875 L 9.773438 25.296875 C 9.773438 25.269531 9.773438 25.242188 9.769531 25.214844 L 9.601562 25.230469 L 9.769531 25.21875 C 9.757812 24.992188 9.75 24.765625 9.75 24.539062 C 9.75 18.257812 14.710938 12.976562 21.097656 12.621094 L 21.109375 12.617188 L 21.128906 12.617188 L 21.113281 12.449219 L 20.941406 12.457031 L 20.957031 12.710938 L 21.125 12.699219 L 21.125 12.53125 C 21.117188 12.53125 21.109375 12.53125 21.101562 12.53125 L 21.09375 12.53125 C 14.65625 12.894531 9.664062 18.210938 9.664062 24.539062 C 9.664062 24.765625 9.671875 24.996094 9.683594 25.226562 L 9.855469 25.214844 L 9.683594 25.214844 C 9.683594 25.253906 9.6875 25.273438 9.6875 25.28125 L 9.855469 25.28125 L 9.847656 25.113281 L 9.855469 25.28125 "/>
<path style=" stroke:none;fill-rule:nonzero;fill:rgb(100%,100%,100%);fill-opacity:1;" d="M 33.699219 23.894531 C 34.0625 30.421875 29.019531 36.023438 22.449219 36.394531 C 22.4375 36.394531 22.429688 36.394531 22.417969 36.394531 L 22.433594 36.644531 L 22.457031 36.644531 C 29.171875 36.265625 34.324219 30.542969 33.953125 23.878906 L 33.699219 23.894531 "/>
<path style=" stroke:none;fill-rule:nonzero;fill:rgb(32.939148%,32.939148%,32.939148%);fill-opacity:1;" d="M 33.699219 23.894531 L 33.53125 23.902344 C 33.542969 24.121094 33.550781 24.335938 33.550781 24.550781 C 33.550781 30.703125 28.695312 35.875 22.441406 36.226562 L 22.449219 36.394531 L 22.449219 36.222656 C 22.4375 36.222656 22.425781 36.226562 22.414062 36.226562 L 22.402344 36.226562 C 22.3125 36.238281 22.246094 36.316406 22.25 36.40625 L 22.265625 36.65625 C 22.269531 36.703125 22.292969 36.746094 22.328125 36.777344 C 22.363281 36.804688 22.410156 36.820312 22.457031 36.8125 L 22.476562 36.808594 L 22.457031 36.644531 L 22.464844 36.808594 C 29.042969 36.441406 34.140625 31.015625 34.140625 24.554688 C 34.140625 24.328125 34.132812 24.097656 34.121094 23.871094 C 34.117188 23.777344 34.035156 23.707031 33.941406 23.710938 L 33.691406 23.722656 C 33.644531 23.726562 33.605469 23.746094 33.574219 23.78125 C 33.542969 23.8125 33.527344 23.855469 33.53125 23.902344 L 33.699219 23.894531 L 33.710938 24.0625 L 33.960938 24.046875 L 33.953125 23.878906 L 33.78125 23.886719 C 33.796875 24.113281 33.800781 24.332031 33.800781 24.554688 C 33.800781 30.835938 28.84375 36.117188 22.445312 36.476562 L 22.433594 36.476562 L 22.410156 36.480469 L 22.433594 36.644531 L 22.605469 36.636719 L 22.589844 36.386719 L 22.417969 36.394531 L 22.4375 36.5625 L 22.453125 36.5625 L 22.449219 36.519531 L 22.449219 36.5625 L 22.453125 36.5625 L 22.449219 36.519531 L 22.449219 36.5625 L 22.460938 36.5625 C 28.898438 36.199219 33.886719 30.882812 33.886719 24.550781 C 33.886719 24.332031 33.882812 24.109375 33.871094 23.882812 L 33.699219 23.894531 L 33.710938 24.0625 L 33.699219 23.894531 "/>
<path style=" stroke:none;fill-rule:nonzero;fill:rgb(100%,100%,100%);fill-opacity:1;" d="M 11.523438 25.1875 C 11.523438 25.167969 11.519531 25.144531 11.519531 25.125 C 11.199219 19.5 15.539062 14.671875 21.199219 14.355469 L 21.210938 14.355469 L 21.207031 14.101562 L 21.183594 14.101562 C 15.382812 14.429688 10.941406 19.378906 11.265625 25.136719 C 11.269531 25.15625 11.269531 25.179688 11.273438 25.203125 L 11.523438 25.1875 "/>
<path style=" stroke:none;fill-rule:nonzero;fill:rgb(32.939148%,32.939148%,32.939148%);fill-opacity:1;" d="M 11.523438 25.1875 L 11.691406 25.1875 C 11.691406 25.15625 11.6875 25.128906 11.6875 25.101562 L 11.519531 25.125 L 11.6875 25.113281 C 11.675781 24.921875 11.671875 24.730469 11.671875 24.542969 C 11.671875 19.261719 15.835938 14.824219 21.207031 14.523438 L 21.199219 14.355469 L 21.199219 14.523438 L 21.210938 14.523438 C 21.253906 14.523438 21.300781 14.503906 21.332031 14.472656 C 21.363281 14.4375 21.378906 14.394531 21.378906 14.351562 L 21.375 14.101562 C 21.375 14.007812 21.296875 13.933594 21.207031 13.933594 L 21.171875 13.933594 C 15.484375 14.257812 11.082031 18.953125 11.082031 24.542969 C 11.082031 24.742188 11.085938 24.945312 11.097656 25.144531 L 11.101562 25.164062 C 11.101562 25.167969 11.101562 25.183594 11.101562 25.210938 C 11.105469 25.253906 11.125 25.296875 11.15625 25.328125 C 11.191406 25.359375 11.234375 25.375 11.28125 25.371094 L 11.53125 25.355469 C 11.621094 25.351562 11.691406 25.277344 11.691406 25.1875 L 11.523438 25.1875 L 11.511719 25.019531 L 11.261719 25.035156 L 11.273438 25.203125 L 11.441406 25.195312 C 11.441406 25.175781 11.441406 25.148438 11.433594 25.109375 L 11.265625 25.136719 L 11.4375 25.128906 C 11.425781 24.929688 11.417969 24.738281 11.417969 24.542969 C 11.417969 19.128906 15.683594 14.582031 21.191406 14.269531 L 21.183594 14.101562 L 21.183594 14.269531 L 21.207031 14.269531 L 21.207031 14.101562 L 21.035156 14.105469 L 21.042969 14.355469 L 21.210938 14.355469 L 21.210938 14.183594 L 21.1875 14.183594 C 15.636719 14.496094 11.332031 19.082031 11.332031 24.542969 C 11.332031 24.738281 11.335938 24.933594 11.347656 25.132812 L 11.351562 25.148438 C 11.351562 25.164062 11.351562 25.175781 11.351562 25.1875 L 11.523438 25.1875 L 11.511719 25.019531 L 11.523438 25.1875 "/>
<path style=" stroke:none;fill-rule:nonzero;fill:rgb(100%,100%,100%);fill-opacity:1;" d="M 32.039062 23.984375 C 32.347656 29.601562 28.007812 34.425781 22.355469 34.742188 L 22.328125 34.742188 L 22.339844 34.992188 C 22.351562 34.992188 22.359375 34.992188 22.371094 34.988281 C 28.160156 34.664062 32.605469 29.722656 32.285156 23.972656 L 32.039062 23.984375 "/>
<path style=" stroke:none;fill-rule:nonzero;fill:rgb(32.939148%,32.939148%,32.939148%);fill-opacity:1;" d="M 32.039062 23.984375 L 31.867188 23.996094 C 31.878906 24.179688 31.882812 24.367188 31.882812 24.550781 C 31.882812 29.832031 27.71875 34.273438 22.347656 34.574219 L 22.355469 34.742188 L 22.355469 34.574219 L 22.328125 34.574219 C 22.28125 34.574219 22.234375 34.59375 22.203125 34.625 C 22.171875 34.660156 22.15625 34.703125 22.15625 34.75 L 22.171875 35 C 22.179688 35.089844 22.25 35.160156 22.339844 35.160156 C 22.351562 35.160156 22.378906 35.160156 22.40625 35.152344 L 22.371094 34.988281 L 22.378906 35.15625 C 28.0625 34.839844 32.472656 30.144531 32.472656 24.554688 C 32.472656 24.359375 32.46875 24.160156 32.457031 23.964844 C 32.453125 23.917969 32.433594 23.878906 32.398438 23.847656 C 32.367188 23.816406 32.324219 23.800781 32.277344 23.804688 L 32.027344 23.816406 C 31.933594 23.824219 31.863281 23.902344 31.867188 23.996094 L 32.039062 23.984375 L 32.046875 24.152344 L 32.296875 24.140625 L 32.285156 23.972656 L 32.117188 23.980469 C 32.128906 24.175781 32.132812 24.367188 32.132812 24.554688 C 32.132812 29.964844 27.863281 34.511719 22.359375 34.820312 L 22.332031 34.824219 L 22.347656 34.890625 L 22.34375 34.824219 L 22.332031 34.824219 L 22.347656 34.890625 L 22.34375 34.824219 L 22.347656 34.863281 L 22.34375 34.824219 L 22.347656 34.863281 L 22.34375 34.824219 L 22.339844 34.824219 L 22.339844 34.992188 L 22.511719 34.984375 L 22.496094 34.730469 L 22.328125 34.742188 L 22.328125 34.910156 L 22.367188 34.910156 C 27.917969 34.597656 32.222656 30.007812 32.222656 24.550781 C 32.222656 24.359375 32.21875 24.167969 32.207031 23.976562 L 32.039062 23.984375 L 32.046875 24.152344 L 32.039062 23.984375 "/>
<path style=" stroke:none;fill-rule:nonzero;fill:rgb(100%,100%,100%);fill-opacity:1;" d="M 21.835938 25.558594 C 21.273438 25.59375 20.789062 25.164062 20.757812 24.605469 C 20.726562 24.046875 21.160156 23.566406 21.71875 23.535156 C 22.28125 23.503906 22.765625 23.929688 22.796875 24.492188 C 22.828125 25.050781 22.398438 25.527344 21.835938 25.558594 Z M 21.464844 19.09375 C 18.4375 19.265625 16.121094 21.84375 16.289062 24.855469 C 16.464844 27.863281 19.058594 30.167969 22.085938 29.996094 C 25.117188 29.828125 27.4375 27.25 27.261719 24.238281 C 27.09375 21.226562 24.496094 18.925781 21.464844 19.09375 "/>
<path style=" stroke:none;fill-rule:nonzero;fill:rgb(32.939148%,32.939148%,32.939148%);fill-opacity:1;" d="M 21.835938 25.558594 L 21.824219 25.390625 C 21.808594 25.394531 21.792969 25.394531 21.773438 25.394531 C 21.328125 25.394531 20.953125 25.042969 20.925781 24.597656 C 20.925781 24.578125 20.925781 24.5625 20.925781 24.546875 C 20.925781 24.101562 21.277344 23.726562 21.730469 23.703125 C 21.746094 23.703125 21.761719 23.703125 21.777344 23.703125 C 22.226562 23.703125 22.601562 24.050781 22.628906 24.5 C 22.628906 24.515625 22.628906 24.53125 22.628906 24.546875 C 22.628906 24.992188 22.28125 25.367188 21.824219 25.390625 L 21.835938 25.558594 L 21.84375 25.730469 C 22.480469 25.691406 22.96875 25.171875 22.96875 24.546875 C 22.96875 24.527344 22.96875 24.503906 22.964844 24.480469 C 22.929688 23.851562 22.40625 23.367188 21.777344 23.363281 C 21.753906 23.363281 21.730469 23.367188 21.710938 23.367188 C 21.078125 23.402344 20.585938 23.921875 20.585938 24.546875 C 20.585938 24.570312 20.585938 24.59375 20.589844 24.617188 C 20.625 25.242188 21.148438 25.730469 21.773438 25.730469 C 21.796875 25.730469 21.820312 25.730469 21.84375 25.730469 Z M 21.464844 19.09375 L 21.457031 18.925781 C 18.441406 19.097656 16.113281 21.578125 16.113281 24.542969 C 16.113281 24.652344 16.117188 24.757812 16.121094 24.867188 C 16.292969 27.859375 18.789062 30.175781 21.769531 30.175781 C 21.875 30.175781 21.984375 30.171875 22.09375 30.164062 C 25.109375 29.996094 27.441406 27.515625 27.441406 24.554688 C 27.441406 24.449219 27.4375 24.339844 27.433594 24.230469 C 27.265625 21.234375 24.761719 18.917969 21.777344 18.917969 C 21.671875 18.917969 21.566406 18.921875 21.457031 18.925781 L 21.464844 19.09375 L 21.476562 19.261719 C 21.578125 19.257812 21.679688 19.253906 21.777344 19.253906 C 24.585938 19.253906 26.9375 21.429688 27.09375 24.25 C 27.101562 24.351562 27.101562 24.453125 27.101562 24.554688 C 27.101562 27.339844 24.910156 29.671875 22.074219 29.828125 C 21.972656 29.835938 21.871094 29.839844 21.769531 29.839844 C 18.96875 29.839844 16.621094 27.660156 16.460938 24.847656 C 16.453125 24.746094 16.453125 24.644531 16.449219 24.542969 C 16.449219 21.757812 18.644531 19.421875 21.476562 19.261719 L 21.464844 19.09375 "/>
<path style=" stroke:none;fill-rule:nonzero;fill:rgb(100%,100%,100%);fill-opacity:1;" d="M 21.78125 17.371094 C 21.644531 17.371094 21.507812 17.375 21.367188 17.386719 C 17.394531 17.605469 14.34375 21 14.566406 24.953125 C 14.78125 28.75 17.949219 31.722656 21.773438 31.722656 C 21.910156 31.722656 22.046875 31.714844 22.183594 31.707031 C 24.109375 31.601562 25.878906 30.753906 27.164062 29.328125 C 28.449219 27.894531 29.097656 26.054688 28.988281 24.144531 C 28.773438 20.347656 25.609375 17.371094 21.78125 17.371094 Z M 21.78125 17.929688 C 25.289062 17.929688 28.230469 20.652344 28.429688 24.175781 C 28.636719 27.824219 25.824219 30.949219 22.152344 31.152344 C 22.027344 31.164062 21.898438 31.164062 21.773438 31.164062 C 18.265625 31.164062 15.324219 28.441406 15.121094 24.921875 C 14.917969 21.269531 17.726562 18.144531 21.402344 17.9375 C 21.527344 17.933594 21.65625 17.929688 21.78125 17.929688 "/>
<path style=" stroke:none;fill-rule:nonzero;fill:rgb(32.939148%,32.939148%,32.939148%);fill-opacity:1;" d="M 21.78125 17.371094 L 21.78125 17.203125 C 21.640625 17.203125 21.5 17.207031 21.359375 17.21875 C 17.429688 17.4375 14.382812 20.679688 14.382812 24.542969 C 14.382812 24.683594 14.386719 24.820312 14.394531 24.960938 C 14.617188 28.847656 17.859375 31.890625 21.773438 31.890625 C 21.914062 31.890625 22.054688 31.882812 22.195312 31.875 C 24.164062 31.765625 25.976562 30.898438 27.289062 29.4375 C 28.507812 28.082031 29.167969 26.359375 29.167969 24.558594 C 29.167969 24.417969 29.164062 24.277344 29.15625 24.132812 C 28.9375 20.25 25.699219 17.203125 21.78125 17.203125 L 21.78125 17.539062 C 25.515625 17.539062 28.609375 20.445312 28.816406 24.152344 C 28.828125 24.289062 28.828125 24.421875 28.828125 24.558594 C 28.828125 26.28125 28.203125 27.917969 27.039062 29.214844 C 25.78125 30.609375 24.058594 31.433594 22.175781 31.539062 C 22.039062 31.546875 21.90625 31.554688 21.773438 31.554688 C 18.039062 31.554688 14.945312 28.648438 14.734375 24.941406 C 14.726562 24.808594 14.722656 24.675781 14.722656 24.542969 C 14.722656 20.859375 17.628906 17.761719 21.378906 17.554688 C 21.515625 17.542969 21.648438 17.539062 21.78125 17.539062 Z M 21.78125 18.097656 C 25.199219 18.097656 28.066406 20.75 28.257812 24.183594 C 28.265625 24.308594 28.269531 24.429688 28.269531 24.554688 C 28.269531 27.949219 25.597656 30.792969 22.144531 30.984375 L 22.140625 30.984375 C 22.019531 30.992188 21.894531 30.996094 21.773438 30.996094 C 18.351562 30.996094 15.488281 28.339844 15.292969 24.910156 C 15.285156 24.789062 15.28125 24.664062 15.28125 24.542969 C 15.28125 21.148438 17.953125 18.300781 21.410156 18.105469 C 21.535156 18.101562 21.660156 18.097656 21.78125 18.097656 L 21.78125 17.757812 C 21.652344 17.757812 21.519531 17.765625 21.390625 17.769531 C 17.753906 17.976562 14.941406 20.96875 14.941406 24.542969 C 14.941406 24.671875 14.945312 24.800781 14.953125 24.929688 C 15.160156 28.539062 18.175781 31.332031 21.773438 31.332031 C 21.902344 31.332031 22.03125 31.332031 22.164062 31.320312 L 22.152344 31.152344 L 22.164062 31.320312 C 25.796875 31.117188 28.609375 28.125 28.609375 24.554688 C 28.609375 24.425781 28.605469 24.296875 28.597656 24.164062 C 28.394531 20.550781 25.378906 17.757812 21.78125 17.757812 L 21.78125 18.097656 "/>
<g clip-path="url(#clip3)" clip-rule="nonzero">
<g clip-path="url(#clip4)" clip-rule="nonzero">
<g clip-path="url(#clip5)" clip-rule="nonzero">
<path style=" stroke:none;fill-rule:nonzero;fill:rgb(21.958923%,71.369934%,100%);fill-opacity:1;" d="M 14.433594 23.6875 L 7.292969 33.074219 L 7.609375 33.542969 L 14.75 24.15625 Z M 15.183594 24.800781 L 8.042969 34.1875 L 8.492188 34.855469 L 19.878906 31.769531 L 19.558594 31.296875 L 8.667969 34.25 L 15.5 25.269531 Z M 18.808594 30.183594 L 11.207031 32.246094 L 10.671875 32.945312 L 19.128906 30.652344 Z M 18.808594 30.183594 "/>
</g>
</g>
</g>
<g clip-path="url(#clip6)" clip-rule="nonzero">
<g clip-path="url(#clip7)" clip-rule="nonzero">
<g clip-path="url(#clip8)" clip-rule="nonzero">
<g clip-path="url(#clip9)" clip-rule="nonzero">
<path style="fill:none;stroke-width:1;stroke-linecap:square;stroke-linejoin:round;stroke:rgb(0%,0%,0%);stroke-opacity:1;stroke-miterlimit:4;" d="M 12.843254 4.426939 L 11.155931 4.427154 C 10.95961 4.426596 10.763049 4.445627 10.571458 4.483985 C 10.376788 4.523649 10.190168 4.581336 10.007334 4.654955 C 9.825684 4.73197 9.653978 4.822307 9.489373 4.933017 C 9.325716 5.041377 9.173188 5.166454 9.034865 5.306943 C 8.89536 5.444037 8.77006 5.596543 8.660863 5.75976 C 8.551666 5.922978 8.458571 6.096906 8.384657 6.28024 C 8.309559 6.460179 8.251511 6.648479 8.214538 6.841484 C 8.174487 7.035794 8.155276 7.229063 8.157141 7.427037 L 8.155703 12.299337 " transform="matrix(-1.530333,0.68045,-0.616979,-1.387587,53.077184,23.18092)"/>
</g>
</g>
</g>
</g>
<g clip-path="url(#clip10)" clip-rule="nonzero">
<g clip-path="url(#clip11)" clip-rule="nonzero">
<g clip-path="url(#clip12)" clip-rule="nonzero">
<g clip-path="url(#clip13)" clip-rule="nonzero">
<path style="fill:none;stroke-width:1;stroke-linecap:square;stroke-linejoin:round;stroke:rgb(0%,0%,0%);stroke-opacity:1;stroke-miterlimit:4;" d="M 8.155661 7.823246 L 8.155801 19.573702 " transform="matrix(-1.530333,0.68045,-0.616979,-1.387587,53.077184,23.18092)"/>
</g>
</g>
</g>
</g>
<g clip-path="url(#clip14)" clip-rule="nonzero">
<g clip-path="url(#clip15)" clip-rule="nonzero">
<g clip-path="url(#clip16)" clip-rule="nonzero">
<g clip-path="url(#clip17)" clip-rule="nonzero">
<path style="fill:none;stroke-width:1;stroke-linecap:square;stroke-linejoin:round;stroke:rgb(0%,0%,0%);stroke-opacity:1;stroke-miterlimit:4;" d="M 10.072044 10.604109 L 12.844226 10.603829 " transform="matrix(-1.530333,0.68045,-0.616979,-1.387587,53.077184,23.18092)"/>
</g>
</g>
</g>
</g>
<path style=" stroke:none;fill-rule:nonzero;fill:rgb(0%,0%,0%);fill-opacity:1;" d="M 29.449219 0.171875 L 30.742188 2.722656 C 30.792969 2.828125 30.75 2.957031 30.644531 3.007812 L 28.09375 4.296875 C 27.992188 4.351562 27.863281 4.308594 27.808594 4.203125 L 26.519531 1.652344 C 26.464844 1.546875 26.507812 1.417969 26.613281 1.367188 L 29.164062 0.078125 C 29.269531 0.0234375 29.398438 0.0664062 29.449219 0.171875 Z M 29.449219 0.171875 "/>
</g>
</svg>
