<?xml version="1.0" encoding="UTF-8"?>
<svg xmlns="http://www.w3.org/2000/svg" xmlns:xlink="http://www.w3.org/1999/xlink" width="60pt" height="52.499999pt" viewBox="0 0 60 52.499999" version="1.2">
<defs>
<clipPath id="clip1">
  <path d="M 2 2 L 59.714844 2 L 59.714844 44 L 2 44 Z M 2 2 "/>
</clipPath>
<clipPath id="clip2">
  <path d="M -4.921875 28.539062 L 9.324219 -9.757812 L 65.027344 10.964844 L 50.78125 49.261719 Z M -4.921875 28.539062 "/>
</clipPath>
<clipPath id="clip3">
  <path d="M 50.695312 49.230469 L 64.941406 10.929688 L 9.234375 -9.789062 L -5.011719 28.507812 Z M 50.695312 49.230469 "/>
</clipPath>
<clipPath id="clip4">
  <path d="M 23 7 L 53 7 L 53 39 L 23 39 Z M 23 7 "/>
</clipPath>
<clipPath id="clip5">
  <path d="M -4.921875 28.539062 L 9.324219 -9.757812 L 65.027344 10.964844 L 50.78125 49.261719 Z M -4.921875 28.539062 "/>
</clipPath>
<clipPath id="clip6">
  <path d="M 50.695312 49.230469 L 64.941406 10.929688 L 9.234375 -9.789062 L -5.011719 28.507812 Z M 50.695312 49.230469 "/>
</clipPath>
</defs>
<g id="surface1">
<g clip-path="url(#clip1)" clip-rule="nonzero">
<g clip-path="url(#clip2)" clip-rule="nonzero">
<g clip-path="url(#clip3)" clip-rule="nonzero">
<path style=" stroke:none;fill-rule:nonzero;fill:rgb(86.268616%,20.779419%,27.059937%);fill-opacity:1;" d="M 13.085938 11.347656 L 6.660156 8.957031 C 5.433594 8.5 4.085938 8.960938 3.714844 9.957031 C 3.34375 10.953125 4.066406 12.183594 5.289062 12.636719 L 11.71875 15.027344 C 12.941406 15.484375 14.289062 15.027344 14.660156 14.027344 C 15.03125 13.03125 14.3125 11.804688 13.085938 11.347656 Z M 32.011719 40.566406 C 41.738281 44.1875 52.597656 39.214844 56.214844 29.488281 C 59.835938 19.757812 54.863281 8.898438 45.136719 5.28125 C 35.410156 1.664062 24.550781 6.632812 20.933594 16.363281 C 17.316406 26.089844 22.285156 36.949219 32.011719 40.566406 Z M 45.699219 3.773438 C 56.253906 7.703125 61.648438 19.488281 57.722656 30.046875 C 53.792969 40.605469 42.007812 46 31.449219 42.074219 C 21.148438 38.242188 15.789062 26.925781 19.1875 16.570312 L 15.78125 15.304688 C 14.84375 16.640625 12.941406 17.199219 11.160156 16.535156 L 4.730469 14.144531 C 2.652344 13.371094 1.523438 11.242188 2.210938 9.398438 C 2.898438 7.550781 5.144531 6.679688 7.21875 7.453125 L 13.648438 9.84375 C 15.429688 10.507812 16.507812 12.171875 16.339844 13.796875 L 19.746094 15.0625 C 23.945312 5.003906 35.394531 -0.0585938 45.699219 3.773438 "/>
</g>
</g>
</g>
<g clip-path="url(#clip4)" clip-rule="nonzero">
<g clip-path="url(#clip5)" clip-rule="nonzero">
<g clip-path="url(#clip6)" clip-rule="nonzero">
<path style=" stroke:none;fill-rule:nonzero;fill:rgb(86.268616%,20.779419%,27.059937%);fill-opacity:1;" d="M 43.9375 8.507812 C 47.191406 9.71875 49.871094 11.917969 51.683594 14.871094 L 50.3125 15.710938 C 48.691406 13.066406 46.292969 11.097656 43.378906 10.011719 C 36.257812 7.363281 28.3125 11 25.664062 18.121094 C 23.015625 25.242188 26.652344 33.1875 33.769531 35.835938 C 40.890625 38.484375 48.835938 34.847656 51.484375 27.726562 L 52.992188 28.285156 C 50.035156 36.238281 41.160156 40.300781 33.210938 37.34375 C 25.261719 34.386719 21.203125 25.511719 24.160156 17.5625 C 27.117188 9.613281 35.988281 5.550781 43.9375 8.507812 "/>
</g>
</g>
</g>
</g>
</svg>
