<?xml version="1.0" encoding="UTF-8"?>
<svg xmlns="http://www.w3.org/2000/svg" xmlns:xlink="http://www.w3.org/1999/xlink" width="30pt" height="30.000001pt" viewBox="0 0 30 30.000001" version="1.2">
<defs>
<clipPath id="clip1">
  <path d="M 1 2 L 29.515625 2 L 29.515625 23 L 1 23 Z M 1 2 "/>
</clipPath>
<clipPath id="clip2">
  <path d="M -2.019531 15.320312 L 4.8125 -3.046875 L 32.023438 7.074219 L 25.191406 25.441406 Z M -2.019531 15.320312 "/>
</clipPath>
<clipPath id="clip3">
  <path d="M 25.085938 25.402344 L 31.917969 7.035156 L 4.707031 -3.085938 L -2.125 15.28125 Z M 25.085938 25.402344 "/>
</clipPath>
<clipPath id="clip4">
  <path d="M 11 5 L 27 5 L 27 21 L 11 21 Z M 11 5 "/>
</clipPath>
<clipPath id="clip5">
  <path d="M -2.019531 15.320312 L 4.8125 -3.046875 L 32.023438 7.074219 L 25.191406 25.441406 Z M -2.019531 15.320312 "/>
</clipPath>
<clipPath id="clip6">
  <path d="M 25.085938 25.402344 L 31.917969 7.035156 L 4.707031 -3.085938 L -2.125 15.28125 Z M 25.085938 25.402344 "/>
</clipPath>
</defs>
<g id="surface1">
<g clip-path="url(#clip1)" clip-rule="nonzero">
<g clip-path="url(#clip2)" clip-rule="nonzero">
<g clip-path="url(#clip3)" clip-rule="nonzero">
<path style=" stroke:none;fill-rule:nonzero;fill:rgb(86.268616%,20.779419%,27.059937%);fill-opacity:1;" d="M 6.644531 7.085938 L 3.503906 5.914062 C 2.90625 5.691406 2.25 5.910156 2.074219 6.386719 C 1.894531 6.867188 2.25 7.457031 2.847656 7.679688 L 5.988281 8.847656 C 6.585938 9.070312 7.242188 8.855469 7.421875 8.375 C 7.597656 7.898438 7.242188 7.304688 6.644531 7.085938 Z M 15.953125 21.183594 C 20.707031 22.953125 25.984375 20.59375 27.71875 15.929688 C 29.457031 11.261719 27.003906 6.027344 22.25 4.261719 C 17.5 2.492188 12.21875 4.851562 10.484375 9.515625 C 8.75 14.183594 11.203125 19.417969 15.953125 21.183594 Z M 22.519531 3.539062 C 27.675781 5.457031 30.339844 11.136719 28.457031 16.203125 C 26.570312 21.265625 20.84375 23.824219 15.6875 21.90625 C 10.652344 20.035156 8.007812 14.578125 9.632812 9.609375 L 7.96875 8.992188 C 7.515625 9.632812 6.589844 9.894531 5.71875 9.570312 L 2.578125 8.402344 C 1.566406 8.027344 1.007812 7 1.339844 6.113281 C 1.667969 5.230469 2.757812 4.816406 3.773438 5.195312 L 6.914062 6.363281 C 7.785156 6.6875 8.316406 7.488281 8.238281 8.269531 L 9.902344 8.890625 C 11.917969 4.066406 17.484375 1.667969 22.519531 3.539062 "/>
</g>
</g>
</g>
<g clip-path="url(#clip4)" clip-rule="nonzero">
<g clip-path="url(#clip5)" clip-rule="nonzero">
<g clip-path="url(#clip6)" clip-rule="nonzero">
<path style=" stroke:none;fill-rule:nonzero;fill:rgb(86.268616%,20.779419%,27.059937%);fill-opacity:1;" d="M 21.675781 5.808594 C 23.265625 6.398438 24.578125 7.464844 25.46875 8.890625 L 24.804688 9.289062 C 24.003906 8.015625 22.832031 7.058594 21.40625 6.53125 C 17.929688 5.234375 14.066406 6.960938 12.796875 10.375 C 11.523438 13.792969 13.320312 17.621094 16.796875 18.914062 C 20.277344 20.210938 24.140625 18.484375 25.410156 15.070312 L 26.144531 15.34375 C 24.726562 19.15625 20.414062 21.082031 16.53125 19.636719 C 12.648438 18.191406 10.640625 13.914062 12.058594 10.101562 C 13.476562 6.289062 17.792969 4.363281 21.675781 5.808594 "/>
</g>
</g>
</g>
</g>
</svg>
