<?xml version="1.0" encoding="UTF-8"?>
<svg xmlns="http://www.w3.org/2000/svg" xmlns:xlink="http://www.w3.org/1999/xlink" width="375pt" height="374.999991pt" viewBox="0 0 375 374.999991" version="1.2">
<defs>
<clipPath id="clip1">
  <path d="M 56.523438 56.523438 L 318.074219 56.523438 L 318.074219 318.074219 L 56.523438 318.074219 Z M 56.523438 56.523438 "/>
</clipPath>
</defs>
<g id="surface1">
<g clip-path="url(#clip1)" clip-rule="nonzero">
<path style=" stroke:none;fill-rule:nonzero;fill:rgb(0%,76.858521%,79.998779%);fill-opacity:1;" d="M 318.074219 187.296875 C 318.074219 189.4375 318.019531 191.578125 317.917969 193.714844 C 317.8125 195.851562 317.652344 197.988281 317.445312 200.117188 C 317.234375 202.246094 316.972656 204.371094 316.660156 206.488281 C 316.34375 208.605469 315.980469 210.710938 315.5625 212.8125 C 315.144531 214.910156 314.675781 217 314.15625 219.074219 C 313.636719 221.152344 313.0625 223.210938 312.441406 225.261719 C 311.820312 227.308594 311.152344 229.339844 310.429688 231.355469 C 309.707031 233.371094 308.9375 235.367188 308.121094 237.34375 C 307.300781 239.320312 306.433594 241.277344 305.519531 243.210938 C 304.601562 245.148438 303.640625 247.058594 302.632812 248.945312 C 301.625 250.832031 300.570312 252.695312 299.46875 254.53125 C 298.367188 256.367188 297.222656 258.175781 296.035156 259.953125 C 294.84375 261.734375 293.613281 263.480469 292.339844 265.203125 C 291.0625 266.921875 289.746094 268.605469 288.390625 270.261719 C 287.03125 271.914062 285.632812 273.535156 284.195312 275.121094 C 282.757812 276.707031 281.285156 278.257812 279.769531 279.769531 C 278.257812 281.285156 276.707031 282.757812 275.121094 284.195312 C 273.535156 285.632812 271.917969 287.03125 270.261719 288.390625 C 268.605469 289.746094 266.921875 291.0625 265.203125 292.339844 C 263.480469 293.613281 261.734375 294.84375 259.953125 296.035156 C 258.175781 297.222656 256.367188 298.367188 254.53125 299.46875 C 252.695312 300.570312 250.832031 301.625 248.945312 302.632812 C 247.058594 303.640625 245.148438 304.601562 243.210938 305.519531 C 241.277344 306.433594 239.320312 307.300781 237.34375 308.121094 C 235.367188 308.9375 233.371094 309.707031 231.355469 310.429688 C 229.339844 311.152344 227.308594 311.820312 225.261719 312.441406 C 223.210938 313.0625 221.152344 313.636719 219.074219 314.15625 C 217 314.675781 214.910156 315.144531 212.8125 315.5625 C 210.710938 315.980469 208.605469 316.34375 206.488281 316.660156 C 204.371094 316.972656 202.246094 317.234375 200.117188 317.445312 C 197.988281 317.652344 195.851562 317.8125 193.714844 317.917969 C 191.578125 318.019531 189.4375 318.074219 187.296875 318.074219 C 185.160156 318.074219 183.019531 318.019531 180.882812 317.917969 C 178.742188 317.8125 176.609375 317.652344 174.480469 317.445312 C 172.351562 317.234375 170.226562 316.972656 168.109375 316.660156 C 165.992188 316.34375 163.882812 315.980469 161.785156 315.5625 C 159.6875 315.144531 157.597656 314.675781 155.523438 314.15625 C 153.445312 313.636719 151.382812 313.0625 149.335938 312.441406 C 147.289062 311.820312 145.257812 311.152344 143.242188 310.429688 C 141.226562 309.707031 139.230469 308.9375 137.253906 308.121094 C 135.277344 307.300781 133.320312 306.433594 131.386719 305.519531 C 129.449219 304.601562 127.539062 303.640625 125.652344 302.632812 C 123.765625 301.625 121.902344 300.570312 120.066406 299.46875 C 118.230469 298.367188 116.421875 297.222656 114.644531 296.035156 C 112.863281 294.84375 111.113281 293.613281 109.394531 292.339844 C 107.675781 291.0625 105.988281 289.746094 104.335938 288.390625 C 102.679688 287.03125 101.0625 285.632812 99.476562 284.195312 C 97.890625 282.757812 96.339844 281.285156 94.828125 279.769531 C 93.3125 278.257812 91.835938 276.707031 90.398438 275.121094 C 88.964844 273.535156 87.566406 271.914062 86.207031 270.261719 C 84.851562 268.605469 83.535156 266.921875 82.257812 265.203125 C 80.984375 263.480469 79.75 261.734375 78.5625 259.953125 C 77.375 258.175781 76.230469 256.367188 75.128906 254.53125 C 74.027344 252.695312 72.972656 250.832031 71.964844 248.945312 C 70.957031 247.058594 69.992188 245.148438 69.078125 243.210938 C 68.164062 241.277344 67.296875 239.320312 66.476562 237.34375 C 65.660156 235.367188 64.890625 233.371094 64.167969 231.355469 C 63.445312 229.339844 62.777344 227.308594 62.152344 225.261719 C 61.53125 223.210938 60.960938 221.152344 60.441406 219.074219 C 59.921875 217 59.453125 214.910156 59.035156 212.8125 C 58.617188 210.710938 58.253906 208.605469 57.9375 206.488281 C 57.625 204.371094 57.363281 202.246094 57.152344 200.117188 C 56.941406 197.988281 56.785156 195.851562 56.679688 193.714844 C 56.574219 191.578125 56.523438 189.4375 56.523438 187.296875 C 56.523438 185.160156 56.574219 183.019531 56.679688 180.882812 C 56.785156 178.742188 56.941406 176.609375 57.152344 174.480469 C 57.363281 172.351562 57.625 170.226562 57.9375 168.109375 C 58.253906 165.992188 58.617188 163.882812 59.035156 161.785156 C 59.453125 159.6875 59.921875 157.597656 60.441406 155.523438 C 60.960938 153.445312 61.53125 151.382812 62.152344 149.335938 C 62.777344 147.289062 63.445312 145.257812 64.167969 143.242188 C 64.890625 141.226562 65.660156 139.230469 66.476562 137.253906 C 67.296875 135.277344 68.164062 133.320312 69.078125 131.386719 C 69.992188 129.449219 70.957031 127.539062 71.964844 125.652344 C 72.972656 123.765625 74.027344 121.902344 75.128906 120.066406 C 76.230469 118.230469 77.375 116.421875 78.5625 114.644531 C 79.75 112.863281 80.984375 111.113281 82.257812 109.394531 C 83.535156 107.675781 84.851562 105.988281 86.207031 104.335938 C 87.566406 102.679688 88.964844 101.0625 90.398438 99.476562 C 91.835938 97.890625 93.3125 96.339844 94.828125 94.828125 C 96.339844 93.3125 97.890625 91.835938 99.476562 90.398438 C 101.0625 88.964844 102.679688 87.566406 104.335938 86.207031 C 105.988281 84.851562 107.675781 83.535156 109.394531 82.257812 C 111.113281 80.984375 112.863281 79.75 114.644531 78.5625 C 116.421875 77.375 118.230469 76.230469 120.066406 75.128906 C 121.902344 74.027344 123.765625 72.972656 125.652344 71.964844 C 127.539062 70.957031 129.449219 69.992188 131.386719 69.078125 C 133.320312 68.164062 135.277344 67.296875 137.253906 66.476562 C 139.230469 65.660156 141.226562 64.890625 143.242188 64.167969 C 145.257812 63.445312 147.289062 62.777344 149.335938 62.152344 C 151.382812 61.53125 153.445312 60.960938 155.523438 60.441406 C 157.597656 59.921875 159.6875 59.453125 161.785156 59.035156 C 163.882812 58.617188 165.992188 58.253906 168.109375 57.9375 C 170.226562 57.625 172.351562 57.363281 174.480469 57.152344 C 176.609375 56.941406 178.742188 56.785156 180.882812 56.679688 C 183.019531 56.574219 185.160156 56.523438 187.296875 56.523438 C 189.4375 56.523438 191.578125 56.574219 193.714844 56.679688 C 195.851562 56.785156 197.988281 56.941406 200.117188 57.152344 C 202.246094 57.363281 204.371094 57.625 206.488281 57.9375 C 208.605469 58.253906 210.710938 58.617188 212.8125 59.035156 C 214.910156 59.453125 217 59.921875 219.074219 60.441406 C 221.152344 60.960938 223.210938 61.53125 225.261719 62.152344 C 227.308594 62.777344 229.339844 63.445312 231.355469 64.167969 C 233.371094 64.890625 235.367188 65.660156 237.34375 66.476562 C 239.320312 67.296875 241.277344 68.164062 243.210938 69.078125 C 245.148438 69.992188 247.058594 70.957031 248.945312 71.964844 C 250.832031 72.972656 252.695312 74.027344 254.53125 75.128906 C 256.367188 76.230469 258.175781 77.375 259.953125 78.5625 C 261.734375 79.75 263.480469 80.984375 265.203125 82.257812 C 266.921875 83.535156 268.605469 84.851562 270.261719 86.207031 C 271.917969 87.566406 273.535156 88.964844 275.121094 90.398438 C 276.707031 91.835938 278.257812 93.3125 279.769531 94.828125 C 281.285156 96.339844 282.757812 97.890625 284.195312 99.476562 C 285.632812 101.0625 287.03125 102.679688 288.390625 104.335938 C 289.746094 105.988281 291.0625 107.675781 292.339844 109.394531 C 293.613281 111.113281 294.84375 112.863281 296.035156 114.644531 C 297.222656 116.421875 298.367188 118.230469 299.46875 120.066406 C 300.570312 121.902344 301.625 123.765625 302.632812 125.652344 C 303.640625 127.539062 304.601562 129.449219 305.519531 131.386719 C 306.433594 133.320312 307.300781 135.277344 308.121094 137.253906 C 308.9375 139.230469 309.707031 141.226562 310.429688 143.242188 C 311.152344 145.257812 311.820312 147.289062 312.441406 149.335938 C 313.0625 151.382812 313.636719 153.445312 314.15625 155.523438 C 314.675781 157.597656 315.144531 159.6875 315.5625 161.785156 C 315.980469 163.882812 316.34375 165.992188 316.660156 168.109375 C 316.972656 170.226562 317.234375 172.351562 317.445312 174.480469 C 317.652344 176.609375 317.8125 178.742188 317.917969 180.882812 C 318.019531 183.019531 318.074219 185.160156 318.074219 187.296875 Z M 318.074219 187.296875 "/>
</g>
<path style=" stroke:none;fill-rule:nonzero;fill:rgb(100%,100%,100%);fill-opacity:1;" d="M 146 201.980469 C 142.789062 206.265625 138.660156 210.851562 133.152344 214.371094 C 127.800781 217.734375 121.679688 220.488281 114.492188 220.488281 C 107.914062 220.488281 102.257812 216.972656 99.195312 214.066406 C 94.609375 209.78125 92.160156 203.359375 91.398438 197.546875 C 89.101562 179.191406 100.421875 155.023438 117.859375 144.472656 C 121.835938 142.023438 126.269531 140.800781 130.398438 140.800781 C 138.8125 140.800781 145.082031 146.765625 145.847656 153.953125 C 146.613281 160.378906 144.011719 165.886719 136.976562 169.554688 C 133.304688 171.390625 131.46875 171.238281 131.011719 170.472656 C 130.707031 169.863281 130.859375 168.945312 131.625 168.332031 C 138.351562 162.671875 138.507812 158.085938 137.742188 151.660156 C 137.28125 147.53125 134.53125 144.777344 131.46875 144.777344 C 118.316406 144.777344 99.351562 174.296875 101.949219 195.710938 C 103.019531 204.125 108.070312 213.757812 118.773438 213.757812 C 122.292969 213.757812 125.964844 212.839844 129.328125 211.160156 C 136.671875 207.488281 140.035156 204.734375 144.472656 198.617188 C 145.082031 197.851562 145.542969 196.933594 146.308594 196.015625 C 146.765625 195.253906 147.378906 195.097656 147.988281 195.097656 C 148.601562 195.097656 149.214844 195.710938 149.367188 196.476562 C 149.519531 197.085938 149.214844 198.160156 148.449219 199.074219 C 147.378906 200.148438 146.765625 201.0625 146 201.980469 Z M 146 201.980469 "/>
<path style=" stroke:none;fill-rule:nonzero;fill:rgb(100%,100%,100%);fill-opacity:1;" d="M 166.039062 212.6875 C 162.671875 212.6875 160.835938 210.851562 160.226562 208.253906 C 158.085938 211.160156 155.179688 212.6875 152.121094 212.6875 C 147.070312 212.6875 142.175781 208.40625 141.566406 202.59375 C 140.339844 192.5 148.90625 179.652344 161.90625 179.652344 C 167.414062 179.652344 172.003906 181.792969 172.460938 186.226562 C 173.074219 191.734375 168.484375 192.804688 166.648438 192.804688 C 165.121094 192.804688 162.671875 192.347656 162.519531 190.96875 C 162.367188 189.441406 165.886719 190.359375 165.425781 186.839844 C 165.121094 184.699219 162.824219 183.933594 160.683594 183.933594 C 152.730469 183.933594 148.449219 194.945312 149.214844 201.828125 C 149.519531 204.886719 151.203125 207.949219 154.109375 207.949219 C 156.402344 207.949219 159.765625 204.582031 160.992188 199.839844 C 161.753906 196.476562 164.96875 194.335938 167.261719 194.335938 C 168.484375 194.335938 169.25 194.945312 169.402344 196.167969 C 169.402344 196.628906 169.402344 197.085938 169.25 197.851562 C 168.945312 199.230469 167.875 204.125 167.875 205.042969 C 167.875 205.957031 168.484375 207.03125 169.863281 207.03125 C 171.542969 207.03125 179.34375 202.441406 183.78125 196.324219 C 184.085938 195.710938 184.851562 195.40625 185.617188 195.40625 C 186.226562 195.40625 186.839844 195.710938 186.992188 196.476562 C 187.144531 197.242188 186.839844 198.3125 185.769531 199.535156 C 180.722656 206.570312 169.863281 212.6875 166.039062 212.6875 Z M 166.039062 212.6875 "/>
<path style=" stroke:none;fill-rule:nonzero;fill:rgb(100%,100%,100%);fill-opacity:1;" d="M 275.398438 209.019531 C 275.859375 212.230469 277.234375 214.371094 278.613281 215.441406 C 279.070312 215.902344 279.375 216.359375 279.375 216.820312 C 279.53125 217.734375 278.765625 218.5 277.695312 218.5 C 277.386719 218.5 276.929688 218.5 276.625 218.347656 C 270.964844 216.054688 268.671875 212.230469 267.90625 208.558594 C 265.765625 211.3125 262.859375 212.84375 259.796875 212.84375 C 254.75 212.84375 249.855469 208.40625 249.09375 202.746094 C 247.867188 192.804688 256.890625 179.804688 269.585938 179.804688 C 274.941406 179.804688 279.683594 181.945312 280.140625 186.226562 C 280.90625 191.886719 276.011719 192.957031 274.328125 192.957031 C 272.648438 192.957031 270.199219 192.5 270.046875 191.121094 C 269.894531 189.746094 273.410156 190.511719 273.105469 186.992188 C 272.800781 184.851562 270.503906 183.933594 268.363281 183.933594 C 261.023438 183.933594 255.976562 193.722656 256.890625 201.675781 C 257.351562 204.886719 258.726562 207.949219 261.632812 207.949219 C 263.929688 207.949219 267.445312 204.582031 268.671875 199.839844 C 269.433594 196.628906 272.648438 194.335938 274.941406 194.335938 C 276.011719 194.335938 276.929688 194.945312 277.082031 196.167969 C 277.234375 196.78125 276.929688 198.3125 275.707031 203.511719 C 275.246094 205.652344 275.246094 207.488281 275.398438 209.019531 Z M 275.398438 209.019531 "/>
<path style=" stroke:none;fill-rule:nonzero;fill:rgb(100%,100%,100%);fill-opacity:1;" d="M 206.875 207.03125 C 208.710938 207.03125 214.371094 204.886719 218.960938 198.617188 C 219.417969 198.003906 220.03125 197.699219 220.796875 197.699219 C 221.558594 197.699219 222.171875 198.003906 222.324219 198.921875 C 222.476562 199.535156 222.019531 200.605469 221.101562 201.828125 C 215.902344 209.019531 207.183594 212.6875 203.359375 212.6875 C 199.382812 212.6875 197.242188 210.242188 196.78125 206.570312 C 196.628906 205.347656 196.628906 203.96875 196.933594 202.441406 C 198.3125 194.335938 201.21875 189.285156 201.0625 187.757812 C 201.0625 187.296875 200.757812 187.144531 200.453125 187.144531 C 197.851562 187.144531 188.980469 196.324219 187.605469 202.289062 L 186.535156 207.183594 C 185.921875 210.546875 182.558594 212.84375 180.109375 212.84375 C 179.039062 212.84375 178.121094 212.230469 177.96875 211.007812 C 177.96875 210.546875 177.96875 210.089844 178.121094 209.324219 C 178.121094 209.324219 182.558594 186.6875 182.710938 185.617188 C 183.167969 183.015625 184.085938 180.261719 189.59375 180.261719 C 190.664062 180.261719 191.582031 180.875 191.734375 182.097656 C 191.734375 182.558594 191.734375 183.015625 191.582031 183.78125 L 190.050781 190.511719 C 194.792969 184.238281 202.136719 179.652344 206.570312 179.652344 C 208.40625 179.652344 209.9375 180.570312 210.089844 182.558594 C 210.242188 183.628906 209.9375 185.464844 209.171875 187.605469 C 207.640625 191.886719 205.804688 198.3125 204.734375 203.96875 C 204.277344 205.195312 204.734375 207.03125 206.875 207.03125 Z M 206.875 207.03125 "/>
<path style=" stroke:none;fill-rule:nonzero;fill:rgb(100%,100%,100%);fill-opacity:1;" d="M 243.738281 197.242188 C 243.125 197.242188 242.515625 197.242188 241.902344 197.085938 C 237.007812 204.277344 231.808594 209.171875 227.832031 211.464844 C 226.148438 212.382812 224.621094 212.84375 223.546875 212.84375 C 222.628906 212.84375 221.714844 212.6875 221.253906 211.925781 C 219.417969 209.019531 218.652344 202.898438 218.652344 196.628906 C 218.652344 192.039062 218.960938 188.214844 219.878906 185.464844 C 220.796875 182.558594 224.464844 179.804688 226.761719 179.804688 C 227.984375 179.804688 228.902344 180.414062 228.902344 181.792969 C 228.902344 182.25 228.75 182.710938 228.597656 183.320312 C 226.914062 188.214844 225.996094 192.652344 225.996094 197.242188 C 225.996094 199.839844 226.609375 203.816406 227.066406 205.957031 C 227.21875 206.417969 227.21875 206.875 227.679688 206.875 C 228.441406 206.875 233.644531 201.828125 237.3125 195.710938 C 233.949219 193.570312 232.113281 189.746094 232.113281 185.003906 C 232.113281 177.050781 236.855469 173.074219 241.445312 173.074219 C 245.113281 173.074219 248.328125 175.675781 248.328125 181.027344 C 248.328125 184.390625 246.949219 188.0625 245.113281 191.734375 C 245.113281 191.734375 245.878906 191.886719 246.1875 191.886719 C 249.09375 191.886719 251.234375 190.511719 252.457031 189.132812 C 253.375 188.214844 254.140625 187.453125 254.902344 187.453125 C 255.515625 187.453125 255.667969 187.910156 255.667969 188.371094 C 255.667969 188.675781 255.515625 189.285156 255.210938 189.746094 C 252.761719 194.179688 247.714844 197.242188 243.738281 197.242188 Z M 237.007812 180.722656 C 237.007812 183.78125 238.539062 186.992188 240.527344 189.132812 C 241.292969 186.992188 241.75 185.003906 241.75 182.863281 C 241.75 178.886719 240.21875 177.203125 238.996094 177.203125 C 237.46875 177.050781 237.007812 179.039062 237.007812 180.722656 Z M 237.007812 180.722656 "/>
</g>
</svg>
