<?xml version="1.0" encoding="UTF-8"?>
<svg xmlns="http://www.w3.org/2000/svg" xmlns:xlink="http://www.w3.org/1999/xlink" width="375pt" height="374.999991pt" viewBox="0 0 375 374.999991" version="1.2">
<g id="surface1">
<path style=" stroke:none;fill-rule:nonzero;fill:rgb(87.059021%,29.798889%,21.179199%);fill-opacity:1;" d="M 312.519531 175.863281 L 199.023438 62.375 C 192.496094 55.835938 181.894531 55.835938 175.355469 62.375 L 151.78125 85.941406 L 181.679688 115.839844 C 188.625 113.492188 196.597656 115.066406 202.132812 120.605469 C 207.695312 126.179688 209.257812 134.214844 206.851562 141.183594 L 235.671875 170.003906 C 242.636719 167.597656 250.679688 169.148438 256.253906 174.726562 C 264.03125 182.503906 264.03125 195.113281 256.253906 202.894531 C 248.464844 210.679688 235.863281 210.679688 228.074219 202.894531 C 222.214844 197.035156 220.773438 188.441406 223.738281 181.234375 L 196.871094 154.359375 L 196.859375 225.070312 C 198.757812 226.015625 200.546875 227.265625 202.132812 228.835938 C 209.910156 236.617188 209.910156 249.226562 202.132812 257.015625 C 194.351562 264.792969 181.730469 264.792969 173.960938 257.015625 C 166.183594 249.226562 166.183594 236.617188 173.960938 228.835938 C 175.882812 226.917969 178.105469 225.464844 180.480469 224.492188 L 180.480469 153.121094 C 178.105469 152.152344 175.890625 150.707031 173.960938 148.773438 C 168.0625 142.886719 166.652344 134.238281 169.667969 126.996094 L 140.199219 97.523438 L 62.375 175.34375 C 55.835938 181.882812 55.835938 192.484375 62.375 199.023438 L 175.871094 312.519531 C 182.414062 319.050781 193.011719 319.050781 199.554688 312.519531 L 312.519531 199.550781 C 319.0625 193.011719 319.0625 182.402344 312.519531 175.863281 "/>
</g>
</svg>
