<?xml version="1.0" encoding="UTF-8"?>
<svg xmlns="http://www.w3.org/2000/svg" xmlns:xlink="http://www.w3.org/1999/xlink" width="375pt" height="374.999991pt" viewBox="0 0 375 374.999991" version="1.2">
<defs>
<clipPath id="clip1">
  <path d="M 69.566406 56.644531 L 304.703125 56.644531 L 304.703125 318.394531 L 69.566406 318.394531 Z M 69.566406 56.644531 "/>
</clipPath>
</defs>
<g id="surface1">
<g clip-path="url(#clip1)" clip-rule="nonzero">
<path style=" stroke:none;fill-rule:nonzero;fill:rgb(36.468506%,25.099182%,21.569824%);fill-opacity:1;" d="M 304.539062 143.691406 C 304.539062 277.863281 187.136719 318.441406 187.136719 318.441406 C 187.136719 318.441406 69.730469 277.863281 69.730469 143.691406 C 69.730469 127.328125 71.035156 113.585938 72.339844 102.460938 C 74.296875 86.097656 85.386719 73.007812 101.039062 69.078125 C 121.257812 63.191406 153.21875 56.644531 187.136719 56.644531 C 221.050781 56.644531 253.011719 63.191406 273.882812 69.078125 C 289.539062 73.007812 300.625 86.75 302.582031 102.460938 C 303.234375 113.585938 304.539062 127.984375 304.539062 143.691406 Z M 304.539062 143.691406 "/>
<path style=" stroke:none;fill-rule:nonzero;fill:rgb(29.798889%,68.629456%,31.369019%);fill-opacity:1;" d="M 187.136719 76.28125 C 219.09375 76.28125 249.097656 82.824219 268.664062 88.058594 C 276.492188 90.023438 281.710938 96.570312 283.015625 105.078125 C 284.320312 117.511719 284.972656 130.601562 284.972656 143.691406 C 284.972656 245.792969 209.964844 287.027344 187.136719 296.84375 C 164.308594 286.371094 89.296875 245.136719 89.296875 143.691406 C 89.296875 130.601562 89.949219 117.511719 91.253906 105.078125 C 91.90625 96.570312 97.777344 90.023438 105.605469 88.058594 C 125.171875 82.824219 155.175781 76.28125 187.136719 76.28125 M 187.136719 56.644531 C 153.21875 56.644531 121.257812 63.191406 100.386719 69.078125 C 85.386719 73.007812 73.644531 86.75 72.339844 102.460938 C 71.035156 113.585938 69.730469 127.984375 69.730469 143.691406 C 69.730469 277.863281 187.136719 318.441406 187.136719 318.441406 C 187.136719 318.441406 304.539062 277.863281 304.539062 143.691406 C 304.539062 127.328125 303.234375 113.585938 301.929688 102.460938 C 299.972656 86.097656 288.886719 73.007812 273.230469 69.078125 C 253.011719 63.191406 221.050781 56.644531 187.136719 56.644531 Z M 187.136719 56.644531 "/>
</g>
<path style=" stroke:none;fill-rule:nonzero;fill:rgb(86.268616%,92.939758%,78.42865%);fill-opacity:1;" d="M 180.613281 213.722656 L 193.65625 213.722656 L 193.65625 266.082031 L 180.613281 266.082031 Z M 180.613281 213.722656 "/>
<path style=" stroke:none;fill-rule:nonzero;fill:rgb(29.798889%,68.629456%,31.369019%);fill-opacity:1;" d="M 187.136719 95.914062 C 187.136719 95.914062 148 128.640625 148 181 C 148 215.03125 169.523438 236.628906 180.613281 246.449219 L 187.136719 226.8125 L 193.65625 246.449219 C 204.746094 236.628906 226.269531 215.03125 226.269531 181 C 226.269531 128.640625 187.136719 95.914062 187.136719 95.914062 Z M 187.136719 95.914062 "/>
<path style=" stroke:none;fill-rule:nonzero;fill:rgb(50.588989%,78.039551%,51.759338%);fill-opacity:1;" d="M 187.136719 95.914062 C 187.136719 95.914062 148 128.640625 148 181 C 148 215.03125 169.523438 236.628906 180.613281 246.449219 L 187.136719 226.8125 Z M 187.136719 95.914062 "/>
</g>
</svg>
