<?xml version="1.0" encoding="UTF-8"?>
<svg xmlns="http://www.w3.org/2000/svg" xmlns:xlink="http://www.w3.org/1999/xlink" width="375pt" height="374.999991pt" viewBox="0 0 375 374.999991" version="1.2">
<defs>
<clipPath id="clip1">
  <path d="M 117 172 L 310 172 L 310 245.738281 L 117 245.738281 Z M 117 172 "/>
</clipPath>
<clipPath id="clip2">
  <path d="M 196 129.488281 L 264 129.488281 L 264 245.738281 L 196 245.738281 Z M 196 129.488281 "/>
</clipPath>
<clipPath id="clip3">
  <path d="M 117 172 L 185 172 L 185 245.738281 L 117 245.738281 Z M 117 172 "/>
</clipPath>
<clipPath id="clip4">
  <path d="M 44 172 L 337 172 L 337 245.738281 L 44 245.738281 Z M 44 172 "/>
</clipPath>
</defs>
<g id="surface1">
<g clip-path="url(#clip1)" clip-rule="nonzero">
<path style=" stroke:none;fill-rule:nonzero;fill:rgb(21.958923%,55.688477%,23.529053%);fill-opacity:1;" d="M 149.550781 172.921875 L 119.691406 189.480469 C 118.570312 190.097656 117.882812 191.242188 117.882812 192.480469 L 117.882812 225.617188 C 117.882812 226.855469 118.570312 227.996094 119.691406 228.617188 L 149.558594 245.1875 C 150.671875 245.800781 152.054688 245.800781 153.167969 245.1875 L 183.03125 228.617188 C 184.136719 227.996094 184.824219 226.855469 184.824219 225.617188 L 184.824219 192.480469 C 184.824219 191.242188 184.136719 190.101562 183.019531 189.480469 L 153.160156 172.921875 C 152.601562 172.613281 151.976562 172.460938 151.355469 172.460938 C 150.726562 172.460938 150.105469 172.613281 149.546875 172.921875 M 303.199219 202.75 L 298.222656 205.507812 C 298.03125 205.613281 297.921875 205.800781 297.921875 206.007812 L 297.921875 211.535156 C 297.921875 211.742188 298.039062 211.929688 298.222656 212.035156 L 303.199219 214.796875 C 303.386719 214.902344 303.613281 214.902344 303.800781 214.796875 L 308.78125 212.035156 C 308.964844 211.929688 309.078125 211.742188 309.078125 211.535156 L 309.078125 206.007812 C 309.078125 205.800781 308.964844 205.613281 308.773438 205.507812 L 303.796875 202.75 C 303.703125 202.695312 303.601562 202.671875 303.496094 202.671875 C 303.394531 202.671875 303.292969 202.695312 303.199219 202.75 "/>
</g>
<g clip-path="url(#clip2)" clip-rule="nonzero">
<path style=" stroke:none;fill-rule:nonzero;fill:rgb(21.569824%,27.839661%,30.979919%);fill-opacity:1;" d="M 262.425781 137.808594 L 247.886719 129.675781 C 247.429688 129.421875 246.871094 129.425781 246.417969 129.695312 C 245.96875 129.964844 245.6875 130.445312 245.6875 130.96875 L 245.683594 180.078125 L 232.277344 172.644531 C 231.714844 172.332031 231.089844 172.179688 230.46875 172.179688 C 229.847656 172.179688 229.222656 172.332031 228.660156 172.644531 L 228.667969 172.644531 L 198.804688 189.199219 C 197.683594 189.816406 196.996094 190.964844 196.996094 192.195312 L 196.996094 225.328125 C 196.996094 226.566406 197.683594 227.707031 198.804688 228.328125 L 228.671875 244.898438 C 229.789062 245.515625 231.167969 245.515625 232.28125 244.898438 L 262.144531 228.328125 C 263.253906 227.714844 263.941406 226.566406 263.941406 225.328125 L 263.941406 140.394531 C 263.941406 139.320312 263.355469 138.332031 262.425781 137.808594 Z M 244.867188 217.664062 L 231.296875 225.195312 C 230.792969 225.476562 230.164062 225.476562 229.660156 225.195312 L 216.082031 217.664062 C 215.566406 217.382812 215.253906 216.859375 215.253906 216.296875 L 215.253906 201.234375 C 215.253906 200.671875 215.566406 200.152344 216.074219 199.867188 L 229.652344 192.339844 L 229.648438 192.339844 C 229.902344 192.203125 230.183594 192.132812 230.46875 192.132812 C 230.753906 192.132812 231.035156 192.207031 231.289062 192.339844 L 244.863281 199.867188 C 245.371094 200.152344 245.683594 200.679688 245.683594 201.238281 L 245.683594 216.304688 C 245.683594 216.859375 245.371094 217.382812 244.867188 217.664062 Z M 244.867188 217.664062 "/>
</g>
<g clip-path="url(#clip3)" clip-rule="nonzero">
<path style=" stroke:none;fill-rule:nonzero;fill:rgb(18.03894%,49.01886%,19.60907%);fill-opacity:1;" d="M 149.550781 172.921875 L 117.882812 225.617188 C 117.882812 226.855469 118.570312 227.996094 119.691406 228.617188 L 149.558594 245.1875 C 150.671875 245.800781 152.054688 245.800781 153.167969 245.1875 L 184.824219 192.480469 C 184.824219 191.242188 184.136719 190.101562 183.019531 189.480469 L 153.160156 172.921875 C 152.601562 172.613281 151.976562 172.460938 151.355469 172.460938 C 150.726562 172.460938 150.105469 172.613281 149.546875 172.921875 "/>
<path style=" stroke:none;fill-rule:nonzero;fill:rgb(29.798889%,68.629456%,31.369019%);fill-opacity:1;" d="M 149.550781 172.921875 L 119.691406 189.480469 C 118.570312 190.097656 117.882812 191.242188 117.882812 192.480469 L 149.550781 245.1875 C 150.667969 245.800781 152.046875 245.800781 153.160156 245.1875 L 183.023438 228.617188 C 184.136719 227.996094 184.824219 226.855469 184.824219 225.617188 L 153.160156 172.921875 C 152.601562 172.613281 151.976562 172.460938 151.355469 172.460938 C 150.726562 172.460938 150.105469 172.613281 149.546875 172.921875 "/>
</g>
<g clip-path="url(#clip4)" clip-rule="nonzero">
<path style=" stroke:none;fill-rule:nonzero;fill:rgb(21.569824%,27.839661%,30.979919%);fill-opacity:1;" d="M 335.164062 189.199219 L 305.304688 172.644531 C 304.746094 172.332031 304.117188 172.179688 303.496094 172.179688 C 302.878906 172.179688 302.25 172.332031 301.691406 172.644531 L 301.695312 172.644531 L 271.832031 189.199219 C 270.71875 189.816406 270.027344 190.988281 270.027344 192.269531 L 270.027344 225.269531 C 270.027344 226.542969 270.71875 227.71875 271.832031 228.335938 L 301.703125 244.90625 C 302.824219 245.527344 304.191406 245.527344 305.3125 244.90625 L 319.082031 237.265625 C 320.34375 236.5625 320.335938 234.75 319.070312 234.054688 L 289.105469 217.667969 C 288.601562 217.382812 288.285156 216.851562 288.285156 216.277344 L 288.285156 201.238281 C 288.285156 200.679688 288.585938 200.160156 289.074219 199.890625 L 302.675781 192.355469 L 302.671875 192.355469 C 302.925781 192.214844 303.207031 192.144531 303.492188 192.144531 C 303.777344 192.144531 304.058594 192.21875 304.3125 192.355469 L 317.914062 199.898438 C 318.402344 200.167969 318.707031 200.683594 318.707031 201.246094 L 318.707031 213.515625 C 318.707031 214.039062 318.984375 214.527344 319.441406 214.789062 C 319.898438 215.046875 320.457031 215.046875 320.914062 214.785156 L 335.507812 206.289062 C 336.410156 205.765625 336.96875 204.796875 336.96875 203.746094 L 336.96875 192.28125 C 336.96875 190.992188 336.277344 189.816406 335.164062 189.199219 Z M 109.988281 189.199219 L 80.132812 172.644531 C 79.574219 172.332031 78.945312 172.179688 78.324219 172.179688 C 77.703125 172.179688 77.078125 172.332031 76.515625 172.644531 L 76.523438 172.644531 L 46.660156 189.199219 C 45.546875 189.816406 44.851562 190.988281 44.851562 192.269531 L 44.851562 237.796875 C 44.851562 238.320312 45.132812 238.808594 45.589844 239.070312 C 46.046875 239.324219 46.605469 239.324219 47.0625 239.0625 L 61.65625 230.566406 C 62.558594 230.042969 63.109375 229.074219 63.109375 228.023438 L 63.109375 201.234375 C 63.109375 200.671875 63.414062 200.152344 63.902344 199.886719 L 77.503906 192.347656 C 77.757812 192.207031 78.039062 192.140625 78.324219 192.140625 C 78.609375 192.140625 78.890625 192.214844 79.148438 192.347656 L 92.75 199.890625 C 93.234375 200.160156 93.539062 200.679688 93.539062 201.238281 L 93.539062 228.03125 C 93.539062 229.078125 94.09375 230.050781 95 230.574219 L 109.59375 239.070312 C 110.050781 239.332031 110.609375 239.332031 111.066406 239.074219 C 111.515625 238.808594 111.796875 238.320312 111.796875 237.796875 L 111.796875 192.273438 C 111.796875 190.992188 111.101562 189.816406 109.988281 189.199219 Z M 109.988281 189.199219 "/>
</g>
</g>
</svg>
