<?xml version="1.0" encoding="UTF-8"?>
<svg xmlns="http://www.w3.org/2000/svg" xmlns:xlink="http://www.w3.org/1999/xlink" width="375pt" height="374.999991pt" viewBox="0 0 375 374.999991" version="1.2">
<defs>
<clipPath id="clip1">
  <path d="M 43.59375 58 L 331.59375 58 L 331.59375 317 L 43.59375 317 Z M 43.59375 58 "/>
</clipPath>
</defs>
<g id="surface1">
<path style=" stroke:none;fill-rule:nonzero;fill:rgb(22.349548%,75.689697%,84.309387%);fill-opacity:1;" d="M 213.550781 187.34375 C 213.550781 188.1875 213.507812 189.03125 213.425781 189.871094 C 213.34375 190.714844 213.21875 191.546875 213.054688 192.378906 C 212.886719 193.207031 212.683594 194.023438 212.4375 194.832031 C 212.191406 195.640625 211.90625 196.4375 211.582031 197.21875 C 211.257812 197.996094 210.894531 198.761719 210.496094 199.503906 C 210.097656 200.25 209.664062 200.976562 209.191406 201.675781 C 208.722656 202.378906 208.21875 203.058594 207.679688 203.710938 C 207.140625 204.363281 206.574219 204.988281 205.976562 205.585938 C 205.375 206.183594 204.75 206.75 204.09375 207.289062 C 203.441406 207.824219 202.761719 208.324219 202.054688 208.796875 C 201.351562 209.265625 200.625 209.699219 199.878906 210.097656 C 199.132812 210.496094 198.367188 210.855469 197.585938 211.179688 C 196.800781 211.503906 196.003906 211.789062 195.195312 212.03125 C 194.382812 212.277344 193.5625 212.484375 192.734375 212.648438 C 191.902344 212.8125 191.066406 212.9375 190.222656 213.019531 C 189.378906 213.101562 188.535156 213.144531 187.6875 213.144531 C 186.839844 213.144531 185.996094 213.101562 185.152344 213.019531 C 184.308594 212.9375 183.472656 212.8125 182.640625 212.648438 C 181.8125 212.484375 180.992188 212.277344 180.179688 212.03125 C 179.371094 211.789062 178.574219 211.503906 177.789062 211.179688 C 177.007812 210.855469 176.242188 210.496094 175.496094 210.097656 C 174.75 209.699219 174.023438 209.265625 173.320312 208.796875 C 172.613281 208.324219 171.933594 207.824219 171.28125 207.289062 C 170.625 206.75 170 206.183594 169.398438 205.585938 C 168.800781 204.988281 168.234375 204.363281 167.695312 203.710938 C 167.15625 203.058594 166.652344 202.378906 166.183594 201.675781 C 165.710938 200.976562 165.277344 200.25 164.878906 199.503906 C 164.480469 198.761719 164.117188 197.996094 163.792969 197.21875 C 163.46875 196.4375 163.183594 195.640625 162.9375 194.832031 C 162.691406 194.023438 162.488281 193.207031 162.320312 192.378906 C 162.15625 191.546875 162.03125 190.714844 161.949219 189.871094 C 161.867188 189.03125 161.824219 188.1875 161.824219 187.34375 C 161.824219 186.5 161.867188 185.65625 161.949219 184.816406 C 162.03125 183.972656 162.15625 183.140625 162.320312 182.3125 C 162.488281 181.480469 162.691406 180.664062 162.9375 179.855469 C 163.183594 179.046875 163.46875 178.25 163.792969 177.472656 C 164.117188 176.691406 164.480469 175.925781 164.878906 175.183594 C 165.277344 174.4375 165.710938 173.714844 166.183594 173.011719 C 166.652344 172.308594 167.15625 171.628906 167.695312 170.976562 C 168.234375 170.324219 168.800781 169.699219 169.398438 169.101562 C 170 168.503906 170.625 167.9375 171.28125 167.402344 C 171.933594 166.863281 172.613281 166.363281 173.320312 165.894531 C 174.023438 165.421875 174.75 164.988281 175.496094 164.589844 C 176.242188 164.191406 177.007812 163.832031 177.789062 163.507812 C 178.574219 163.183594 179.371094 162.902344 180.179688 162.65625 C 180.992188 162.410156 181.8125 162.207031 182.640625 162.039062 C 183.472656 161.875 184.308594 161.75 185.152344 161.667969 C 185.996094 161.585938 186.839844 161.542969 187.6875 161.542969 C 188.535156 161.542969 189.378906 161.585938 190.222656 161.667969 C 191.066406 161.75 191.902344 161.875 192.734375 162.039062 C 193.5625 162.207031 194.382812 162.410156 195.195312 162.65625 C 196.003906 162.902344 196.800781 163.183594 197.585938 163.507812 C 198.367188 163.832031 199.132812 164.191406 199.878906 164.589844 C 200.625 164.988281 201.351562 165.421875 202.054688 165.894531 C 202.761719 166.363281 203.441406 166.863281 204.09375 167.402344 C 204.75 167.9375 205.375 168.503906 205.976562 169.101562 C 206.574219 169.699219 207.140625 170.324219 207.679688 170.976562 C 208.21875 171.628906 208.722656 172.308594 209.191406 173.011719 C 209.664062 173.714844 210.097656 174.4375 210.496094 175.183594 C 210.894531 175.925781 211.257812 176.691406 211.582031 177.472656 C 211.90625 178.25 212.191406 179.046875 212.4375 179.855469 C 212.683594 180.664062 212.886719 181.480469 213.054688 182.3125 C 213.21875 183.140625 213.34375 183.972656 213.425781 184.816406 C 213.507812 185.65625 213.550781 186.5 213.550781 187.34375 Z M 213.550781 187.34375 "/>
<path style=" stroke:none;fill-rule:nonzero;fill:rgb(12.159729%,12.939453%,16.859436%);fill-opacity:1;" d="M 187.6875 216.828125 C 171.390625 216.828125 158.128906 203.601562 158.128906 187.34375 C 158.128906 171.085938 171.390625 157.859375 187.6875 157.859375 C 203.984375 157.859375 217.246094 171.085938 217.246094 187.34375 C 217.246094 203.601562 203.984375 216.828125 187.6875 216.828125 Z M 187.6875 165.230469 C 175.460938 165.230469 165.519531 175.148438 165.519531 187.34375 C 165.519531 199.539062 175.460938 209.457031 187.6875 209.457031 C 199.914062 209.457031 209.855469 199.539062 209.855469 187.34375 C 209.855469 175.148438 199.914062 165.230469 187.6875 165.230469 Z M 187.6875 165.230469 "/>
<path style=" stroke:none;fill-rule:nonzero;fill:rgb(22.349548%,75.689697%,84.309387%);fill-opacity:1;" d="M 329.933594 187.34375 C 329.933594 167.53125 306.015625 150.382812 268.90625 140.175781 C 278.445312 102.964844 275.507812 73.707031 258.460938 63.777344 C 251.734375 59.859375 243.578125 59.144531 234.214844 61.640625 C 220.109375 65.410156 203.945312 76.421875 187.6875 92.597656 C 171.429688 76.421875 155.265625 65.414062 141.160156 61.640625 C 131.796875 59.140625 123.640625 59.859375 116.914062 63.777344 C 99.867188 73.707031 96.929688 102.960938 106.46875 140.175781 C 69.359375 150.382812 45.441406 167.53125 45.441406 187.34375 C 45.441406 207.15625 69.359375 224.308594 106.46875 234.515625 C 96.929688 271.726562 99.867188 300.984375 116.914062 310.914062 C 121.023438 313.308594 125.664062 314.511719 130.792969 314.507812 C 134.054688 314.507812 137.515625 314.023438 141.160156 313.050781 C 155.265625 309.277344 171.429688 298.269531 187.6875 282.09375 C 203.945312 298.269531 220.109375 309.277344 234.214844 313.050781 C 237.859375 314.023438 241.320312 314.507812 244.582031 314.507812 C 249.710938 314.507812 254.351562 313.3125 258.460938 310.914062 C 275.507812 300.984375 278.441406 271.726562 268.90625 234.515625 C 306.015625 224.308594 329.933594 207.15625 329.933594 187.34375 Z M 237.082031 72.320312 C 239.761719 71.609375 242.242188 71.246094 244.53125 71.246094 C 247.707031 71.246094 250.5 71.941406 252.871094 73.324219 C 264.292969 79.976562 266.625 104.355469 258.117188 137.492188 C 246.394531 134.859375 233.601562 132.882812 220.007812 131.65625 C 212.03125 120.183594 203.734375 109.738281 195.371094 100.59375 C 210.21875 85.75 224.78125 75.605469 237.082031 72.320312 Z M 227.425781 210.558594 C 223.066406 218.175781 218.484375 225.46875 213.78125 232.449219 C 205.429688 233.070312 196.726562 233.414062 187.6875 233.414062 C 178.648438 233.414062 169.945312 233.070312 161.597656 232.449219 C 156.894531 225.46875 152.3125 218.175781 147.953125 210.558594 C 143.449219 202.6875 139.410156 194.933594 135.789062 187.347656 C 139.410156 179.761719 143.449219 172.007812 147.953125 164.132812 C 152.3125 156.515625 156.894531 149.21875 161.601562 142.238281 C 169.949219 141.617188 178.648438 141.273438 187.6875 141.273438 C 196.726562 141.273438 205.425781 141.617188 213.777344 142.238281 C 218.480469 149.21875 223.0625 156.519531 227.425781 164.132812 C 231.929688 172.003906 235.96875 179.757812 239.589844 187.347656 C 235.96875 194.933594 231.929688 202.6875 227.425781 210.558594 Z M 245.488281 200.410156 C 249.332031 209.480469 252.511719 218.210938 255.082031 226.511719 C 246.675781 228.378906 237.601562 229.9375 227.910156 231.09375 C 231.023438 226.207031 234.089844 221.207031 237.046875 216.035156 C 240.046875 210.808594 242.84375 205.589844 245.488281 200.410156 Z M 187.6875 266.058594 C 181.644531 259.390625 175.609375 252.007812 169.714844 244.019531 C 175.597656 244.304688 181.582031 244.472656 187.6875 244.472656 C 193.792969 244.472656 199.777344 244.304688 205.660156 244.019531 C 199.765625 252.003906 193.730469 259.386719 187.6875 266.058594 Z M 147.460938 231.09375 C 137.773438 229.9375 128.695312 228.378906 120.289062 226.511719 C 122.859375 218.210938 126.039062 209.476562 129.882812 200.410156 C 132.527344 205.589844 135.328125 210.808594 138.324219 216.035156 C 141.285156 221.210938 144.347656 226.207031 147.460938 231.09375 Z M 129.886719 174.28125 C 126.042969 165.210938 122.859375 156.476562 120.292969 148.171875 C 128.699219 146.304688 137.777344 144.746094 147.464844 143.59375 C 144.351562 148.480469 141.289062 153.480469 138.328125 158.652344 C 135.328125 163.886719 132.53125 169.101562 129.886719 174.28125 Z M 187.6875 108.632812 C 193.730469 115.300781 199.765625 122.683594 205.660156 130.671875 C 199.777344 130.382812 193.792969 130.21875 187.6875 130.21875 C 181.582031 130.21875 175.597656 130.382812 169.714844 130.667969 C 175.609375 122.683594 181.644531 115.300781 187.6875 108.632812 Z M 237.046875 158.65625 C 234.089844 153.480469 231.023438 148.484375 227.910156 143.597656 C 237.601562 144.75 246.675781 146.308594 255.085938 148.175781 C 252.515625 156.480469 249.335938 165.210938 245.492188 174.285156 C 242.84375 169.101562 240.046875 163.886719 237.046875 158.65625 Z M 122.503906 73.324219 C 124.878906 71.941406 127.664062 71.246094 130.84375 71.246094 C 133.128906 71.246094 135.617188 71.609375 138.292969 72.320312 C 150.59375 75.605469 165.15625 85.746094 180.003906 100.589844 C 171.640625 109.734375 163.34375 120.183594 155.367188 131.65625 C 141.773438 132.878906 128.976562 134.855469 117.257812 137.488281 C 108.75 104.351562 111.082031 79.976562 122.503906 73.324219 Z M 56.523438 187.34375 C 56.523438 174.089844 76.480469 159.921875 109.488281 150.851562 C 113.070312 162.496094 117.769531 174.757812 123.550781 187.34375 C 117.769531 199.929688 113.070312 212.191406 109.488281 223.835938 C 76.480469 214.765625 56.523438 200.597656 56.523438 187.34375 Z M 138.292969 302.367188 C 131.890625 304.070312 126.582031 303.734375 122.503906 301.371094 C 111.082031 294.714844 108.753906 270.335938 117.257812 237.199219 C 128.976562 239.832031 141.773438 241.808594 155.363281 243.035156 C 163.339844 254.507812 171.636719 264.953125 180 274.101562 C 165.15625 288.941406 150.59375 299.082031 138.292969 302.367188 Z M 252.871094 301.371094 C 248.792969 303.742188 243.488281 304.074219 237.082031 302.367188 C 224.78125 299.082031 210.21875 288.941406 195.371094 274.101562 C 203.734375 264.953125 212.03125 254.503906 220.007812 243.03125 C 233.601562 241.804688 246.394531 239.828125 258.113281 237.195312 C 266.625 270.335938 264.292969 294.714844 252.871094 301.371094 Z M 265.886719 223.835938 C 262.304688 212.191406 257.605469 199.929688 251.824219 187.34375 C 257.605469 174.757812 262.304688 162.492188 265.886719 150.851562 C 298.894531 159.921875 318.851562 174.089844 318.851562 187.34375 C 318.851562 200.597656 298.894531 214.765625 265.886719 223.835938 Z M 265.886719 223.835938 "/>
<g clip-path="url(#clip1)" clip-rule="nonzero">
<path style=" stroke:none;fill-rule:nonzero;fill:rgb(12.159729%,12.939453%,16.859436%);fill-opacity:1;" d="M 130.769531 316.347656 C 125.335938 316.347656 120.363281 315.054688 115.988281 312.503906 C 98.875 302.535156 94.621094 274.628906 104.246094 235.800781 C 65.667969 224.859375 43.59375 207.246094 43.59375 187.34375 C 43.59375 167.441406 65.667969 149.828125 104.242188 138.886719 C 94.621094 100.058594 98.875 72.152344 115.988281 62.183594 C 123.148438 58.003906 131.773438 57.222656 141.640625 59.863281 C 155.378906 63.535156 171.273438 73.941406 187.6875 90.007812 C 204.105469 73.941406 220 63.535156 233.734375 59.863281 C 243.597656 57.230469 252.226562 58.011719 259.390625 62.183594 C 276.5 72.152344 280.753906 100.058594 271.132812 138.886719 C 309.707031 149.828125 331.78125 167.441406 331.78125 187.34375 C 331.78125 207.246094 309.707031 224.859375 271.132812 235.800781 C 280.753906 274.628906 276.503906 302.53125 259.390625 312.503906 C 252.269531 316.648438 243.554688 317.449219 233.738281 314.824219 C 219.996094 311.15625 204.101562 300.746094 187.6875 284.683594 C 171.273438 300.746094 155.378906 311.160156 141.640625 314.824219 C 137.859375 315.835938 134.210938 316.347656 130.792969 316.347656 C 130.785156 316.347656 130.777344 316.347656 130.769531 316.347656 Z M 130.804688 62.03125 C 125.996094 62.03125 121.664062 63.144531 117.847656 65.367188 C 102.238281 74.460938 98.65625 102.253906 108.257812 139.71875 C 108.507812 140.691406 107.929688 141.6875 106.957031 141.953125 C 69.597656 152.226562 47.289062 169.199219 47.289062 187.34375 C 47.289062 205.488281 69.597656 222.460938 106.960938 232.734375 C 107.933594 233 108.507812 233.996094 108.261719 234.96875 C 98.65625 272.433594 102.238281 300.230469 117.847656 309.320312 C 121.652344 311.535156 126 312.660156 130.769531 312.660156 C 130.777344 312.660156 130.785156 312.660156 130.792969 312.660156 C 133.890625 312.660156 137.214844 312.191406 140.683594 311.265625 C 154.15625 307.664062 169.964844 297.128906 186.382812 280.785156 C 187.105469 280.070312 188.269531 280.070312 188.992188 280.785156 C 205.410156 297.125 221.21875 307.660156 234.691406 311.265625 C 243.535156 313.621094 251.261719 312.964844 257.527344 309.320312 C 273.136719 300.226562 276.71875 272.433594 267.113281 234.96875 C 266.863281 233.996094 267.441406 233 268.414062 232.734375 C 305.777344 222.460938 328.085938 205.488281 328.085938 187.34375 C 328.085938 169.199219 305.777344 152.226562 268.414062 141.953125 C 267.441406 141.6875 266.863281 140.691406 267.113281 139.71875 C 276.714844 102.253906 273.132812 74.457031 257.523438 65.367188 C 251.246094 61.707031 243.5625 61.054688 234.6875 63.421875 C 221.214844 67.023438 205.410156 77.5625 188.988281 93.902344 C 188.265625 94.617188 187.101562 94.617188 186.378906 93.902344 C 169.957031 77.5625 154.152344 67.023438 140.679688 63.421875 C 137.203125 62.492188 133.90625 62.03125 130.804688 62.03125 Z M 244.535156 305.28125 C 242.085938 305.28125 239.4375 304.902344 236.605469 304.148438 C 224.296875 300.855469 209.589844 290.921875 194.066406 275.402344 C 193.371094 274.703125 193.34375 273.582031 194.003906 272.859375 C 202.375 263.703125 210.609375 253.3125 218.492188 241.980469 C 218.800781 241.53125 219.296875 241.242188 219.84375 241.195312 C 233.1875 239.992188 245.925781 238.042969 257.710938 235.398438 C 258.675781 235.179688 259.65625 235.769531 259.90625 236.738281 C 268.535156 270.363281 266.195312 295.738281 253.800781 302.957031 C 251.144531 304.507812 248.042969 305.28125 244.535156 305.28125 Z M 197.925781 274.035156 C 212.523438 288.386719 226.199219 297.550781 237.558594 300.589844 C 243.464844 302.160156 248.304688 301.890625 251.9375 299.777344 C 262.488281 293.628906 264.339844 270.023438 256.765625 239.382812 C 245.578125 241.808594 233.570312 243.628906 221.035156 244.789062 C 213.585938 255.445312 205.820312 265.273438 197.925781 274.035156 Z M 130.839844 305.28125 C 127.332031 305.28125 124.230469 304.507812 121.574219 302.960938 C 109.179688 295.738281 106.835938 270.363281 115.46875 236.738281 C 115.71875 235.773438 116.699219 235.195312 117.664062 235.398438 C 129.445312 238.042969 142.183594 239.992188 155.53125 241.195312 C 156.074219 241.242188 156.574219 241.53125 156.882812 241.980469 C 164.765625 253.3125 173 263.703125 181.371094 272.859375 C 182.035156 273.582031 182.007812 274.703125 181.308594 275.402344 C 165.785156 290.917969 151.078125 300.855469 138.773438 304.148438 C 135.9375 304.898438 133.285156 305.28125 130.839844 305.28125 Z M 118.609375 239.382812 C 111.035156 270.019531 112.886719 293.628906 123.4375 299.777344 C 127.066406 301.886719 131.90625 302.160156 137.816406 300.589844 C 149.171875 297.550781 162.851562 288.382812 177.449219 274.035156 C 169.558594 265.273438 161.792969 255.445312 154.34375 244.789062 C 141.804688 243.628906 129.796875 241.808594 118.609375 239.382812 Z M 187.6875 267.898438 C 187.167969 267.898438 186.667969 267.675781 186.316406 267.289062 C 180.171875 260.511719 174.085938 253.046875 168.226562 245.109375 C 167.804688 244.539062 167.75 243.769531 168.085938 243.144531 C 168.421875 242.519531 169.050781 242.132812 169.804688 242.175781 C 182.019531 242.769531 193.355469 242.769531 205.570312 242.175781 C 206.308594 242.128906 206.953125 242.519531 207.289062 243.144531 C 207.625 243.769531 207.574219 244.535156 207.148438 245.109375 C 201.289062 253.042969 195.203125 260.507812 189.058594 267.289062 C 188.707031 267.675781 188.207031 267.898438 187.6875 267.898438 Z M 173.527344 246.035156 C 178.148438 252.132812 182.898438 257.921875 187.6875 263.296875 C 192.480469 257.921875 197.226562 252.136719 201.847656 246.035156 C 192.199219 246.402344 183.175781 246.402344 173.527344 246.035156 Z M 187.6875 235.257812 C 178.933594 235.257812 170.113281 234.933594 161.457031 234.289062 C 160.894531 234.246094 160.378906 233.949219 160.0625 233.476562 C 155.121094 226.144531 150.507812 218.742188 146.347656 211.472656 C 141.988281 203.851562 137.871094 196 134.117188 188.136719 C 133.878906 187.636719 133.878906 187.054688 134.117188 186.550781 C 137.871094 178.6875 141.988281 170.835938 146.347656 163.214844 C 150.503906 155.953125 155.117188 148.550781 160.066406 141.207031 C 160.378906 140.738281 160.898438 140.441406 161.460938 140.398438 C 178.769531 139.105469 196.609375 139.105469 213.914062 140.398438 C 214.476562 140.4375 214.992188 140.734375 215.308594 141.207031 C 220.257812 148.550781 224.871094 155.953125 229.027344 163.214844 C 233.386719 170.835938 237.503906 178.6875 241.257812 186.550781 C 241.496094 187.054688 241.496094 187.636719 241.257812 188.136719 C 237.503906 196 233.386719 203.851562 229.027344 211.472656 C 224.867188 218.742188 220.253906 226.144531 215.3125 233.476562 C 215 233.945312 214.480469 234.242188 213.917969 234.289062 C 205.261719 234.933594 196.441406 235.257812 187.6875 235.257812 Z M 162.628906 230.675781 C 179.179688 231.863281 196.195312 231.863281 212.742188 230.675781 C 217.445312 223.660156 221.839844 216.589844 225.816406 209.640625 C 229.984375 202.355469 233.925781 194.859375 237.539062 187.34375 C 233.925781 179.828125 229.984375 172.328125 225.816406 165.046875 C 221.84375 158.105469 217.449219 151.035156 212.738281 144.007812 C 196.1875 142.820312 179.175781 142.820312 162.625 144.007812 C 157.917969 151.035156 153.519531 158.105469 149.546875 165.046875 C 145.378906 172.332031 141.4375 179.828125 137.824219 187.34375 C 141.4375 194.859375 145.378906 202.359375 149.546875 209.640625 C 153.53125 216.59375 157.925781 223.660156 162.628906 230.675781 Z M 227.914062 232.9375 C 227.289062 232.9375 226.691406 232.617188 226.351562 232.078125 C 225.972656 231.476562 225.976562 230.707031 226.355469 230.109375 C 229.785156 224.722656 232.757812 219.820312 235.445312 215.125 C 238.269531 210.195312 241.089844 204.960938 243.84375 199.578125 C 244.167969 198.9375 244.851562 198.558594 245.554688 198.574219 C 246.269531 198.601562 246.910156 199.035156 247.191406 199.699219 C 250.941406 208.539062 254.1875 217.382812 256.847656 225.972656 C 257.003906 226.464844 256.941406 226.996094 256.683594 227.441406 C 256.425781 227.886719 255.988281 228.203125 255.484375 228.3125 C 246.804688 230.25 237.597656 231.800781 228.132812 232.925781 C 228.058594 232.933594 227.984375 232.9375 227.914062 232.9375 Z M 245.308594 204.78125 C 243.117188 208.976562 240.882812 213.054688 238.65625 216.949219 C 236.503906 220.71875 234.164062 224.613281 231.5625 228.777344 C 238.839844 227.8125 245.933594 226.59375 252.722656 225.140625 C 250.589844 218.453125 248.105469 211.632812 245.308594 204.78125 Z M 147.460938 232.9375 C 147.386719 232.9375 147.3125 232.933594 147.238281 232.925781 C 137.777344 231.796875 128.570312 230.246094 119.890625 228.308594 C 119.386719 228.199219 118.953125 227.882812 118.691406 227.4375 C 118.433594 226.988281 118.375 226.460938 118.527344 225.96875 C 121.1875 217.375 124.433594 208.535156 128.183594 199.695312 C 128.464844 199.035156 129.105469 198.597656 129.820312 198.570312 C 130.492188 198.5 131.207031 198.933594 131.53125 199.574219 C 134.285156 204.957031 137.105469 210.191406 139.929688 215.121094 C 142.621094 219.816406 145.59375 224.71875 149.019531 230.105469 C 149.402344 230.707031 149.402344 231.472656 149.023438 232.078125 C 148.683594 232.617188 148.089844 232.9375 147.460938 232.9375 Z M 122.65625 225.140625 C 129.445312 226.59375 136.539062 227.8125 143.816406 228.777344 C 141.210938 224.613281 138.875 220.71875 136.722656 216.949219 C 134.492188 213.054688 132.261719 208.972656 130.070312 204.78125 C 127.269531 211.632812 124.785156 218.453125 122.65625 225.140625 Z M 265.886719 225.679688 C 265.089844 225.679688 264.363281 225.164062 264.121094 224.375 C 260.519531 212.65625 255.8125 200.457031 250.148438 188.113281 C 249.921875 187.628906 249.921875 187.0625 250.148438 186.578125 C 255.8125 174.234375 260.519531 162.03125 264.125 150.3125 C 264.417969 149.355469 265.429688 148.820312 266.382812 149.078125 C 299.886719 158.285156 320.695312 172.949219 320.695312 187.34375 C 320.695312 201.738281 299.882812 216.402344 266.375 225.613281 C 266.210938 225.65625 266.042969 225.679688 265.886719 225.679688 Z M 253.855469 187.34375 C 259.160156 198.972656 263.621094 210.480469 267.117188 221.574219 C 297.484375 212.941406 317.003906 199.585938 317.003906 187.34375 C 317.003906 175.101562 297.484375 161.746094 267.117188 153.113281 C 263.617188 164.214844 259.15625 175.71875 253.855469 187.34375 Z M 109.488281 225.679688 C 109.328125 225.679688 109.164062 225.65625 108.996094 225.613281 C 75.492188 216.402344 54.679688 201.738281 54.679688 187.34375 C 54.679688 172.949219 75.488281 158.285156 108.996094 149.078125 C 109.949219 148.820312 110.960938 149.355469 111.253906 150.3125 C 114.859375 162.03125 119.5625 174.234375 125.230469 186.578125 C 125.457031 187.0625 125.457031 187.625 125.230469 188.113281 C 119.5625 200.460938 114.859375 212.660156 111.257812 224.375 C 111.015625 225.164062 110.28125 225.679688 109.488281 225.679688 Z M 108.257812 153.113281 C 77.890625 161.746094 58.371094 175.101562 58.371094 187.34375 C 58.371094 199.585938 77.890625 212.941406 108.257812 221.574219 C 111.757812 210.480469 116.214844 198.976562 121.519531 187.34375 C 116.21875 175.71875 111.757812 164.214844 108.257812 153.113281 Z M 245.492188 176.128906 C 244.796875 176.128906 244.160156 175.742188 243.84375 175.121094 C 241.046875 169.636719 238.296875 164.546875 235.449219 159.570312 C 232.765625 154.882812 229.792969 149.980469 226.355469 144.582031 C 225.972656 143.984375 225.972656 143.214844 226.351562 142.613281 C 226.734375 142.011719 227.414062 141.679688 228.136719 141.765625 C 237.605469 142.894531 246.808594 144.445312 255.492188 146.378906 C 255.996094 146.488281 256.425781 146.804688 256.691406 147.253906 C 256.949219 147.699219 257.007812 148.230469 256.855469 148.71875 C 254.191406 157.328125 250.941406 166.171875 247.199219 175 C 246.917969 175.660156 246.277344 176.097656 245.5625 176.125 C 245.53125 176.128906 245.507812 176.128906 245.492188 176.128906 Z M 238.652344 157.742188 C 240.910156 161.683594 243.105469 165.695312 245.304688 169.910156 C 248.101562 163.070312 250.582031 156.242188 252.714844 149.546875 C 245.925781 148.097656 238.832031 146.875 231.550781 145.910156 C 234.167969 150.082031 236.503906 153.976562 238.652344 157.742188 Z M 129.882812 176.128906 C 129.863281 176.128906 129.839844 176.128906 129.816406 176.128906 C 129.101562 176.101562 128.460938 175.667969 128.179688 175.003906 C 124.4375 166.175781 121.1875 157.332031 118.523438 148.722656 C 118.367188 148.230469 118.429688 147.699219 118.6875 147.253906 C 118.949219 146.808594 119.382812 146.492188 119.886719 146.382812 C 128.566406 144.445312 137.773438 142.894531 147.242188 141.769531 C 147.960938 141.695312 148.644531 142.015625 149.027344 142.617188 C 149.40625 143.21875 149.402344 143.988281 149.023438 144.585938 C 145.585938 149.984375 142.613281 154.886719 139.929688 159.574219 C 137.082031 164.550781 134.332031 169.636719 131.535156 175.125 C 131.214844 175.742188 130.578125 176.128906 129.882812 176.128906 Z M 122.65625 149.546875 C 124.789062 156.242188 127.273438 163.070312 130.066406 169.910156 C 132.269531 165.695312 134.460938 161.683594 136.71875 157.742188 C 138.871094 153.976562 141.207031 150.082031 143.816406 145.910156 C 136.539062 146.875 129.445312 148.097656 122.65625 149.546875 Z M 258.121094 139.335938 C 257.984375 139.335938 257.851562 139.320312 257.714844 139.292969 C 245.933594 136.644531 233.191406 134.695312 219.84375 133.492188 C 219.300781 133.445312 218.800781 133.15625 218.492188 132.707031 C 210.609375 121.371094 202.371094 110.984375 194.003906 101.835938 C 193.339844 101.109375 193.367188 99.988281 194.066406 99.292969 C 209.585938 83.773438 224.296875 73.832031 236.605469 70.542969 C 243.511719 68.699219 249.308594 69.117188 253.800781 71.730469 C 266.195312 78.953125 268.539062 104.328125 259.90625 137.953125 C 259.695312 138.777344 258.949219 139.335938 258.121094 139.335938 Z M 221.03125 129.898438 C 233.570312 131.0625 245.578125 132.878906 256.765625 135.308594 C 264.339844 104.667969 262.488281 81.058594 251.933594 74.910156 C 248.316406 72.804688 243.46875 72.53125 237.558594 74.101562 C 226.199219 77.136719 212.519531 86.308594 197.921875 100.660156 C 205.816406 109.410156 213.582031 119.238281 221.03125 129.898438 Z M 117.253906 139.335938 C 116.425781 139.335938 115.679688 138.777344 115.46875 137.949219 C 106.835938 104.324219 109.175781 78.953125 121.570312 71.730469 C 121.570312 71.730469 121.570312 71.730469 121.574219 71.730469 C 126.066406 69.117188 131.871094 68.699219 138.765625 70.542969 C 151.078125 73.835938 165.785156 83.773438 181.308594 99.292969 C 182 99.988281 182.027344 101.109375 181.367188 101.835938 C 173 110.984375 164.761719 121.375 156.882812 132.707031 C 156.570312 133.15625 156.074219 133.445312 155.527344 133.492188 C 142.183594 134.695312 129.441406 136.644531 117.65625 139.292969 C 117.523438 139.320312 117.390625 139.335938 117.253906 139.335938 Z M 123.4375 74.910156 C 112.886719 81.058594 111.035156 104.667969 118.605469 135.308594 C 129.796875 132.878906 141.804688 131.0625 154.339844 129.898438 C 161.792969 119.238281 169.554688 109.410156 177.445312 100.65625 C 162.847656 86.304688 149.171875 77.132812 137.808594 74.097656 C 131.921875 72.53125 127.066406 72.800781 123.4375 74.910156 Z M 205.660156 132.507812 C 205.628906 132.507812 205.597656 132.507812 205.570312 132.507812 C 193.355469 131.917969 182.023438 131.917969 169.808594 132.507812 C 169.046875 132.527344 168.425781 132.164062 168.089844 131.539062 C 167.753906 130.914062 167.804688 130.152344 168.230469 129.574219 C 174.09375 121.632812 180.179688 114.167969 186.320312 107.394531 C 187.023438 106.625 188.359375 106.625 189.0625 107.394531 C 195.199219 114.167969 201.285156 121.628906 207.152344 129.574219 C 207.574219 130.148438 207.628906 130.914062 207.292969 131.539062 C 206.960938 132.136719 206.335938 132.507812 205.660156 132.507812 Z M 187.6875 128.375 C 192.277344 128.375 197.023438 128.46875 201.847656 128.65625 C 197.222656 122.550781 192.472656 116.761719 187.6875 111.394531 C 182.902344 116.765625 178.152344 122.550781 173.527344 128.65625 C 178.351562 128.46875 183.097656 128.375 187.6875 128.375 Z M 187.6875 128.375 "/>
</g>
</g>
</svg>
