<?xml version="1.0" encoding="UTF-8"?>
<svg xmlns="http://www.w3.org/2000/svg" xmlns:xlink="http://www.w3.org/1999/xlink" width="375pt" height="374.999991pt" viewBox="0 0 375 374.999991" version="1.2">
<defs>
<clipPath id="clip1">
  <path d="M 73.070312 57 L 301.714844 57 L 301.714844 318 L 73.070312 318 Z M 73.070312 57 "/>
</clipPath>
<clipPath id="clip2">
  <path d="M 221 88 L 301.714844 88 L 301.714844 318 L 221 318 Z M 221 88 "/>
</clipPath>
</defs>
<g id="surface1">
<g clip-path="url(#clip1)" clip-rule="nonzero">
<path style=" stroke:none;fill-rule:nonzero;fill:rgb(48.629761%,70.199585%,25.878906%);fill-opacity:1;" d="M 273.238281 108.128906 C 273.089844 106.753906 271.867188 106.144531 270.960938 106.144531 C 270.050781 106.144531 250.109375 104.617188 250.109375 104.617188 C 250.109375 104.617188 236.261719 90.738281 234.585938 89.363281 C 233.0625 87.839844 230.167969 88.292969 228.953125 88.601562 C 228.804688 88.601562 225.90625 89.519531 221.191406 91.042969 C 216.472656 77.460938 208.40625 65.101562 193.949219 65.101562 L 192.578125 65.101562 C 188.609375 59.910156 183.4375 57.46875 179.175781 57.46875 C 145.691406 57.46875 129.558594 99.429688 124.535156 120.792969 C 111.445312 124.914062 102.160156 127.65625 101.09375 128.117188 C 93.785156 130.40625 93.636719 130.5625 92.71875 137.425781 C 91.960938 142.613281 72.933594 290.15625 72.933594 290.15625 L 221.035156 317.929688 L 301.402344 300.535156 C 301.554688 300.230469 273.394531 109.503906 273.238281 108.128906 Z M 212.964844 93.171875 C 209.316406 94.238281 204.898438 95.613281 200.488281 97.136719 L 200.488281 94.394531 C 200.488281 86.160156 199.421875 79.445312 197.441406 74.101562 C 205.046875 75.019531 209.769531 83.410156 212.964844 93.171875 Z M 188.152344 75.78125 C 190.132812 80.96875 191.503906 88.292969 191.503906 98.363281 L 191.503906 99.886719 C 183.289062 102.476562 174.609375 105.074219 165.625 107.972656 C 170.648438 88.75 180.242188 79.289062 188.152344 75.78125 Z M 178.410156 66.320312 C 179.929688 66.320312 181.457031 66.929688 182.671875 67.84375 C 171.863281 72.875 160.449219 85.539062 155.726562 111.175781 C 148.574219 113.460938 141.722656 115.449219 135.183594 117.582031 C 140.664062 98.054688 154.363281 66.320312 178.410156 66.320312 Z M 178.410156 66.320312 "/>
</g>
<g clip-path="url(#clip2)" clip-rule="nonzero">
<path style=" stroke:none;fill-rule:nonzero;fill:rgb(33.329773%,54.508972%,18.429565%);fill-opacity:1;" d="M 270.960938 105.835938 C 270.042969 105.835938 250.109375 104.3125 250.109375 104.3125 C 250.109375 104.3125 236.261719 90.429688 234.585938 89.054688 C 233.96875 88.445312 233.207031 88.136719 232.601562 88.136719 L 221.488281 317.929688 L 301.859375 300.535156 C 301.859375 300.535156 273.699219 109.503906 273.542969 108.128906 C 272.933594 106.753906 271.867188 106.144531 270.960938 105.835938 Z M 270.960938 105.835938 "/>
</g>
<path style=" stroke:none;fill-rule:nonzero;fill:rgb(100%,100%,100%);fill-opacity:1;" d="M 192.539062 152.492188 L 182.957031 181.460938 C 182.957031 181.460938 174.273438 176.804688 163.945312 176.804688 C 148.523438 176.804688 147.777344 186.558594 147.777344 188.960938 C 147.777344 202.167969 182.210938 207.273438 182.210938 238.339844 C 182.210938 262.800781 166.789062 278.558594 145.976562 278.558594 C 120.828125 278.558594 108.25 262.953125 108.25 262.953125 L 114.988281 240.742188 C 114.988281 240.742188 128.160156 252.148438 139.242188 252.148438 C 146.574219 252.148438 149.570312 246.445312 149.570312 242.246094 C 149.570312 224.984375 121.425781 224.234375 121.425781 195.722656 C 121.425781 171.855469 138.496094 148.746094 173.078125 148.746094 C 185.945312 148.589844 192.539062 152.492188 192.539062 152.492188 Z M 192.539062 152.492188 "/>
</g>
</svg>
