<?xml version="1.0" encoding="UTF-8"?>
<svg xmlns="http://www.w3.org/2000/svg" xmlns:xlink="http://www.w3.org/1999/xlink" width="375pt" height="374.999991pt" viewBox="0 0 375 374.999991" version="1.2">
<defs>
<clipPath id="clip1">
  <path d="M 0 0 L 200 0 L 200 84.75 L 0 84.75 Z M 0 0 "/>
</clipPath>
<clipPath id="clip2">
  <path d="M 171 0 L 374.992188 0 L 374.992188 84.75 L 171 84.75 Z M 171 0 "/>
</clipPath>
<clipPath id="clip3">
  <path d="M 175 290.242188 L 375 290.242188 L 375 374.992188 L 175 374.992188 Z M 175 290.242188 "/>
</clipPath>
<clipPath id="clip4">
  <path d="M 0.00390625 290.242188 L 204 290.242188 L 204 374.992188 L 0.00390625 374.992188 Z M 0.00390625 290.242188 "/>
</clipPath>
</defs>
<g id="surface1">
<g clip-path="url(#clip1)" clip-rule="nonzero">
<path style=" stroke:none;fill-rule:nonzero;fill:rgb(100%,54.119873%,0%);fill-opacity:1;" d="M -4.492188 84.769531 L -4.492188 71.34375 C -4.492188 46.796875 15.511719 26.828125 40.101562 26.828125 L 130.246094 26.828125 C 148.367188 26.828125 165.398438 19.785156 178.210938 6.996094 L 185.21875 0.00390625 L 199.234375 13.992188 L 192.226562 20.984375 C 175.671875 37.511719 153.660156 46.613281 130.246094 46.613281 L 40.101562 46.613281 C 26.441406 46.613281 15.328125 57.707031 15.328125 71.34375 L 15.328125 84.769531 L -4.492188 84.769531 "/>
</g>
<g clip-path="url(#clip2)" clip-rule="nonzero">
<path style=" stroke:none;fill-rule:nonzero;fill:rgb(100%,54.119873%,0%);fill-opacity:1;" d="M 171.203125 13.992188 L 185.21875 0.00390625 L 192.226562 6.996094 C 205.035156 19.785156 222.070312 26.828125 240.1875 26.828125 L 330.332031 26.828125 C 354.925781 26.828125 374.929688 46.796875 374.929688 71.34375 L 374.929688 84.769531 L 355.109375 84.769531 L 355.109375 71.34375 C 355.109375 57.707031 343.996094 46.613281 330.332031 46.613281 L 240.1875 46.613281 C 216.777344 46.613281 194.765625 37.511719 178.210938 20.984375 L 171.203125 13.992188 "/>
</g>
<path style=" stroke:none;fill-rule:nonzero;fill:rgb(100%,100%,100%);fill-opacity:1;" d="M -29.945312 86.972656 L -3.738281 45.292969 L 19.253906 88.832031 Z M -29.945312 86.972656 "/>
<g clip-path="url(#clip3)" clip-rule="nonzero">
<path style=" stroke:none;fill-rule:nonzero;fill:rgb(5.099487%,43.139648%,99.21875%);fill-opacity:1;" d="M 378.753906 290.226562 L 378.753906 303.652344 C 378.753906 328.195312 358.785156 348.167969 334.242188 348.167969 L 244.269531 348.167969 C 226.1875 348.167969 209.1875 355.210938 196.398438 367.996094 L 189.402344 374.992188 L 175.414062 361 L 182.40625 354.007812 C 198.933594 337.484375 220.902344 328.382812 244.269531 328.382812 L 334.242188 328.382812 C 347.875 328.382812 358.972656 317.289062 358.972656 303.652344 L 358.972656 290.226562 L 378.753906 290.226562 "/>
</g>
<g clip-path="url(#clip4)" clip-rule="nonzero">
<path style=" stroke:none;fill-rule:nonzero;fill:rgb(5.099487%,43.139648%,99.21875%);fill-opacity:1;" d="M 203.390625 361 L 189.402344 374.992188 L 182.40625 367.996094 C 169.621094 355.210938 152.621094 348.167969 134.535156 348.167969 L 44.5625 348.167969 C 20.019531 348.167969 0.0507812 328.195312 0.0507812 303.652344 L 0.0507812 290.226562 L 19.835938 290.226562 L 19.835938 303.652344 C 19.835938 317.289062 30.929688 328.382812 44.5625 328.382812 L 134.535156 328.382812 C 157.902344 328.382812 179.875 337.484375 196.398438 354.007812 L 203.390625 361 "/>
</g>
<path style=" stroke:none;fill-rule:nonzero;fill:rgb(100%,100%,100%);fill-opacity:1;" d="M 404.46875 288.128906 L 378.292969 329.757812 L 355.328125 286.269531 Z M 404.46875 288.128906 "/>
<path style="fill:none;stroke-width:1;stroke-linecap:butt;stroke-linejoin:miter;stroke:rgb(23.529053%,20.779419%,20.779419%);stroke-opacity:1;stroke-miterlimit:4;" d="M 0.0000493916 -0.0000973381 L 21.995509 0.000012702 " transform="matrix(16.147825,-7.962482,7.760264,15.737731,7.730427,272.435519)"/>
<path style=" stroke:none;fill-rule:nonzero;fill:rgb(100%,100%,100%);fill-opacity:1;" d="M 37.160156 272.40625 L 13.828125 286.261719 L 0.00390625 262.972656 Z M 37.160156 272.40625 "/>
<path style=" stroke:none;fill-rule:nonzero;fill:rgb(100%,100%,100%);fill-opacity:1;" d="M 335.808594 100.949219 L 359.691406 85.601562 L 372.695312 105.832031 Z M 335.808594 100.949219 "/>
</g>
</svg>
