<?xml version="1.0" encoding="UTF-8"?>
<svg xmlns="http://www.w3.org/2000/svg" xmlns:xlink="http://www.w3.org/1999/xlink" width="30pt" height="30.000001pt" viewBox="0 0 30 30.000001" version="1.2">
<defs>
<clipPath id="clip1">
  <path d="M 7.199219 0 L 23.164062 0 L 23.164062 29.03125 L 7.199219 29.03125 Z M 7.199219 0 "/>
</clipPath>
</defs>
<g id="surface1">
<g clip-path="url(#clip1)" clip-rule="nonzero">
<path style=" stroke:none;fill-rule:nonzero;fill:rgb(5.099487%,43.139648%,99.21875%);fill-opacity:1;" d="M 22.296875 26.523438 C 22.296875 27.445312 21.53125 28.195312 20.585938 28.195312 L 9.78125 28.195312 C 8.835938 28.195312 8.066406 27.445312 8.066406 26.523438 L 8.066406 2.507812 C 8.066406 1.585938 8.835938 0.835938 9.78125 0.835938 L 11.976562 0.835938 C 12.09375 0.835938 12.1875 0.929688 12.1875 1.042969 L 12.1875 1.148438 C 12.1875 1.570312 12.535156 1.910156 12.96875 1.910156 L 17.394531 1.910156 C 17.828125 1.910156 18.175781 1.570312 18.175781 1.148438 L 18.175781 1.042969 C 18.175781 0.929688 18.269531 0.835938 18.386719 0.835938 L 20.585938 0.835938 C 21.53125 0.835938 22.296875 1.585938 22.296875 2.507812 Z M 20.585938 0 L 9.78125 0 C 8.363281 0 7.210938 1.125 7.210938 2.507812 L 7.210938 26.523438 C 7.210938 27.90625 8.363281 29.03125 9.78125 29.03125 L 20.585938 29.03125 C 22 29.03125 23.152344 27.90625 23.152344 26.523438 L 23.152344 2.507812 C 23.152344 1.125 22 0 20.585938 0 "/>
</g>
</g>
</svg>
