<?xml version="1.0" encoding="UTF-8"?>
<svg xmlns="http://www.w3.org/2000/svg" xmlns:xlink="http://www.w3.org/1999/xlink" width="75pt" height="74.999997pt" viewBox="0 0 75 74.999997" version="1.2">
<g id="surface1">
<path style=" stroke:none;fill-rule:nonzero;fill:rgb(0%,76.858521%,79.998779%);fill-opacity:1;" d="M 75 37.5 C 75 38.726562 74.941406 39.953125 74.820312 41.175781 C 74.699219 42.398438 74.519531 43.613281 74.28125 44.816406 C 74.039062 46.019531 73.742188 47.210938 73.386719 48.386719 C 73.027344 49.5625 72.617188 50.714844 72.144531 51.851562 C 71.675781 52.984375 71.152344 54.09375 70.570312 55.175781 C 69.992188 56.261719 69.363281 57.3125 68.679688 58.332031 C 67.996094 59.355469 67.265625 60.339844 66.488281 61.289062 C 65.707031 62.238281 64.886719 63.148438 64.015625 64.015625 C 63.148438 64.886719 62.238281 65.707031 61.289062 66.488281 C 60.339844 67.265625 59.355469 67.996094 58.332031 68.679688 C 57.3125 69.363281 56.261719 69.992188 55.175781 70.570312 C 54.09375 71.152344 52.984375 71.675781 51.851562 72.144531 C 50.714844 72.617188 49.5625 73.027344 48.386719 73.386719 C 47.210938 73.742188 46.019531 74.039062 44.816406 74.28125 C 43.609375 74.519531 42.398438 74.699219 41.175781 74.820312 C 39.953125 74.941406 38.726562 75 37.5 75 C 36.273438 75 35.046875 74.941406 33.824219 74.820312 C 32.601562 74.699219 31.390625 74.519531 30.183594 74.28125 C 28.980469 74.039062 27.789062 73.742188 26.613281 73.386719 C 25.4375 73.027344 24.285156 72.617188 23.148438 72.144531 C 22.015625 71.675781 20.90625 71.152344 19.824219 70.570312 C 18.738281 69.992188 17.6875 69.363281 16.667969 68.679688 C 15.644531 67.996094 14.660156 67.265625 13.710938 66.488281 C 12.761719 65.707031 11.851562 64.886719 10.984375 64.015625 C 10.113281 63.148438 9.292969 62.238281 8.511719 61.289062 C 7.734375 60.339844 7.003906 59.355469 6.320312 58.332031 C 5.636719 57.3125 5.007812 56.261719 4.429688 55.175781 C 3.847656 54.09375 3.324219 52.984375 2.855469 51.851562 C 2.382812 50.714844 1.972656 49.5625 1.613281 48.386719 C 1.257812 47.210938 0.960938 46.019531 0.71875 44.816406 C 0.480469 43.613281 0.300781 42.398438 0.179688 41.175781 C 0.0585938 39.953125 0 38.726562 0 37.5 C 0 36.273438 0.0585938 35.046875 0.179688 33.824219 C 0.300781 32.601562 0.480469 31.390625 0.71875 30.183594 C 0.960938 28.980469 1.257812 27.789062 1.613281 26.613281 C 1.972656 25.4375 2.382812 24.285156 2.855469 23.148438 C 3.324219 22.015625 3.847656 20.90625 4.429688 19.824219 C 5.007812 18.738281 5.636719 17.6875 6.320312 16.667969 C 7.003906 15.644531 7.734375 14.660156 8.511719 13.710938 C 9.292969 12.761719 10.113281 11.851562 10.984375 10.984375 C 11.851562 10.113281 12.761719 9.292969 13.710938 8.511719 C 14.660156 7.734375 15.644531 7.003906 16.667969 6.320312 C 17.6875 5.636719 18.738281 5.007812 19.824219 4.429688 C 20.90625 3.847656 22.015625 3.324219 23.148438 2.855469 C 24.285156 2.382812 25.4375 1.972656 26.613281 1.613281 C 27.789062 1.257812 28.980469 0.960938 30.183594 0.71875 C 31.390625 0.480469 32.601562 0.300781 33.824219 0.179688 C 35.046875 0.0585938 36.273438 0 37.5 0 C 38.726562 0 39.953125 0.0585938 41.175781 0.179688 C 42.398438 0.300781 43.609375 0.480469 44.816406 0.71875 C 46.019531 0.960938 47.210938 1.257812 48.386719 1.613281 C 49.5625 1.972656 50.714844 2.382812 51.851562 2.855469 C 52.984375 3.324219 54.09375 3.847656 55.175781 4.429688 C 56.261719 5.007812 57.3125 5.636719 58.332031 6.320312 C 59.355469 7.003906 60.339844 7.734375 61.289062 8.511719 C 62.238281 9.292969 63.148438 10.113281 64.015625 10.984375 C 64.886719 11.851562 65.707031 12.761719 66.488281 13.710938 C 67.265625 14.660156 67.996094 15.644531 68.679688 16.667969 C 69.363281 17.6875 69.992188 18.738281 70.570312 19.824219 C 71.152344 20.90625 71.675781 22.015625 72.144531 23.148438 C 72.617188 24.285156 73.027344 25.4375 73.386719 26.613281 C 73.742188 27.789062 74.039062 28.980469 74.28125 30.183594 C 74.519531 31.390625 74.699219 32.601562 74.820312 33.824219 C 74.941406 35.046875 75 36.273438 75 37.5 Z M 75 37.5 "/>
<path style=" stroke:none;fill-rule:nonzero;fill:rgb(100%,100%,100%);fill-opacity:1;" d="M 25.65625 41.710938 C 24.738281 42.9375 23.550781 44.253906 21.972656 45.261719 C 20.4375 46.226562 18.683594 47.015625 16.621094 47.015625 C 14.738281 47.015625 13.113281 46.007812 12.238281 45.175781 C 10.921875 43.949219 10.21875 42.105469 10 40.4375 C 9.34375 35.175781 12.585938 28.246094 17.585938 25.21875 C 18.726562 24.515625 20 24.167969 21.183594 24.167969 C 23.597656 24.167969 25.394531 25.878906 25.613281 27.9375 C 25.832031 29.78125 25.085938 31.359375 23.070312 32.414062 C 22.015625 32.9375 21.492188 32.894531 21.359375 32.675781 C 21.273438 32.5 21.316406 32.238281 21.535156 32.0625 C 23.464844 30.4375 23.507812 29.121094 23.289062 27.28125 C 23.15625 26.097656 22.367188 25.308594 21.492188 25.308594 C 17.71875 25.308594 12.28125 33.773438 13.027344 39.914062 C 13.332031 42.324219 14.78125 45.085938 17.851562 45.085938 C 18.859375 45.085938 19.914062 44.824219 20.878906 44.34375 C 22.984375 43.289062 23.949219 42.5 25.21875 40.746094 C 25.394531 40.527344 25.527344 40.261719 25.746094 40 C 25.878906 39.78125 26.050781 39.738281 26.226562 39.738281 C 26.402344 39.738281 26.578125 39.914062 26.621094 40.132812 C 26.667969 40.308594 26.578125 40.613281 26.359375 40.878906 C 26.050781 41.183594 25.878906 41.449219 25.65625 41.710938 Z M 25.65625 41.710938 "/>
<path style=" stroke:none;fill-rule:nonzero;fill:rgb(100%,100%,100%);fill-opacity:1;" d="M 31.402344 44.78125 C 30.4375 44.78125 29.914062 44.253906 29.738281 43.507812 C 29.121094 44.34375 28.289062 44.78125 27.414062 44.78125 C 25.964844 44.78125 24.5625 43.550781 24.386719 41.886719 C 24.035156 38.992188 26.492188 35.308594 30.21875 35.308594 C 31.796875 35.308594 33.113281 35.921875 33.246094 37.191406 C 33.421875 38.773438 32.105469 39.078125 31.578125 39.078125 C 31.140625 39.078125 30.4375 38.949219 30.394531 38.550781 C 30.351562 38.113281 31.359375 38.378906 31.226562 37.367188 C 31.140625 36.753906 30.484375 36.535156 29.867188 36.535156 C 27.585938 36.535156 26.359375 39.691406 26.578125 41.667969 C 26.667969 42.542969 27.148438 43.421875 27.984375 43.421875 C 28.640625 43.421875 29.605469 42.457031 29.957031 41.097656 C 30.175781 40.132812 31.097656 39.515625 31.753906 39.515625 C 32.105469 39.515625 32.324219 39.691406 32.367188 40.042969 C 32.367188 40.175781 32.367188 40.308594 32.324219 40.527344 C 32.238281 40.921875 31.929688 42.324219 31.929688 42.585938 C 31.929688 42.851562 32.105469 43.15625 32.5 43.15625 C 32.984375 43.15625 35.21875 41.84375 36.492188 40.085938 C 36.578125 39.914062 36.796875 39.824219 37.015625 39.824219 C 37.191406 39.824219 37.367188 39.914062 37.414062 40.132812 C 37.457031 40.351562 37.367188 40.65625 37.0625 41.007812 C 35.613281 43.027344 32.5 44.78125 31.402344 44.78125 Z M 31.402344 44.78125 "/>
<path style=" stroke:none;fill-rule:nonzero;fill:rgb(100%,100%,100%);fill-opacity:1;" d="M 62.761719 43.726562 C 62.894531 44.648438 63.289062 45.261719 63.683594 45.570312 C 63.816406 45.703125 63.902344 45.832031 63.902344 45.964844 C 63.949219 46.226562 63.726562 46.449219 63.421875 46.449219 C 63.332031 46.449219 63.203125 46.449219 63.113281 46.402344 C 61.492188 45.746094 60.832031 44.648438 60.613281 43.597656 C 60 44.386719 59.167969 44.824219 58.289062 44.824219 C 56.84375 44.824219 55.4375 43.550781 55.21875 41.929688 C 54.867188 39.078125 57.457031 35.351562 61.097656 35.351562 C 62.632812 35.351562 63.992188 35.964844 64.121094 37.191406 C 64.34375 38.816406 62.9375 39.121094 62.457031 39.121094 C 61.972656 39.121094 61.273438 38.992188 61.226562 38.597656 C 61.183594 38.203125 62.191406 38.421875 62.105469 37.414062 C 62.015625 36.796875 61.359375 36.535156 60.746094 36.535156 C 58.640625 36.535156 57.191406 39.34375 57.457031 41.621094 C 57.585938 42.542969 57.984375 43.421875 58.816406 43.421875 C 59.472656 43.421875 60.484375 42.457031 60.832031 41.097656 C 61.050781 40.175781 61.972656 39.515625 62.632812 39.515625 C 62.9375 39.515625 63.203125 39.691406 63.246094 40.042969 C 63.289062 40.21875 63.203125 40.65625 62.851562 42.148438 C 62.71875 42.761719 62.71875 43.289062 62.761719 43.726562 Z M 62.761719 43.726562 "/>
<path style=" stroke:none;fill-rule:nonzero;fill:rgb(100%,100%,100%);fill-opacity:1;" d="M 43.113281 43.15625 C 43.640625 43.15625 45.261719 42.542969 46.578125 40.746094 C 46.710938 40.570312 46.886719 40.484375 47.105469 40.484375 C 47.324219 40.484375 47.5 40.570312 47.542969 40.832031 C 47.585938 41.007812 47.457031 41.316406 47.191406 41.667969 C 45.703125 43.726562 43.203125 44.78125 42.105469 44.78125 C 40.964844 44.78125 40.351562 44.078125 40.21875 43.027344 C 40.175781 42.675781 40.175781 42.28125 40.261719 41.84375 C 40.65625 39.515625 41.492188 38.070312 41.449219 37.632812 C 41.449219 37.5 41.359375 37.457031 41.273438 37.457031 C 40.527344 37.457031 37.984375 40.085938 37.585938 41.796875 L 37.28125 43.203125 C 37.105469 44.167969 36.140625 44.824219 35.4375 44.824219 C 35.132812 44.824219 34.867188 44.648438 34.824219 44.296875 C 34.824219 44.167969 34.824219 44.035156 34.867188 43.816406 C 34.867188 43.816406 36.140625 37.324219 36.183594 37.015625 C 36.316406 36.273438 36.578125 35.484375 38.15625 35.484375 C 38.464844 35.484375 38.726562 35.65625 38.773438 36.007812 C 38.773438 36.140625 38.773438 36.273438 38.726562 36.492188 L 38.289062 38.421875 C 39.648438 36.621094 41.753906 35.308594 43.027344 35.308594 C 43.550781 35.308594 43.992188 35.570312 44.035156 36.140625 C 44.078125 36.449219 43.992188 36.972656 43.773438 37.585938 C 43.332031 38.816406 42.808594 40.65625 42.5 42.28125 C 42.367188 42.632812 42.5 43.15625 43.113281 43.15625 Z M 43.113281 43.15625 "/>
<path style=" stroke:none;fill-rule:nonzero;fill:rgb(100%,100%,100%);fill-opacity:1;" d="M 53.683594 40.351562 C 53.507812 40.351562 53.332031 40.351562 53.15625 40.308594 C 51.753906 42.367188 50.261719 43.773438 49.121094 44.429688 C 48.640625 44.691406 48.203125 44.824219 47.894531 44.824219 C 47.632812 44.824219 47.367188 44.78125 47.238281 44.5625 C 46.710938 43.726562 46.492188 41.972656 46.492188 40.175781 C 46.492188 38.859375 46.578125 37.761719 46.84375 36.972656 C 47.105469 36.140625 48.15625 35.351562 48.816406 35.351562 C 49.167969 35.351562 49.429688 35.527344 49.429688 35.921875 C 49.429688 36.050781 49.386719 36.183594 49.34375 36.359375 C 48.859375 37.761719 48.597656 39.035156 48.597656 40.351562 C 48.597656 41.097656 48.773438 42.238281 48.902344 42.851562 C 48.949219 42.984375 48.949219 43.113281 49.078125 43.113281 C 49.296875 43.113281 50.789062 41.667969 51.84375 39.914062 C 50.878906 39.296875 50.351562 38.203125 50.351562 36.84375 C 50.351562 34.5625 51.710938 33.421875 53.027344 33.421875 C 54.078125 33.421875 55 34.167969 55 35.703125 C 55 36.667969 54.605469 37.71875 54.078125 38.773438 C 54.078125 38.773438 54.296875 38.816406 54.386719 38.816406 C 55.21875 38.816406 55.832031 38.421875 56.183594 38.027344 C 56.449219 37.761719 56.667969 37.542969 56.886719 37.542969 C 57.0625 37.542969 57.105469 37.675781 57.105469 37.808594 C 57.105469 37.894531 57.0625 38.070312 56.972656 38.203125 C 56.273438 39.472656 54.824219 40.351562 53.683594 40.351562 Z M 51.753906 35.613281 C 51.753906 36.492188 52.191406 37.414062 52.761719 38.027344 C 52.984375 37.414062 53.113281 36.84375 53.113281 36.226562 C 53.113281 35.085938 52.675781 34.605469 52.324219 34.605469 C 51.886719 34.5625 51.753906 35.132812 51.753906 35.613281 Z M 51.753906 35.613281 "/>
</g>
</svg>
