<?xml version="1.0" encoding="UTF-8"?>
<svg xmlns="http://www.w3.org/2000/svg" xmlns:xlink="http://www.w3.org/1999/xlink" width="75pt" height="74.999997pt" viewBox="0 0 75 74.999997" version="1.2">
<defs>
<clipPath id="clip1">
  <path d="M 4.636719 0 L 70.636719 0 L 70.636719 75 L 4.636719 75 Z M 4.636719 0 "/>
</clipPath>
</defs>
<g id="surface1">
<g clip-path="url(#clip1)" clip-rule="nonzero">
<path style=" stroke:none;fill-rule:nonzero;fill:rgb(89.408875%,30.198669%,14.898682%);fill-opacity:1;" d="M 10.652344 67.335938 L 4.617188 0.214844 L 70.9375 0.214844 L 64.898438 67.324219 L 37.734375 74.789062 Z M 10.652344 67.335938 "/>
</g>
<path style=" stroke:none;fill-rule:nonzero;fill:rgb(94.509888%,39.608765%,16.079712%);fill-opacity:1;" d="M 59.722656 63.050781 L 64.886719 5.703125 L 37.777344 5.703125 L 37.777344 69.085938 Z M 59.722656 63.050781 "/>
<path style=" stroke:none;fill-rule:nonzero;fill:rgb(92.158508%,92.158508%,92.158508%);fill-opacity:1;" d="M 37.75 13.933594 L 16.957031 13.933594 L 19.199219 38.828125 L 37.777344 38.828125 L 37.777344 30.597656 L 26.792969 30.597656 L 26.03125 22.167969 L 37.777344 22.167969 L 37.777344 13.933594 Z M 37.777344 51.949219 L 37.742188 51.957031 L 28.496094 49.484375 L 27.90625 42.917969 L 19.570312 42.917969 L 20.730469 55.84375 L 37.738281 60.503906 L 37.777344 60.492188 Z M 37.777344 51.949219 "/>
<path style=" stroke:none;fill-rule:nonzero;fill:rgb(100%,100%,100%);fill-opacity:1;" d="M 37.75 38.828125 L 47.972656 38.828125 L 47.035156 49.5 L 37.773438 51.980469 L 37.773438 60.542969 L 54.792969 55.867188 L 57.074219 30.59375 L 37.777344 30.59375 Z M 58.347656 16.144531 L 58.546875 13.933594 L 37.746094 13.933594 L 37.746094 22.164062 L 57.796875 22.164062 L 57.964844 20.316406 Z M 58.347656 16.144531 "/>
</g>
</svg>
