<?xml version="1.0" encoding="UTF-8"?>
<svg xmlns="http://www.w3.org/2000/svg" xmlns:xlink="http://www.w3.org/1999/xlink" width="375pt" height="374.999991pt" viewBox="0 0 375 374.999991" version="1.2">
<defs>
<clipPath id="clip1">
  <path d="M 72.683594 57 L 302.054688 57 L 302.054688 317.96875 L 72.683594 317.96875 Z M 72.683594 57 "/>
</clipPath>
</defs>
<g id="surface1">
<g clip-path="url(#clip1)" clip-rule="nonzero">
<path style=" stroke:none;fill-rule:nonzero;fill:rgb(89.408875%,30.198669%,14.898682%);fill-opacity:1;" d="M 93.507812 291.257812 L 72.621094 57.21875 L 302.121094 57.21875 L 281.21875 291.226562 L 187.222656 317.246094 Z M 93.507812 291.257812 "/>
</g>
<path style=" stroke:none;fill-rule:nonzero;fill:rgb(94.509888%,39.608765%,16.079712%);fill-opacity:1;" d="M 263.316406 276.320312 L 281.183594 76.355469 L 187.371094 76.355469 L 187.371094 297.359375 Z M 263.316406 276.320312 "/>
<path style=" stroke:none;fill-rule:nonzero;fill:rgb(92.158508%,92.158508%,92.158508%);fill-opacity:1;" d="M 187.273438 105.054688 L 115.320312 105.054688 L 123.074219 191.859375 L 187.371094 191.859375 L 187.371094 163.15625 L 149.351562 163.15625 L 146.726562 133.765625 L 187.371094 133.765625 L 187.371094 105.054688 Z M 187.371094 237.609375 L 187.25 237.640625 L 155.25 229.011719 L 153.21875 206.121094 L 124.359375 206.121094 L 128.382812 251.1875 L 187.238281 267.441406 L 187.371094 267.398438 Z M 187.371094 237.609375 "/>
<path style=" stroke:none;fill-rule:nonzero;fill:rgb(100%,100%,100%);fill-opacity:1;" d="M 187.273438 191.859375 L 222.65625 191.859375 L 219.402344 229.078125 L 187.355469 237.714844 L 187.355469 267.578125 L 246.257812 251.269531 L 254.148438 163.140625 L 187.371094 163.140625 Z M 258.558594 112.757812 L 259.238281 105.054688 L 187.257812 105.054688 L 187.257812 133.757812 L 256.652344 133.757812 L 257.222656 127.304688 Z M 258.558594 112.757812 "/>
</g>
</svg>
