<?xml version="1.0" encoding="UTF-8"?>
<svg xmlns="http://www.w3.org/2000/svg" xmlns:xlink="http://www.w3.org/1999/xlink" width="375pt" height="374.999991pt" viewBox="0 0 375 374.999991" version="1.2">
<defs>
<clipPath id="clip1">
  <path d="M 42 157 L 333 157 L 333 221.613281 L 42 221.613281 Z M 42 157 "/>
</clipPath>
</defs>
<g id="surface1">
<g clip-path="url(#clip1)" clip-rule="nonzero">
<path style=" stroke:none;fill-rule:nonzero;fill:rgb(0%,0%,0%);fill-opacity:1;" d="M 132.679688 221.757812 L 132.679688 158.894531 L 136.121094 158.894531 L 136.121094 168.78125 C 136.527344 168.34375 136.902344 167.878906 137.242188 167.386719 C 140.117188 161.480469 146.179688 157.75 152.796875 157.824219 C 160.640625 157.59375 167.015625 160.46875 170.761719 167.386719 C 171.953125 169.539062 172.875 171.796875 173.519531 174.164062 C 174.167969 176.527344 174.523438 178.9375 174.589844 181.390625 C 174.652344 183.839844 174.425781 186.265625 173.90625 188.664062 C 173.386719 191.058594 172.585938 193.363281 171.511719 195.570312 C 168.019531 203.324219 159.398438 207.175781 150.167969 205.761719 C 148.734375 205.640625 147.335938 205.347656 145.972656 204.878906 C 144.609375 204.410156 143.328125 203.78125 142.125 202.996094 C 140.921875 202.207031 139.835938 201.285156 138.867188 200.230469 C 137.894531 199.175781 137.070312 198.015625 136.394531 196.753906 L 136.394531 221.753906 Z M 136.121094 181.132812 L 136.890625 188.511719 C 138.25 196.914062 143.261719 201.878906 151.132812 202.8125 C 152.050781 202.960938 152.972656 203.03125 153.902344 203.023438 C 154.832031 203.015625 155.753906 202.929688 156.667969 202.765625 C 157.582031 202.597656 158.476562 202.355469 159.347656 202.039062 C 160.21875 201.722656 161.058594 201.332031 161.863281 200.871094 C 162.667969 200.410156 163.425781 199.882812 164.140625 199.292969 C 164.851562 198.703125 165.511719 198.054688 166.109375 197.351562 C 166.710938 196.648438 167.246094 195.902344 167.71875 195.105469 C 168.1875 194.3125 168.585938 193.484375 168.914062 192.621094 C 171.972656 185.394531 171.75 177.207031 168.308594 170.148438 C 167.957031 169.375 167.550781 168.632812 167.078125 167.925781 C 166.609375 167.21875 166.085938 166.550781 165.507812 165.929688 C 164.929688 165.304688 164.304688 164.730469 163.628906 164.207031 C 162.957031 163.683594 162.25 163.214844 161.5 162.804688 C 160.75 162.398438 159.972656 162.050781 159.167969 161.765625 C 158.363281 161.480469 157.542969 161.257812 156.699219 161.105469 C 155.859375 160.953125 155.011719 160.867188 154.15625 160.851562 C 153.300781 160.832031 152.449219 160.882812 151.605469 161.003906 C 150.808594 161.058594 150.023438 161.175781 149.246094 161.355469 C 148.46875 161.535156 147.710938 161.769531 146.972656 162.0625 C 146.230469 162.359375 145.519531 162.707031 144.832031 163.109375 C 144.148438 163.515625 143.5 163.96875 142.882812 164.472656 C 142.269531 164.976562 141.699219 165.523438 141.167969 166.113281 C 140.640625 166.703125 140.160156 167.332031 139.730469 167.996094 C 139.300781 168.660156 138.921875 169.355469 138.601562 170.078125 C 138.277344 170.800781 138.011719 171.542969 137.808594 172.308594 C 137.074219 175.214844 136.511719 178.15625 136.121094 181.128906 Z M 244.847656 189.675781 C 244.71875 190.773438 244.488281 191.851562 244.164062 192.90625 C 243.839844 193.964844 243.421875 194.984375 242.910156 195.964844 C 242.398438 196.949219 241.804688 197.878906 241.125 198.753906 C 240.445312 199.628906 239.691406 200.4375 238.863281 201.179688 C 238.035156 201.917969 237.148438 202.582031 236.203125 203.164062 C 235.253906 203.746094 234.261719 204.242188 233.222656 204.644531 C 232.1875 205.050781 231.121094 205.363281 230.027344 205.578125 C 228.933594 205.792969 227.828125 205.90625 226.714844 205.925781 C 212.285156 206.644531 205.511719 197.148438 204.4375 186.191406 C 204.0625 183.214844 204.113281 180.25 204.59375 177.289062 C 205.070312 174.328125 205.957031 171.492188 207.246094 168.78125 C 207.695312 167.855469 208.210938 166.972656 208.800781 166.128906 C 209.386719 165.285156 210.039062 164.496094 210.753906 163.753906 C 211.46875 163.011719 212.238281 162.332031 213.058594 161.710938 C 213.882812 161.089844 214.75 160.539062 215.660156 160.054688 C 216.574219 159.570312 217.515625 159.160156 218.492188 158.824219 C 219.46875 158.488281 220.46875 158.230469 221.484375 158.050781 C 222.503906 157.871094 223.53125 157.773438 224.5625 157.753906 C 225.597656 157.734375 226.625 157.796875 227.652344 157.9375 C 228.625 158.019531 229.585938 158.175781 230.535156 158.410156 C 231.484375 158.640625 232.410156 158.941406 233.308594 159.316406 C 234.210938 159.691406 235.078125 160.132812 235.910156 160.640625 C 236.738281 161.148438 237.527344 161.71875 238.269531 162.347656 C 239.011719 162.980469 239.699219 163.664062 240.332031 164.402344 C 240.964844 165.136719 241.539062 165.917969 242.046875 166.746094 C 242.558594 167.570312 243 168.429688 243.375 169.324219 C 243.75 170.21875 244.050781 171.136719 244.28125 172.078125 C 245.015625 175.53125 245.554688 179.011719 245.898438 182.527344 L 208 182.527344 C 207.300781 192.460938 212.6875 200.449219 220.324219 202.375 C 229.832031 204.691406 237.960938 200.609375 240.914062 191.648438 C 241.570312 189.347656 242.761719 189.023438 244.871094 189.675781 Z M 207.972656 179.34375 L 241.871094 179.34375 C 241.660156 168.761719 235.007812 161.066406 225.988281 160.980469 C 215.804688 160.816406 208.417969 168.203125 207.972656 179.34375 Z M 251.851562 189.90625 L 255.175781 189.90625 C 255.234375 191.121094 255.460938 192.300781 255.851562 193.453125 C 256.242188 194.605469 256.78125 195.683594 257.472656 196.683594 C 258.164062 197.6875 258.976562 198.582031 259.914062 199.363281 C 260.855469 200.140625 261.882812 200.78125 263 201.28125 C 264.402344 201.90625 265.855469 202.371094 267.363281 202.671875 C 268.871094 202.972656 270.394531 203.101562 271.929688 203.0625 C 273.46875 203.019531 274.980469 202.8125 276.472656 202.433594 C 277.960938 202.054688 279.390625 201.515625 280.757812 200.820312 C 281.5 200.488281 282.179688 200.050781 282.789062 199.511719 C 283.398438 198.972656 283.914062 198.355469 284.332031 197.660156 C 284.753906 196.964844 285.054688 196.222656 285.246094 195.433594 C 285.433594 194.648438 285.5 193.847656 285.441406 193.042969 C 285.484375 192.261719 285.402344 191.496094 285.191406 190.746094 C 284.984375 189.992188 284.65625 189.292969 284.21875 188.644531 C 283.777344 187.996094 283.246094 187.4375 282.621094 186.960938 C 281.996094 186.484375 281.3125 186.121094 280.570312 185.867188 C 276.914062 184.519531 273.027344 183.777344 269.300781 182.59375 C 265.421875 181.5 261.640625 180.128906 257.964844 178.484375 C 251.960938 175.582031 251.589844 164.277344 258.386719 160.699219 C 260.125 159.726562 261.957031 158.980469 263.886719 158.464844 C 265.8125 157.945312 267.773438 157.671875 269.773438 157.640625 C 271.769531 157.613281 273.738281 157.824219 275.679688 158.285156 C 277.625 158.742188 279.480469 159.429688 281.25 160.351562 C 285.636719 162.75 288.0625 167.597656 287.339844 172.515625 L 284.492188 172.515625 C 284.492188 172.378906 284.234375 172.261719 284.234375 172.121094 C 283.878906 163.121094 276.246094 160.304688 268.046875 161.09375 C 265.570312 161.367188 263.222656 162.109375 261.019531 163.207031 C 260.355469 163.507812 259.757812 163.898438 259.21875 164.382812 C 258.679688 164.867188 258.226562 165.421875 257.863281 166.046875 C 257.496094 166.667969 257.238281 167.332031 257.078125 168.039062 C 256.921875 168.742188 256.878906 169.453125 256.945312 170.171875 C 256.945312 170.890625 257.058594 171.589844 257.277344 172.277344 C 257.5 172.960938 257.820312 173.59375 258.238281 174.179688 C 258.660156 174.769531 259.15625 175.277344 259.734375 175.710938 C 260.316406 176.144531 260.945312 176.480469 261.628906 176.71875 C 265.207031 178.019531 269.007812 178.855469 272.710938 179.875 L 281.65625 182.191406 C 282.671875 182.523438 283.617188 182.996094 284.488281 183.609375 C 285.359375 184.226562 286.121094 184.957031 286.769531 185.800781 C 287.417969 186.644531 287.925781 187.5625 288.292969 188.558594 C 288.65625 189.554688 288.867188 190.582031 288.917969 191.640625 C 289.632812 196.402344 287.183594 201.082031 282.851562 203.25 C 275.027344 207.636719 262.140625 206.476562 256.402344 200.929688 C 253.464844 198.003906 251.828125 194.027344 251.859375 189.90625 Z M 331.074219 172.519531 L 327.960938 172.519531 C 327.960938 172.101562 327.792969 171.703125 327.746094 171.382812 C 327.734375 170.808594 327.675781 170.238281 327.5625 169.675781 C 327.453125 169.109375 327.296875 168.558594 327.089844 168.023438 C 326.882812 167.484375 326.632812 166.96875 326.339844 166.472656 C 326.046875 165.980469 325.710938 165.511719 325.335938 165.074219 C 324.960938 164.636719 324.550781 164.230469 324.109375 163.863281 C 323.664062 163.492188 323.191406 163.164062 322.691406 162.875 C 322.1875 162.585938 321.667969 162.339844 321.125 162.140625 C 320.582031 161.9375 320.023438 161.785156 319.453125 161.679688 C 317.289062 161.0625 315.082031 160.808594 312.832031 160.917969 C 310.582031 161.023438 308.40625 161.488281 306.3125 162.304688 C 305.484375 162.542969 304.714844 162.898438 304.003906 163.382812 C 303.289062 163.863281 302.675781 164.445312 302.152344 165.125 C 301.632812 165.804688 301.230469 166.550781 300.953125 167.359375 C 300.675781 168.167969 300.53125 168.996094 300.527344 169.851562 C 300.496094 170.691406 300.609375 171.507812 300.867188 172.308594 C 301.121094 173.109375 301.507812 173.84375 302.019531 174.511719 C 302.53125 175.179688 303.140625 175.742188 303.847656 176.203125 C 304.558594 176.664062 305.324219 176.992188 306.148438 177.1875 L 320.390625 180.808594 C 321.929688 181.175781 323.445312 181.632812 324.933594 182.179688 C 329.472656 183.816406 332.558594 187.996094 332.695312 192.773438 C 332.730469 193.941406 332.585938 195.089844 332.269531 196.214844 C 331.953125 197.34375 331.476562 198.398438 330.839844 199.378906 C 330.199219 200.363281 329.429688 201.230469 328.523438 201.984375 C 327.621094 202.734375 326.625 203.339844 325.539062 203.792969 C 323.882812 204.535156 322.171875 205.101562 320.398438 205.492188 C 318.628906 205.882812 316.832031 206.085938 315.019531 206.105469 C 313.203125 206.121094 311.40625 205.953125 309.625 205.601562 C 307.847656 205.246094 306.121094 204.714844 304.453125 204.003906 C 303.773438 203.710938 303.117188 203.371094 302.488281 202.980469 C 301.859375 202.589844 301.261719 202.15625 300.699219 201.675781 C 300.136719 201.195312 299.617188 200.675781 299.132812 200.113281 C 298.652344 199.554688 298.214844 198.964844 297.820312 198.339844 C 297.429688 197.714844 297.089844 197.0625 296.796875 196.386719 C 296.507812 195.710938 296.269531 195.015625 296.085938 194.300781 C 295.898438 193.589844 295.769531 192.867188 295.695312 192.136719 C 295.625 191.402344 295.605469 190.667969 295.644531 189.933594 L 298.691406 189.933594 C 299.835938 195.402344 303.625 199.960938 308.824219 202.113281 C 314.027344 204.269531 319.964844 203.742188 324.691406 200.707031 C 325.402344 200.339844 326.046875 199.882812 326.621094 199.335938 C 327.199219 198.789062 327.6875 198.171875 328.085938 197.484375 C 328.484375 196.796875 328.777344 196.066406 328.964844 195.296875 C 329.152344 194.527344 329.230469 193.746094 329.191406 192.953125 C 329.226562 192.175781 329.136719 191.410156 328.917969 190.660156 C 328.703125 189.910156 328.371094 189.210938 327.925781 188.570312 C 327.476562 187.925781 326.941406 187.371094 326.3125 186.898438 C 325.683594 186.429688 324.992188 186.074219 324.246094 185.828125 C 320.589844 184.480469 316.703125 183.761719 312.980469 182.554688 C 309.078125 181.476562 305.273438 180.121094 301.574219 178.492188 C 295.714844 175.636719 295.246094 164.421875 301.925781 160.847656 C 303.683594 159.832031 305.546875 159.058594 307.511719 158.523438 C 309.472656 157.988281 311.472656 157.707031 313.511719 157.6875 C 315.546875 157.664062 317.550781 157.898438 319.527344 158.390625 C 321.5 158.882812 323.378906 159.617188 325.164062 160.589844 C 326.183594 161.195312 327.09375 161.929688 327.898438 162.792969 C 328.703125 163.660156 329.367188 164.621094 329.890625 165.679688 C 330.410156 166.738281 330.769531 167.847656 330.964844 169.007812 C 331.164062 170.167969 331.1875 171.332031 331.042969 172.5 Z M 127.015625 204.789062 C 126.402344 205.019531 125.769531 205.136719 125.113281 205.132812 C 124.457031 205.132812 123.824219 205.019531 123.210938 204.789062 C 122.597656 204.554688 122.046875 204.226562 121.554688 203.792969 C 121.066406 203.363281 120.667969 202.859375 120.363281 202.285156 L 108.25 185.683594 L 106.496094 183.367188 L 92.441406 202.308594 C 92.152344 202.859375 91.777344 203.34375 91.3125 203.757812 C 90.851562 204.171875 90.328125 204.492188 89.746094 204.71875 C 89.164062 204.945312 88.558594 205.0625 87.933594 205.074219 C 87.308594 205.082031 86.703125 204.980469 86.113281 204.769531 L 104.222656 180.695312 L 87.375 158.941406 C 89.875 158.046875 92.660156 159.019531 94.050781 161.261719 L 106.601562 178.066406 L 119.230469 161.328125 C 119.519531 160.785156 119.894531 160.3125 120.359375 159.910156 C 120.820312 159.503906 121.34375 159.195312 121.921875 158.980469 C 122.5 158.765625 123.101562 158.664062 123.71875 158.667969 C 124.335938 158.671875 124.933594 158.785156 125.507812 159.003906 L 118.980469 167.601562 L 110.125 179.023438 C 109.875 179.242188 109.683594 179.503906 109.546875 179.804688 C 109.410156 180.105469 109.339844 180.421875 109.339844 180.753906 C 109.339844 181.082031 109.410156 181.398438 109.546875 181.699219 C 109.683594 182 109.875 182.261719 110.125 182.480469 L 126.988281 204.789062 Z M 203.898438 158.710938 L 203.898438 161.984375 C 203.308594 161.945312 202.71875 161.9375 202.125 161.960938 C 201.535156 161.984375 200.945312 162.039062 200.359375 162.121094 C 199.773438 162.207031 199.195312 162.320312 198.621094 162.464844 C 198.046875 162.605469 197.480469 162.78125 196.925781 162.984375 C 196.371094 163.183594 195.828125 163.414062 195.296875 163.675781 C 194.765625 163.933594 194.25 164.21875 193.746094 164.53125 C 193.246094 164.84375 192.761719 165.179688 192.296875 165.542969 C 191.832031 165.90625 191.386719 166.289062 190.960938 166.699219 C 190.539062 167.109375 190.136719 167.539062 189.753906 167.988281 C 189.375 168.4375 189.019531 168.90625 188.691406 169.394531 C 188.359375 169.878906 188.058594 170.382812 187.78125 170.902344 C 187.503906 171.417969 187.253906 171.949219 187.03125 172.496094 C 186.8125 173.039062 186.621094 173.59375 186.457031 174.15625 C 186.292969 174.722656 186.164062 175.292969 186.058594 175.871094 C 185.957031 176.449219 185.886719 177.03125 185.84375 177.613281 C 185.804688 178.199219 185.792969 178.785156 185.816406 179.371094 C 185.816406 187.019531 185.816406 194.664062 185.816406 202.308594 L 185.816406 204.90625 L 182.464844 204.90625 L 182.464844 158.914062 L 185.769531 158.914062 L 185.769531 168.339844 C 189.820312 161.464844 196.074219 158.914062 203.921875 158.730469 Z M 42.765625 180.394531 L 44.238281 173.175781 C 48.292969 158.898438 64.808594 152.957031 76.171875 161.800781 C 82.824219 166.976562 84.484375 174.3125 84.160156 182.578125 L 46.675781 182.578125 C 46.070312 197.339844 56.820312 206.253906 70.570312 201.707031 C 75.101562 200.070312 78.511719 196.335938 79.632812 191.699219 C 80.359375 189.378906 81.5625 188.984375 83.757812 189.652344 C 83.574219 191.066406 83.234375 192.441406 82.734375 193.777344 C 82.238281 195.117188 81.59375 196.378906 80.808594 197.570312 C 80.019531 198.765625 79.109375 199.855469 78.074219 200.839844 C 77.035156 201.828125 75.902344 202.6875 74.667969 203.421875 C 73.65625 203.96875 72.605469 204.4375 71.519531 204.824219 C 70.433594 205.207031 69.324219 205.507812 68.1875 205.71875 C 67.054688 205.929688 65.910156 206.054688 64.757812 206.089844 C 63.605469 206.121094 62.453125 206.066406 61.308594 205.921875 C 60.164062 205.777344 59.039062 205.542969 57.929688 205.222656 C 56.824219 204.902344 55.746094 204.5 54.703125 204.011719 C 53.660156 203.523438 52.660156 202.957031 51.707031 202.3125 C 50.753906 201.667969 49.855469 200.957031 49.015625 200.171875 C 45.667969 196.445312 43.648438 191.730469 43.253906 186.75 C 43.253906 185.933594 42.980469 185.167969 42.785156 184.433594 C 42.769531 183.054688 42.757812 181.710938 42.757812 180.394531 Z M 46.722656 179.398438 L 80.621094 179.398438 C 80.40625 168.695312 73.589844 161.101562 64.503906 161.03125 C 54.382812 160.894531 47.144531 168.320312 46.699219 179.351562 Z M 46.722656 179.398438 "/>
</g>
</g>
</svg>
