<?xml version="1.0" encoding="UTF-8"?>
<svg xmlns="http://www.w3.org/2000/svg" xmlns:xlink="http://www.w3.org/1999/xlink" width="75pt" height="74.999997pt" viewBox="0 0 75 74.999997" version="1.2">
<defs>
<clipPath id="clip1">
  <path d="M 2.519531 26 L 72 26 L 72 41.355469 L 2.519531 41.355469 Z M 2.519531 26 "/>
</clipPath>
</defs>
<g id="surface1">
<g clip-path="url(#clip1)" clip-rule="nonzero">
<path style=" stroke:none;fill-rule:nonzero;fill:rgb(0%,0%,0%);fill-opacity:1;" d="M 24.246094 41.390625 L 24.246094 26.335938 L 25.058594 26.335938 L 25.058594 28.703125 C 25.15625 28.597656 25.246094 28.484375 25.328125 28.367188 C 26.007812 26.953125 27.441406 26.058594 29.011719 26.078125 C 30.871094 26.023438 32.378906 26.710938 33.269531 28.367188 C 33.839844 29.414062 34.144531 30.53125 34.175781 31.722656 C 34.207031 32.914062 33.964844 34.046875 33.445312 35.117188 C 32.617188 36.976562 30.574219 37.898438 28.390625 37.558594 C 27.699219 37.5 27.0625 37.28125 26.484375 36.898438 C 25.902344 36.515625 25.453125 36.015625 25.125 35.402344 L 25.125 41.390625 Z M 25.058594 31.660156 L 25.242188 33.429688 C 25.566406 35.441406 26.753906 36.628906 28.617188 36.851562 C 29.054688 36.925781 29.492188 36.921875 29.929688 36.839844 C 30.363281 36.761719 30.777344 36.609375 31.160156 36.386719 C 31.542969 36.164062 31.878906 35.882812 32.164062 35.546875 C 32.453125 35.207031 32.675781 34.828125 32.828125 34.414062 C 33.554688 32.679688 33.5 30.722656 32.6875 29.03125 C 32.519531 28.65625 32.296875 28.320312 32.023438 28.019531 C 31.746094 27.71875 31.429688 27.46875 31.074219 27.269531 C 30.714844 27.074219 30.335938 26.9375 29.9375 26.863281 C 29.535156 26.789062 29.132812 26.78125 28.730469 26.839844 C 28.351562 26.867188 27.984375 26.953125 27.632812 27.09375 C 27.277344 27.234375 26.957031 27.425781 26.664062 27.671875 C 26.371094 27.914062 26.121094 28.195312 25.914062 28.515625 C 25.710938 28.835938 25.558594 29.179688 25.460938 29.546875 C 25.285156 30.242188 25.152344 30.949219 25.058594 31.660156 Z M 50.820312 33.707031 C 50.757812 34.238281 50.605469 34.738281 50.363281 35.214844 C 50.117188 35.6875 49.796875 36.105469 49.402344 36.460938 C 49.007812 36.820312 48.5625 37.097656 48.066406 37.292969 C 47.570312 37.488281 47.058594 37.589844 46.523438 37.597656 C 43.105469 37.769531 41.5 35.496094 41.246094 32.871094 C 41.066406 31.417969 41.289062 30.027344 41.914062 28.703125 C 42.125 28.257812 42.402344 27.855469 42.742188 27.496094 C 43.082031 27.140625 43.472656 26.84375 43.90625 26.613281 C 44.339844 26.378906 44.800781 26.21875 45.285156 26.132812 C 45.769531 26.046875 46.257812 26.035156 46.746094 26.105469 C 47.210938 26.144531 47.65625 26.253906 48.085938 26.433594 C 48.515625 26.617188 48.910156 26.859375 49.261719 27.160156 C 49.617188 27.464844 49.914062 27.816406 50.15625 28.214844 C 50.402344 28.613281 50.578125 29.039062 50.6875 29.492188 C 50.859375 30.320312 50.988281 31.152344 51.070312 31.996094 L 42.089844 31.996094 C 41.925781 34.375 43.203125 36.285156 45.011719 36.75 C 47.265625 37.304688 49.191406 36.324219 49.890625 34.179688 C 50.042969 33.628906 50.328125 33.550781 50.828125 33.707031 Z M 42.085938 31.230469 L 50.117188 31.230469 C 50.066406 28.699219 48.488281 26.855469 46.351562 26.832031 C 43.941406 26.792969 42.191406 28.5625 42.085938 31.230469 Z M 52.480469 33.761719 L 53.269531 33.761719 C 53.296875 34.355469 53.480469 34.894531 53.8125 35.386719 C 54.144531 35.875 54.582031 36.242188 55.121094 36.488281 C 55.792969 36.789062 56.5 36.933594 57.238281 36.914062 C 57.976562 36.894531 58.671875 36.714844 59.328125 36.375 C 59.691406 36.210938 59.972656 35.960938 60.175781 35.621094 C 60.378906 35.277344 60.46875 34.910156 60.4375 34.511719 C 60.460938 34.128906 60.363281 33.777344 60.148438 33.460938 C 59.933594 33.140625 59.648438 32.917969 59.285156 32.792969 C 58.417969 32.472656 57.496094 32.292969 56.613281 32.011719 C 55.695312 31.75 54.800781 31.421875 53.929688 31.027344 C 52.507812 30.332031 52.417969 27.625 54.027344 26.765625 C 54.867188 26.292969 55.765625 26.050781 56.726562 26.035156 C 57.6875 26.019531 58.59375 26.234375 59.445312 26.683594 C 60.484375 27.257812 61.058594 28.417969 60.890625 29.597656 L 60.214844 29.597656 C 60.214844 29.5625 60.152344 29.535156 60.152344 29.503906 C 60.070312 27.347656 58.261719 26.671875 56.316406 26.863281 C 55.730469 26.925781 55.175781 27.105469 54.652344 27.367188 C 54.332031 27.515625 54.082031 27.742188 53.90625 28.046875 C 53.726562 28.351562 53.65625 28.683594 53.6875 29.035156 C 53.6875 29.386719 53.789062 29.707031 53.992188 29.996094 C 54.199219 30.285156 54.464844 30.484375 54.796875 30.601562 C 55.644531 30.914062 56.546875 31.113281 57.421875 31.359375 L 59.542969 31.914062 C 60.035156 32.078125 60.4375 32.363281 60.753906 32.777344 C 61.066406 33.191406 61.238281 33.660156 61.261719 34.179688 C 61.433594 35.316406 60.851562 36.4375 59.824219 36.957031 C 57.972656 38.007812 54.917969 37.730469 53.558594 36.402344 C 52.863281 35.703125 52.476562 34.75 52.484375 33.761719 Z M 71.25 29.597656 L 70.511719 29.597656 C 70.511719 29.496094 70.472656 29.402344 70.460938 29.324219 C 70.457031 29.046875 70.40625 28.78125 70.308594 28.519531 C 70.207031 28.261719 70.070312 28.027344 69.890625 27.8125 C 69.710938 27.601562 69.503906 27.425781 69.265625 27.289062 C 69.023438 27.148438 68.769531 27.050781 68.496094 27 C 67.441406 26.699219 66.40625 26.75 65.382812 27.152344 C 64.980469 27.265625 64.652344 27.492188 64.398438 27.828125 C 64.144531 28.160156 64.015625 28.539062 64.011719 28.957031 C 64 29.371094 64.117188 29.746094 64.367188 30.074219 C 64.617188 30.40625 64.941406 30.617188 65.34375 30.714844 L 68.71875 31.582031 C 69.085938 31.671875 69.445312 31.78125 69.796875 31.910156 C 70.871094 32.304688 71.601562 33.304688 71.636719 34.449219 C 71.652344 35.019531 71.503906 35.550781 71.195312 36.03125 C 70.886719 36.511719 70.464844 36.867188 69.9375 37.089844 C 69.148438 37.449219 68.316406 37.632812 67.445312 37.640625 C 66.578125 37.648438 65.742188 37.484375 64.945312 37.136719 C 64.617188 36.996094 64.324219 36.8125 64.054688 36.582031 C 63.785156 36.347656 63.558594 36.082031 63.371094 35.78125 C 63.1875 35.480469 63.046875 35.15625 62.960938 34.816406 C 62.871094 34.472656 62.839844 34.121094 62.855469 33.769531 L 63.578125 33.769531 C 63.847656 35.078125 64.746094 36.167969 65.980469 36.6875 C 67.210938 37.203125 68.617188 37.074219 69.738281 36.347656 C 70.082031 36.171875 70.351562 35.914062 70.542969 35.578125 C 70.734375 35.242188 70.824219 34.878906 70.804688 34.492188 C 70.820312 34.109375 70.722656 33.757812 70.503906 33.441406 C 70.289062 33.125 69.996094 32.90625 69.632812 32.785156 C 68.765625 32.460938 67.847656 32.289062 66.964844 32 C 66.039062 31.742188 65.136719 31.417969 64.261719 31.027344 C 62.875 30.34375 62.761719 27.660156 64.34375 26.800781 C 65.191406 26.308594 66.109375 26.054688 67.089844 26.042969 C 68.070312 26.035156 68.992188 26.265625 69.851562 26.742188 C 70.34375 27.035156 70.71875 27.441406 70.96875 27.960938 C 71.222656 28.476562 71.3125 29.019531 71.242188 29.59375 Z M 22.902344 37.328125 C 22.601562 37.441406 22.300781 37.441406 22 37.328125 C 21.699219 37.210938 21.476562 37.011719 21.328125 36.726562 L 18.457031 32.75 L 18.042969 32.195312 L 14.710938 36.734375 C 14.570312 37.003906 14.359375 37.199219 14.074219 37.308594 C 13.785156 37.421875 13.5 37.425781 13.210938 37.320312 L 17.503906 31.554688 L 13.511719 26.347656 C 14.101562 26.132812 14.761719 26.363281 15.09375 26.902344 L 18.066406 30.925781 L 21.058594 26.917969 C 21.199219 26.648438 21.414062 26.460938 21.695312 26.355469 C 21.980469 26.25 22.261719 26.25 22.546875 26.359375 L 21 28.417969 L 18.902344 31.15625 C 18.777344 31.265625 18.714844 31.402344 18.714844 31.570312 C 18.714844 31.734375 18.777344 31.875 18.902344 31.984375 L 22.898438 37.328125 Z M 41.121094 26.289062 L 41.121094 27.074219 C 40.839844 27.054688 40.558594 27.066406 40.28125 27.105469 C 40.003906 27.148438 39.730469 27.214844 39.46875 27.3125 C 39.203125 27.410156 38.953125 27.535156 38.714844 27.683594 C 38.476562 27.835938 38.253906 28.007812 38.054688 28.203125 C 37.851562 28.398438 37.671875 28.613281 37.515625 28.847656 C 37.359375 29.082031 37.226562 29.332031 37.121094 29.589844 C 37.019531 29.851562 36.941406 30.121094 36.890625 30.398438 C 36.84375 30.675781 36.824219 30.957031 36.835938 31.238281 C 36.835938 33.070312 36.835938 34.902344 36.835938 36.734375 L 36.835938 37.355469 L 36.039062 37.355469 L 36.039062 26.339844 L 36.824219 26.339844 L 36.824219 28.597656 C 37.785156 26.949219 39.265625 26.339844 41.125 26.292969 Z M 2.941406 31.484375 L 3.289062 29.753906 C 4.25 26.335938 8.164062 24.910156 10.855469 27.03125 C 12.433594 28.269531 12.824219 30.027344 12.75 32.007812 L 3.867188 32.007812 C 3.722656 35.542969 6.269531 37.679688 9.527344 36.589844 C 10.601562 36.195312 11.410156 35.300781 11.675781 34.191406 C 11.847656 33.636719 12.132812 33.539062 12.652344 33.703125 C 12.566406 34.386719 12.332031 35.019531 11.957031 35.597656 C 11.578125 36.175781 11.09375 36.644531 10.5 37 C 10.015625 37.261719 9.503906 37.445312 8.964844 37.550781 C 8.425781 37.652344 7.882812 37.667969 7.335938 37.597656 C 6.789062 37.527344 6.269531 37.375 5.769531 37.140625 C 5.273438 36.90625 4.824219 36.597656 4.421875 36.222656 C 3.628906 35.328125 3.152344 34.199219 3.058594 33.007812 C 3.058594 32.808594 2.992188 32.628906 2.945312 32.449219 C 2.941406 32.121094 2.941406 31.800781 2.941406 31.484375 Z M 3.878906 31.246094 L 11.910156 31.246094 C 11.859375 28.679688 10.246094 26.863281 8.089844 26.847656 C 5.695312 26.8125 3.980469 28.59375 3.875 31.234375 Z M 3.878906 31.246094 "/>
</g>
</g>
</svg>
