<?xml version="1.0" encoding="UTF-8"?>
<svg xmlns="http://www.w3.org/2000/svg" xmlns:xlink="http://www.w3.org/1999/xlink" width="75pt" height="74.999997pt" viewBox="0 0 75 74.999997" version="1.2">
<g id="surface1">
<path style=" stroke:none;fill-rule:nonzero;fill:rgb(87.059021%,29.798889%,21.179199%);fill-opacity:1;" d="M 73.140625 34.199219 L 40.796875 1.859375 C 38.9375 -0.00390625 35.917969 -0.00390625 34.054688 1.859375 L 27.335938 8.574219 L 35.855469 17.09375 C 37.835938 16.425781 40.105469 16.875 41.683594 18.453125 C 43.269531 20.042969 43.714844 22.332031 43.03125 24.316406 L 51.242188 32.527344 C 53.226562 31.84375 55.519531 32.285156 57.105469 33.875 C 59.324219 36.089844 59.324219 39.683594 57.105469 41.902344 C 54.886719 44.121094 51.296875 44.121094 49.078125 41.902344 C 47.40625 40.230469 46.996094 37.785156 47.839844 35.730469 L 40.183594 28.070312 L 40.183594 48.21875 C 40.722656 48.488281 41.234375 48.84375 41.683594 49.292969 C 43.902344 51.511719 43.902344 55.105469 41.683594 57.324219 C 39.46875 59.539062 35.871094 59.539062 33.65625 57.324219 C 31.441406 55.105469 31.441406 51.511719 33.65625 49.292969 C 34.203125 48.746094 34.839844 48.332031 35.515625 48.054688 L 35.515625 27.71875 C 34.839844 27.441406 34.207031 27.03125 33.65625 26.480469 C 31.976562 24.800781 31.574219 22.335938 32.433594 20.273438 L 24.035156 11.875 L 1.859375 34.050781 C -0.00390625 35.914062 -0.00390625 38.933594 1.859375 40.796875 L 34.203125 73.140625 C 36.066406 75 39.085938 75 40.949219 73.140625 L 73.140625 40.949219 C 75.003906 39.085938 75.003906 36.0625 73.140625 34.199219 "/>
</g>
</svg>
