<?xml version="1.0" encoding="UTF-8"?>
<svg xmlns="http://www.w3.org/2000/svg" xmlns:xlink="http://www.w3.org/1999/xlink" width="75pt" height="74.999997pt" viewBox="0 0 75 74.999997" version="1.2">
<g id="surface1">
<path style=" stroke:none;fill-rule:nonzero;fill:rgb(98.429871%,73.728943%,1.568604%);fill-opacity:1;" d="M 3.304688 51.785156 L 27.09375 11.210938 C 30.117188 12.984375 45.355469 21.382812 47.816406 22.984375 L 24.027344 63.5625 C 21.425781 66.984375 0.0078125 56.984375 3.304688 51.785156 L 3.304688 51.789062 Z M 3.304688 51.785156 "/>
<path style=" stroke:none;fill-rule:nonzero;fill:rgb(25.878906%,52.159119%,95.689392%);fill-opacity:1;" d="M 71.660156 51.785156 L 47.867188 11.214844 C 44.542969 5.699219 37.378906 3.695312 31.496094 6.953125 C 25.613281 10.207031 23.820312 17.222656 27.148438 22.984375 L 50.9375 63.558594 C 54.265625 69.074219 61.425781 71.074219 67.3125 67.816406 C 72.9375 64.5625 74.988281 57.300781 71.660156 51.789062 Z M 71.660156 51.785156 "/>
<path style=" stroke:none;fill-rule:nonzero;fill:rgb(20.388794%,65.879822%,32.548523%);fill-opacity:1;" d="M 25.542969 57.785156 C 25.542969 58.546875 25.464844 59.300781 25.3125 60.046875 C 25.160156 60.796875 24.933594 61.519531 24.632812 62.226562 C 24.332031 62.929688 23.964844 63.597656 23.527344 64.230469 C 23.09375 64.863281 22.597656 65.449219 22.042969 65.988281 C 21.488281 66.527344 20.886719 67.007812 20.234375 67.429688 C 19.582031 67.855469 18.894531 68.210938 18.167969 68.503906 C 17.445312 68.796875 16.699219 69.015625 15.929688 69.164062 C 15.160156 69.3125 14.382812 69.386719 13.597656 69.386719 C 12.816406 69.386719 12.039062 69.3125 11.269531 69.164062 C 10.5 69.015625 9.753906 68.796875 9.027344 68.503906 C 8.304688 68.210938 7.617188 67.855469 6.964844 67.429688 C 6.3125 67.007812 5.707031 66.527344 5.152344 65.988281 C 4.597656 65.449219 4.105469 64.863281 3.667969 64.230469 C 3.234375 63.597656 2.867188 62.929688 2.566406 62.226562 C 2.265625 61.519531 2.039062 60.796875 1.886719 60.046875 C 1.734375 59.300781 1.65625 58.546875 1.65625 57.785156 C 1.65625 57.023438 1.734375 56.269531 1.886719 55.523438 C 2.039062 54.773438 2.265625 54.050781 2.566406 53.34375 C 2.867188 52.640625 3.234375 51.972656 3.667969 51.339844 C 4.105469 50.707031 4.597656 50.121094 5.152344 49.582031 C 5.707031 49.042969 6.3125 48.5625 6.964844 48.140625 C 7.617188 47.714844 8.304688 47.359375 9.027344 47.066406 C 9.753906 46.773438 10.5 46.554688 11.269531 46.40625 C 12.039062 46.257812 12.816406 46.183594 13.597656 46.183594 C 14.382812 46.183594 15.160156 46.257812 15.929688 46.40625 C 16.699219 46.554688 17.445312 46.773438 18.167969 47.066406 C 18.894531 47.359375 19.582031 47.714844 20.234375 48.140625 C 20.886719 48.5625 21.488281 49.042969 22.042969 49.582031 C 22.597656 50.121094 23.09375 50.707031 23.527344 51.339844 C 23.964844 51.972656 24.332031 52.640625 24.632812 53.34375 C 24.933594 54.050781 25.160156 54.773438 25.3125 55.523438 C 25.464844 56.269531 25.542969 57.023438 25.542969 57.785156 Z M 25.542969 57.785156 "/>
</g>
</svg>
