<?xml version="1.0" encoding="UTF-8"?>
<svg xmlns="http://www.w3.org/2000/svg" xmlns:xlink="http://www.w3.org/1999/xlink" width="75pt" height="74.999997pt" viewBox="0 0 75 74.999997" version="1.2">
<defs>
<clipPath id="clip1">
  <path d="M 27 4.863281 L 64.914062 4.863281 L 64.914062 70.089844 L 27 70.089844 Z M 27 4.863281 "/>
</clipPath>
<clipPath id="clip2">
  <path d="M 9.636719 4.863281 L 37 4.863281 L 37 70.089844 L 9.636719 70.089844 Z M 9.636719 4.863281 "/>
</clipPath>
</defs>
<g id="surface1">
<g clip-path="url(#clip1)" clip-rule="nonzero">
<path style=" stroke:none;fill-rule:nonzero;fill:rgb(33.729553%,30.198669%,50.19989%);fill-opacity:1;" d="M 57.320312 4.863281 L 36.863281 4.863281 L 27.378906 37.476562 L 36.863281 70.089844 L 57.320312 70.089844 C 61.503906 70.089844 64.910156 66.660156 64.910156 62.445312 L 64.910156 12.503906 C 64.910156 8.289062 61.503906 4.863281 57.320312 4.863281 Z M 57.320312 4.863281 "/>
</g>
<g clip-path="url(#clip2)" clip-rule="nonzero">
<path style=" stroke:none;fill-rule:nonzero;fill:rgb(50.19989%,38.42926%,65.489197%);fill-opacity:1;" d="M 17.230469 4.863281 C 13.042969 4.863281 9.640625 8.289062 9.640625 12.503906 L 9.640625 62.445312 C 9.640625 66.660156 13.042969 70.089844 17.230469 70.089844 L 36.863281 70.089844 L 36.863281 4.863281 Z M 17.230469 4.863281 "/>
</g>
<path style=" stroke:none;fill-rule:nonzero;fill:rgb(93.728638%,96.469116%,97.648621%);fill-opacity:1;" d="M 48.910156 32.023438 C 46.660156 30.105469 43.613281 29.300781 40.546875 29.8125 L 36.863281 30.433594 L 33.070312 34.359375 L 36.863281 38.179688 L 41.796875 37.351562 C 42.667969 37.207031 43.453125 37.386719 44.003906 37.855469 C 44.558594 38.328125 44.863281 39.078125 44.863281 39.96875 L 44.863281 62.445312 L 52.449219 62.445312 L 52.449219 39.96875 C 52.449219 36.839844 51.160156 33.945312 48.910156 32.023438 Z M 48.910156 32.023438 "/>
<path style=" stroke:none;fill-rule:nonzero;fill:rgb(100%,100%,100%);fill-opacity:1;" d="M 29.6875 31.636719 L 29.6875 12.503906 L 22.097656 12.503906 L 22.097656 40.660156 L 36.863281 38.179688 L 36.863281 30.433594 Z M 29.6875 31.636719 "/>
<path style=" stroke:none;fill-rule:nonzero;fill:rgb(100%,100%,100%);fill-opacity:1;" d="M 22.097656 49.324219 L 29.6875 55.054688 L 22.097656 60.789062 Z M 22.097656 49.324219 "/>
<path style=" stroke:none;fill-rule:nonzero;fill:rgb(93.728638%,96.469116%,97.648621%);fill-opacity:1;" d="M 51.585938 20.257812 C 52.15625 17.746094 52.449219 15.148438 52.449219 12.503906 L 44.863281 12.503906 C 44.863281 15.199219 44.464844 17.800781 43.726562 20.257812 Z M 51.585938 20.257812 "/>
</g>
</svg>
