<?xml version="1.0" encoding="UTF-8"?>
<svg xmlns="http://www.w3.org/2000/svg" xmlns:xlink="http://www.w3.org/1999/xlink" width="375pt" height="374.999991pt" viewBox="0 0 375 374.999991" version="1.2">
<defs>
<clipPath id="clip1">
  <path d="M 147 56.578125 L 299.175781 56.578125 L 299.175781 318.234375 L 147 318.234375 Z M 147 56.578125 "/>
</clipPath>
<clipPath id="clip2">
  <path d="M 75.722656 56.578125 L 186 56.578125 L 186 318.234375 L 75.722656 318.234375 Z M 75.722656 56.578125 "/>
</clipPath>
</defs>
<g id="surface1">
<g clip-path="url(#clip1)" clip-rule="nonzero">
<path style=" stroke:none;fill-rule:nonzero;fill:rgb(33.729553%,30.198669%,50.19989%);fill-opacity:1;" d="M 268.476562 56.574219 L 185.789062 56.574219 L 147.449219 187.40625 L 185.789062 318.234375 L 268.476562 318.234375 C 285.386719 318.234375 299.148438 304.476562 299.148438 287.574219 L 299.148438 87.238281 C 299.148438 70.332031 285.386719 56.574219 268.476562 56.574219 Z M 268.476562 56.574219 "/>
</g>
<g clip-path="url(#clip2)" clip-rule="nonzero">
<path style=" stroke:none;fill-rule:nonzero;fill:rgb(50.19989%,38.42926%,65.489197%);fill-opacity:1;" d="M 106.425781 56.574219 C 89.511719 56.574219 75.753906 70.332031 75.753906 87.238281 L 75.753906 287.574219 C 75.753906 304.476562 89.511719 318.234375 106.425781 318.234375 L 185.789062 318.234375 L 185.789062 56.574219 Z M 106.425781 56.574219 "/>
</g>
<path style=" stroke:none;fill-rule:nonzero;fill:rgb(93.728638%,96.469116%,97.648621%);fill-opacity:1;" d="M 234.484375 165.539062 C 225.390625 157.84375 213.070312 154.605469 200.683594 156.667969 L 185.789062 159.148438 L 170.453125 174.90625 L 185.789062 190.238281 L 205.726562 186.914062 C 209.25 186.328125 212.425781 187.046875 214.660156 188.9375 C 216.894531 190.828125 218.125 193.839844 218.125 197.414062 L 218.125 287.574219 L 248.796875 287.574219 L 248.796875 197.414062 C 248.796875 184.859375 243.578125 173.242188 234.484375 165.539062 Z M 234.484375 165.539062 "/>
<path style=" stroke:none;fill-rule:nonzero;fill:rgb(100%,100%,100%);fill-opacity:1;" d="M 156.78125 163.984375 L 156.78125 87.238281 L 126.109375 87.238281 L 126.109375 200.179688 L 185.789062 190.238281 L 185.789062 159.148438 Z M 156.78125 163.984375 "/>
<path style=" stroke:none;fill-rule:nonzero;fill:rgb(100%,100%,100%);fill-opacity:1;" d="M 126.109375 234.929688 L 156.78125 257.929688 L 126.109375 280.925781 Z M 126.109375 234.929688 "/>
<path style=" stroke:none;fill-rule:nonzero;fill:rgb(93.728638%,96.469116%,97.648621%);fill-opacity:1;" d="M 245.296875 118.339844 C 247.601562 108.253906 248.796875 97.839844 248.796875 87.238281 L 218.125 87.238281 C 218.125 98.046875 216.511719 108.488281 213.539062 118.339844 Z M 245.296875 118.339844 "/>
</g>
</svg>
