<?xml version="1.0" encoding="UTF-8"?>
<svg xmlns="http://www.w3.org/2000/svg" xmlns:xlink="http://www.w3.org/1999/xlink" width="75pt" height="74.999997pt" viewBox="0 0 75 74.999997" version="1.2">
<defs>
<clipPath id="clip1">
  <path d="M 3.9375 0 L 71.4375 0 L 71.4375 75 L 3.9375 75 Z M 3.9375 0 "/>
</clipPath>
</defs>
<g id="surface1">
<g clip-path="url(#clip1)" clip-rule="nonzero">
<path style=" stroke:none;fill-rule:nonzero;fill:rgb(0.779724%,46.669006%,74.119568%);fill-opacity:1;" d="M 71.804688 0 L 3.949219 0 L 9.933594 67.105469 L 37.875 75 L 65.816406 67.105469 Z M 71.804688 0 "/>
</g>
<path style=" stroke:none;fill-rule:nonzero;fill:rgb(1.179504%,60.778809%,89.7995%);fill-opacity:1;" d="M 37.875 5.921875 L 37.875 68.882812 L 60.230469 62.566406 L 65.21875 5.921875 Z M 37.875 5.921875 "/>
<path style=" stroke:none;fill-rule:nonzero;fill:rgb(100%,100%,100%);fill-opacity:1;" d="M 56.039062 15.789062 L 37.875 15.789062 L 37.875 23.683594 L 47.65625 23.683594 L 47.058594 31.578125 L 37.875 31.578125 L 37.875 39.472656 L 46.65625 39.472656 L 46.058594 48.355469 L 37.875 51.117188 L 37.875 59.40625 L 53.644531 54.277344 L 55.039062 31.578125 Z M 56.039062 15.789062 "/>
<path style=" stroke:none;fill-rule:nonzero;fill:rgb(93.328857%,93.328857%,93.328857%);fill-opacity:1;" d="M 37.875 15.789062 L 37.875 23.683594 L 20.113281 23.683594 L 19.515625 15.789062 Z M 28.695312 31.578125 L 29.09375 39.472656 L 37.875 39.472656 L 37.875 31.578125 Z M 29.492188 43.421875 L 21.511719 43.421875 L 22.109375 54.277344 L 37.875 59.40625 L 37.875 51.117188 L 29.691406 48.355469 Z M 29.492188 43.421875 "/>
</g>
</svg>
