<?xml version="1.0" encoding="UTF-8"?>
<svg xmlns="http://www.w3.org/2000/svg" xmlns:xlink="http://www.w3.org/1999/xlink" width="75pt" height="74.999997pt" viewBox="0 0 75 74.999997" version="1.2">
<g id="surface1">
<rect x="0" y="0" width="75" height="74.999997" style="fill:rgb(100%,83.918762%,0%);fill-opacity:1;stroke:none;"/>
<path style=" stroke:none;fill-rule:nonzero;fill:rgb(0%,0%,0.389099%);fill-opacity:1;" d="M 49.039062 56.140625 C 50.480469 58.480469 52.046875 60.726562 55.363281 60.726562 C 58.152344 60.726562 59.613281 59.339844 59.613281 57.421875 C 59.613281 55.128906 58.101562 54.316406 55.035156 52.980469 L 53.355469 52.261719 C 48.503906 50.203125 45.273438 47.625 45.273438 42.175781 C 45.273438 37.15625 49.117188 33.335938 55.125 33.335938 C 59.402344 33.335938 62.476562 34.816406 64.691406 38.695312 L 59.453125 42.042969 C 58.300781 39.984375 57.054688 39.175781 55.125 39.175781 C 53.152344 39.175781 51.90625 40.417969 51.90625 42.042969 C 51.90625 44.050781 53.15625 44.863281 56.042969 46.109375 L 57.722656 46.824219 C 63.441406 49.261719 66.667969 51.746094 66.667969 57.339844 C 66.667969 63.363281 61.910156 66.667969 55.519531 66.667969 C 49.273438 66.667969 45.726562 63.53125 43.75 59.648438 Z M 24.898438 56.308594 C 25.953125 58.199219 27.554688 59.648438 29.859375 59.648438 C 32.066406 59.648438 33.332031 58.777344 33.332031 55.394531 L 33.332031 33.332031 L 40.277344 33.332031 L 40.277344 56.460938 C 40.277344 63.476562 36.207031 66.667969 30.265625 66.667969 C 24.898438 66.667969 21.023438 63.027344 19.445312 59.648438 Z M 24.898438 56.308594 "/>
</g>
</svg>
