<?xml version="1.0" encoding="UTF-8"?>
<svg xmlns="http://www.w3.org/2000/svg" xmlns:xlink="http://www.w3.org/1999/xlink" width="375pt" height="374.999991pt" viewBox="0 0 375 374.999991" version="1.2">
<defs>
<clipPath id="clip1">
  <path d="M 56.679688 56.675781 L 318.429688 56.675781 L 318.429688 318.425781 L 56.679688 318.425781 Z M 56.679688 56.675781 "/>
</clipPath>
</defs>
<g id="surface1">
<g clip-path="url(#clip1)" clip-rule="nonzero">
<path style=" stroke:none;fill-rule:nonzero;fill:rgb(100%,83.918762%,0%);fill-opacity:1;" d="M 56.679688 56.675781 L 318.546875 56.675781 L 318.546875 318.542969 L 56.679688 318.542969 Z M 56.679688 56.675781 "/>
</g>
<path style=" stroke:none;fill-rule:nonzero;fill:rgb(0%,0%,0.389099%);fill-opacity:1;" d="M 227.894531 252.691406 C 232.929688 260.867188 238.398438 268.703125 249.988281 268.703125 C 259.71875 268.703125 264.824219 263.867188 264.824219 257.171875 C 264.824219 249.164062 259.542969 246.320312 248.835938 241.65625 L 242.96875 239.15625 C 226.027344 231.96875 214.757812 222.964844 214.757812 203.941406 C 214.757812 186.410156 228.179688 173.070312 249.148438 173.070312 C 264.082031 173.070312 274.8125 178.242188 282.554688 191.785156 L 264.265625 203.476562 C 260.242188 196.289062 255.894531 193.460938 249.148438 193.460938 C 242.269531 193.460938 237.910156 197.800781 237.910156 203.476562 C 237.910156 210.488281 242.277344 213.324219 252.351562 217.667969 L 258.222656 220.171875 C 278.1875 228.671875 289.449219 237.359375 289.449219 256.882812 C 289.449219 277.917969 272.835938 289.449219 250.53125 289.449219 C 228.71875 289.449219 216.328125 278.5 209.433594 264.949219 Z M 143.617188 253.289062 C 147.296875 259.878906 152.890625 264.949219 160.9375 264.949219 C 168.632812 264.949219 173.0625 261.910156 173.0625 250.089844 L 173.0625 173.0625 L 197.308594 173.0625 L 197.308594 253.8125 C 197.308594 278.304688 183.101562 289.449219 162.355469 289.449219 C 143.609375 289.449219 130.082031 276.746094 124.566406 264.949219 Z M 143.617188 253.289062 "/>
</g>
</svg>
