<?xml version="1.0" encoding="UTF-8"?>
<svg xmlns="http://www.w3.org/2000/svg" xmlns:xlink="http://www.w3.org/1999/xlink" width="75pt" height="74.999997pt" viewBox="0 0 75 74.999997" version="1.2">
<defs>
<clipPath id="clip1">
  <path d="M 3.703125 0 L 71.109375 0 L 71.109375 75 L 3.703125 75 Z M 3.703125 0 "/>
</clipPath>
</defs>
<g id="surface1">
<g clip-path="url(#clip1)" clip-rule="nonzero">
<path style=" stroke:none;fill-rule:nonzero;fill:rgb(36.468506%,25.099182%,21.569824%);fill-opacity:1;" d="M 71.0625 24.9375 C 71.0625 63.375 37.40625 75 37.40625 75 C 37.40625 75 3.75 63.375 3.75 24.9375 C 3.75 20.25 4.125 16.3125 4.496094 13.125 C 5.058594 8.4375 8.238281 4.6875 12.726562 3.5625 C 18.519531 1.875 27.683594 0 37.40625 0 C 47.128906 0 56.292969 1.875 62.273438 3.5625 C 66.761719 4.6875 69.941406 8.625 70.5 13.125 C 70.6875 16.3125 71.0625 20.4375 71.0625 24.9375 Z M 71.0625 24.9375 "/>
<path style=" stroke:none;fill-rule:nonzero;fill:rgb(29.798889%,68.629456%,31.369019%);fill-opacity:1;" d="M 37.40625 5.625 C 46.566406 5.625 55.167969 7.5 60.777344 9 C 63.023438 9.5625 64.519531 11.4375 64.890625 13.875 C 65.265625 17.4375 65.453125 21.1875 65.453125 24.9375 C 65.453125 54.1875 43.949219 66 37.40625 68.8125 C 30.863281 65.8125 9.359375 54 9.359375 24.9375 C 9.359375 21.1875 9.546875 17.4375 9.921875 13.875 C 10.105469 11.4375 11.789062 9.5625 14.035156 9 C 19.644531 7.5 28.246094 5.625 37.40625 5.625 M 37.40625 0 C 27.683594 0 18.519531 1.875 12.539062 3.5625 C 8.238281 4.6875 4.871094 8.625 4.496094 13.125 C 4.125 16.3125 3.75 20.4375 3.75 24.9375 C 3.75 63.375 37.40625 75 37.40625 75 C 37.40625 75 71.0625 63.375 71.0625 24.9375 C 71.0625 20.25 70.6875 16.3125 70.316406 13.125 C 69.753906 8.4375 66.574219 4.6875 62.085938 3.5625 C 56.292969 1.875 47.128906 0 37.40625 0 Z M 37.40625 0 "/>
</g>
<path style=" stroke:none;fill-rule:nonzero;fill:rgb(86.268616%,92.939758%,78.42865%);fill-opacity:1;" d="M 35.535156 45 L 39.277344 45 L 39.277344 60 L 35.535156 60 Z M 35.535156 45 "/>
<path style=" stroke:none;fill-rule:nonzero;fill:rgb(29.798889%,68.629456%,31.369019%);fill-opacity:1;" d="M 37.40625 11.25 C 37.40625 11.25 26.1875 20.625 26.1875 35.625 C 26.1875 45.375 32.359375 51.5625 35.535156 54.375 L 37.40625 48.75 L 39.277344 54.375 C 42.453125 51.5625 48.625 45.375 48.625 35.625 C 48.625 20.625 37.40625 11.25 37.40625 11.25 Z M 37.40625 11.25 "/>
<path style=" stroke:none;fill-rule:nonzero;fill:rgb(50.588989%,78.039551%,51.759338%);fill-opacity:1;" d="M 37.40625 11.25 C 37.40625 11.25 26.1875 20.625 26.1875 35.625 C 26.1875 45.375 32.359375 51.5625 35.535156 54.375 L 37.40625 48.75 Z M 37.40625 11.25 "/>
</g>
</svg>
