<?xml version="1.0" encoding="UTF-8"?>
<svg xmlns="http://www.w3.org/2000/svg" xmlns:xlink="http://www.w3.org/1999/xlink" width="75pt" height="74.999997pt" viewBox="0 0 75 74.999997" version="1.2">
<defs>
<clipPath id="clip1">
  <path d="M 20 26 L 65 26 L 65 43.304688 L 20 43.304688 Z M 20 26 "/>
</clipPath>
<clipPath id="clip2">
  <path d="M 38 16.304688 L 55 16.304688 L 55 43.304688 L 38 43.304688 Z M 38 16.304688 "/>
</clipPath>
<clipPath id="clip3">
  <path d="M 20 26 L 36 26 L 36 43.304688 L 20 43.304688 Z M 20 26 "/>
</clipPath>
<clipPath id="clip4">
  <path d="M 3.308594 26 L 71.433594 26 L 71.433594 43.304688 L 3.308594 43.304688 Z M 3.308594 26 "/>
</clipPath>
</defs>
<g id="surface1">
<g clip-path="url(#clip1)" clip-rule="nonzero">
<path style=" stroke:none;fill-rule:nonzero;fill:rgb(21.958923%,55.688477%,23.529053%);fill-opacity:1;" d="M 27.800781 26.371094 L 20.890625 30.207031 C 20.628906 30.351562 20.472656 30.617188 20.472656 30.902344 L 20.472656 38.585938 C 20.472656 38.871094 20.628906 39.136719 20.890625 39.28125 L 27.800781 43.121094 C 28.058594 43.261719 28.378906 43.261719 28.636719 43.121094 L 35.546875 39.28125 C 35.804688 39.136719 35.960938 38.871094 35.960938 38.585938 L 35.960938 30.902344 C 35.960938 30.617188 35.804688 30.351562 35.542969 30.207031 L 28.636719 26.371094 C 28.507812 26.296875 28.359375 26.261719 28.21875 26.261719 C 28.070312 26.261719 27.929688 26.296875 27.800781 26.371094 M 63.355469 33.285156 L 62.203125 33.921875 C 62.160156 33.949219 62.132812 33.992188 62.132812 34.039062 L 62.132812 35.320312 C 62.132812 35.367188 62.160156 35.410156 62.203125 35.4375 L 63.355469 36.078125 C 63.398438 36.101562 63.453125 36.101562 63.496094 36.078125 L 64.648438 35.4375 C 64.6875 35.410156 64.714844 35.367188 64.714844 35.320312 L 64.714844 34.039062 C 64.714844 33.992188 64.6875 33.949219 64.644531 33.921875 L 63.492188 33.285156 C 63.472656 33.273438 63.449219 33.265625 63.425781 33.265625 C 63.402344 33.265625 63.375 33.273438 63.355469 33.285156 "/>
</g>
<g clip-path="url(#clip2)" clip-rule="nonzero">
<path style=" stroke:none;fill-rule:nonzero;fill:rgb(21.569824%,27.839661%,30.979919%);fill-opacity:1;" d="M 53.921875 18.230469 L 50.554688 16.347656 C 50.449219 16.289062 50.320312 16.289062 50.214844 16.351562 C 50.113281 16.414062 50.046875 16.523438 50.046875 16.644531 L 50.046875 28.027344 L 46.941406 26.304688 C 46.8125 26.234375 46.667969 26.199219 46.523438 26.199219 C 46.382812 26.199219 46.234375 26.234375 46.105469 26.304688 L 46.109375 26.304688 L 39.199219 30.144531 C 38.9375 30.285156 38.78125 30.550781 38.78125 30.835938 L 38.78125 38.519531 C 38.78125 38.804688 38.9375 39.070312 39.199219 39.214844 L 46.109375 43.054688 C 46.367188 43.195312 46.6875 43.195312 46.945312 43.054688 L 53.855469 39.214844 C 54.113281 39.070312 54.269531 38.804688 54.269531 38.519531 L 54.269531 18.832031 C 54.269531 18.582031 54.136719 18.351562 53.921875 18.230469 Z M 49.855469 36.742188 L 46.714844 38.488281 C 46.601562 38.550781 46.453125 38.550781 46.335938 38.488281 L 43.195312 36.742188 C 43.074219 36.675781 43.003906 36.554688 43.003906 36.425781 L 43.003906 32.933594 C 43.003906 32.800781 43.074219 32.683594 43.195312 32.617188 L 46.335938 30.871094 C 46.394531 30.839844 46.457031 30.824219 46.523438 30.824219 C 46.589844 30.824219 46.65625 30.839844 46.714844 30.871094 L 49.855469 32.617188 C 49.972656 32.683594 50.046875 32.804688 50.046875 32.933594 L 50.046875 36.425781 C 50.046875 36.554688 49.972656 36.675781 49.855469 36.742188 Z M 49.855469 36.742188 "/>
</g>
<g clip-path="url(#clip3)" clip-rule="nonzero">
<path style=" stroke:none;fill-rule:nonzero;fill:rgb(18.03894%,49.01886%,19.60907%);fill-opacity:1;" d="M 27.800781 26.371094 L 20.472656 38.585938 C 20.472656 38.871094 20.628906 39.136719 20.890625 39.28125 L 27.800781 43.121094 C 28.058594 43.261719 28.378906 43.261719 28.636719 43.121094 L 35.960938 30.902344 C 35.960938 30.617188 35.804688 30.351562 35.542969 30.207031 L 28.636719 26.371094 C 28.507812 26.296875 28.359375 26.261719 28.21875 26.261719 C 28.070312 26.261719 27.929688 26.296875 27.800781 26.371094 "/>
<path style=" stroke:none;fill-rule:nonzero;fill:rgb(29.798889%,68.629456%,31.369019%);fill-opacity:1;" d="M 27.800781 26.371094 L 20.890625 30.207031 C 20.628906 30.351562 20.472656 30.617188 20.472656 30.902344 L 27.800781 43.121094 C 28.058594 43.261719 28.378906 43.261719 28.636719 43.121094 L 35.546875 39.28125 C 35.804688 39.136719 35.960938 38.871094 35.960938 38.585938 L 28.636719 26.371094 C 28.507812 26.296875 28.359375 26.261719 28.21875 26.261719 C 28.070312 26.261719 27.929688 26.296875 27.800781 26.371094 "/>
</g>
<g clip-path="url(#clip4)" clip-rule="nonzero">
<path style=" stroke:none;fill-rule:nonzero;fill:rgb(21.569824%,27.839661%,30.979919%);fill-opacity:1;" d="M 70.75 30.144531 L 63.84375 26.304688 C 63.714844 26.234375 63.566406 26.199219 63.425781 26.199219 C 63.28125 26.199219 63.136719 26.234375 63.007812 26.304688 L 56.097656 30.144531 C 55.839844 30.285156 55.679688 30.558594 55.679688 30.855469 L 55.679688 38.503906 C 55.679688 38.800781 55.839844 39.070312 56.097656 39.214844 L 63.007812 43.054688 C 63.269531 43.199219 63.585938 43.199219 63.84375 43.054688 L 67.03125 41.285156 C 67.324219 41.121094 67.320312 40.703125 67.027344 40.539062 L 60.09375 36.742188 C 59.976562 36.675781 59.902344 36.554688 59.902344 36.417969 L 59.902344 32.933594 C 59.902344 32.804688 59.972656 32.683594 60.085938 32.621094 L 63.234375 30.875 C 63.292969 30.839844 63.355469 30.828125 63.421875 30.828125 C 63.488281 30.828125 63.554688 30.84375 63.613281 30.875 L 66.761719 32.621094 C 66.875 32.683594 66.945312 32.804688 66.945312 32.933594 L 66.945312 35.78125 C 66.945312 35.902344 67.007812 36.015625 67.113281 36.074219 C 67.21875 36.132812 67.347656 36.132812 67.453125 36.074219 L 70.832031 34.105469 C 71.039062 33.984375 71.171875 33.757812 71.171875 33.515625 L 71.171875 30.855469 C 71.171875 30.558594 71.007812 30.285156 70.75 30.144531 Z M 18.644531 30.144531 L 11.734375 26.304688 C 11.605469 26.234375 11.460938 26.199219 11.316406 26.199219 C 11.175781 26.199219 11.027344 26.234375 10.898438 26.304688 L 10.902344 26.304688 L 3.992188 30.144531 C 3.734375 30.285156 3.570312 30.558594 3.570312 30.855469 L 3.570312 41.40625 C 3.570312 41.527344 3.636719 41.640625 3.742188 41.703125 C 3.847656 41.761719 3.976562 41.761719 4.082031 41.699219 L 7.460938 39.730469 C 7.667969 39.609375 7.796875 39.386719 7.796875 39.140625 L 7.796875 32.933594 C 7.796875 32.800781 7.867188 32.683594 7.980469 32.621094 L 11.128906 30.871094 C 11.1875 30.839844 11.25 30.824219 11.316406 30.824219 C 11.382812 30.824219 11.449219 30.839844 11.507812 30.871094 L 14.65625 32.621094 C 14.769531 32.683594 14.839844 32.804688 14.839844 32.933594 L 14.839844 39.144531 C 14.839844 39.386719 14.964844 39.613281 15.175781 39.734375 L 18.554688 41.703125 C 18.660156 41.761719 18.789062 41.761719 18.894531 41.703125 C 19 41.640625 19.0625 41.527344 19.0625 41.40625 L 19.0625 30.855469 C 19.0625 30.558594 18.902344 30.285156 18.644531 30.144531 Z M 18.644531 30.144531 "/>
</g>
</g>
</svg>
