<?xml version="1.0" encoding="UTF-8"?>
<svg xmlns="http://www.w3.org/2000/svg" xmlns:xlink="http://www.w3.org/1999/xlink" width="375pt" height="374.999991pt" viewBox="0 0 375 374.999991" version="1.2">
<defs>
<clipPath id="clip1">
  <path d="M 60.566406 290 L 105 290 L 105 314 L 60.566406 314 Z M 60.566406 290 "/>
</clipPath>
<clipPath id="clip2">
  <path d="M 79 218 L 170 218 L 170 318.515625 L 79 318.515625 Z M 79 218 "/>
</clipPath>
</defs>
<g id="surface1">
<g clip-path="url(#clip1)" clip-rule="nonzero">
<path style=" stroke:none;fill-rule:nonzero;fill:rgb(94.509888%,35.289001%,14.118958%);fill-opacity:1;" d="M 104.8125 311.753906 L 60.566406 313.292969 L 83.246094 290.113281 Z M 104.8125 311.753906 "/>
</g>
<path style=" stroke:none;fill-rule:nonzero;fill:rgb(94.509888%,35.289001%,14.118958%);fill-opacity:1;" d="M 305.507812 196.800781 C 297.289062 261.210938 238.667969 306.726562 174.578125 298.449219 C 110.492188 290.191406 65.214844 231.273438 73.429688 166.863281 C 81.65625 102.453125 140.269531 56.9375 204.367188 65.207031 C 268.453125 73.46875 313.742188 132.394531 305.507812 196.800781 "/>
<path style=" stroke:none;fill-rule:nonzero;fill:rgb(59.999084%,59.999084%,59.999084%);fill-opacity:1;" d="M 219.300781 148.40625 C 226.988281 156.621094 219.40625 176.039062 219.40625 176.039062 C 219.40625 176.039062 211.902344 203.492188 168.96875 239.097656 L 160.945312 231.195312 L 215.460938 175.207031 L 216.507812 173.777344 C 217.960938 171.398438 219.15625 148.246094 219.300781 148.40625 "/>
<path style="fill:none;stroke-width:1.918;stroke-linecap:round;stroke-linejoin:round;stroke:rgb(100%,100%,100%);stroke-opacity:1;stroke-miterlimit:4;" d="M 164.98114 87.531805 C 172.971199 96.027258 165.09076 116.108521 165.09076 116.108521 C 165.09076 116.108521 157.291521 144.49941 112.66818 181.321118 L 104.328962 173.14884 L 160.990171 115.248068 L 162.078248 113.769544 C 163.588564 111.309377 164.830921 87.366178 164.98114 87.531805 Z M 164.98114 87.531805 " transform="matrix(0.962133,0,0,0.96697,60.566965,63.765663)"/>
<path style="fill-rule:nonzero;fill:rgb(39.99939%,39.99939%,39.99939%);fill-opacity:1;stroke-width:1.201;stroke-linecap:round;stroke-linejoin:round;stroke:rgb(100%,100%,100%);stroke-opacity:1;stroke-miterlimit:4;" d="M 92.100274 161.110586 L 164.859341 87.321742 C 168.557991 91.708837 169.341569 96.431226 168.269732 103.169417 C 167.551113 107.831211 159.492035 117.150759 159.492035 117.150759 L 104.328962 173.14884 " transform="matrix(0.962133,0,0,0.96697,60.566965,63.765663)"/>
<path style=" stroke:none;fill-rule:nonzero;fill:rgb(100%,57.649231%,11.759949%);fill-opacity:1;" d="M 219.300781 148.457031 L 149.179688 219.554688 L 149.320312 219.417969 L 149.292969 219.429688 L 131.894531 202.195312 C 168.171875 156.839844 191.628906 148.386719 191.628906 148.386719 C 191.628906 148.386719 206.90625 142.394531 217.796875 147.042969 C 218.636719 147.492188 219 147.753906 219.300781 148.457031 "/>
<path style="fill:none;stroke-width:1.918;stroke-linecap:round;stroke-linejoin:round;stroke:rgb(100%,100%,100%);stroke-opacity:1;stroke-miterlimit:4;" d="M 164.98114 87.584321 L 92.100274 161.110586 L 92.246434 160.969197 L 92.218014 160.981316 L 74.134822 143.158236 C 111.839942 96.25348 136.220177 87.511607 136.220177 87.511607 C 136.220177 87.511607 152.098795 81.314734 163.418044 86.121956 C 164.290942 86.586519 164.668521 86.857178 164.98114 87.584321 Z M 164.98114 87.584321 " transform="matrix(0.962133,0,0,0.96697,60.566965,63.765663)"/>
<path style=" stroke:none;fill-rule:nonzero;fill:rgb(59.999084%,59.999084%,59.999084%);fill-opacity:1;" d="M 168.96875 239.097656 C 152.234375 252.945312 130.824219 274.699219 101.722656 289.871094 L 108.195312 317.683594 L 80.761719 290.519531 L 149.175781 219.554688 "/>
<g clip-path="url(#clip2)" clip-rule="nonzero">
<path style="fill:none;stroke-width:1.918;stroke-linecap:round;stroke-linejoin:round;stroke:rgb(100%,100%,100%);stroke-opacity:1;stroke-miterlimit:4;" d="M 112.66818 181.321118 C 95.275186 195.641793 73.022385 218.138786 42.775466 233.828914 L 49.502868 262.591454 L 20.989564 234.499501 L 92.096214 161.110586 " transform="matrix(0.962133,0,0,0.96697,60.566965,63.765663)"/>
</g>
<path style="fill-rule:nonzero;fill:rgb(94.509888%,35.289001%,14.118958%);fill-opacity:1;stroke-width:1.918;stroke-linecap:round;stroke-linejoin:round;stroke:rgb(100%,100%,100%);stroke-opacity:1;stroke-miterlimit:4;" d="M 74.622021 143.400617 L 92.287034 161.001514 L 51.476023 169.84034 L 74.232262 143.081482 L 74.626081 143.400617 Z M 74.622021 143.400617 " transform="matrix(0.962133,0,0,0.96697,60.566965,63.765663)"/>
<path style=" stroke:none;fill-rule:nonzero;fill:rgb(59.999084%,59.999084%,59.999084%);fill-opacity:1;" d="M 212.601562 127.824219 C 210.9375 142.949219 221.773438 156.5625 236.820312 158.25 C 251.859375 159.929688 265.414062 149.03125 267.097656 133.914062 C 268.773438 118.792969 257.917969 105.164062 242.871094 103.484375 C 227.824219 101.8125 214.277344 112.695312 212.601562 127.824219 "/>
<path style="fill:none;stroke-width:1.918;stroke-linecap:round;stroke-linejoin:round;stroke:rgb(100%,100%,100%);stroke-opacity:1;stroke-miterlimit:4;" d="M 158.018259 66.246717 C 156.288703 81.888368 167.551113 95.966663 183.190192 97.711806 C 198.82115 99.448869 212.909313 88.178154 214.659168 72.544582 C 216.400903 56.906971 205.118193 42.812518 189.479115 41.075454 C 173.840037 39.34647 159.759994 50.601026 158.018259 66.246717 Z M 158.018259 66.246717 " transform="matrix(0.962133,0,0,0.96697,60.566965,63.765663)"/>
<path style=" stroke:none;fill-rule:nonzero;fill:rgb(39.99939%,39.99939%,39.99939%);fill-opacity:1;" d="M 263.164062 146.089844 C 268.214844 138.667969 267.953125 127.558594 266.933594 124.265625 C 265.695312 120.238281 262.902344 113.683594 258.042969 110.277344 L 232.347656 134.070312 C 232.347656 134.070312 252.097656 155.402344 252.609375 155.472656 C 252.820312 155.496094 258.546875 152.863281 263.164062 146.089844 "/>
<path style="fill:none;stroke-width:1.918;stroke-linecap:round;stroke-linejoin:round;stroke:rgb(100%,100%,100%);stroke-opacity:1;stroke-miterlimit:4;" d="M 210.570759 85.136273 C 215.820325 77.460876 215.548306 65.972019 214.488648 62.566566 C 213.201632 58.401653 210.29874 51.623066 205.248113 48.100462 L 178.541504 72.70617 C 178.541504 72.70617 199.068809 94.766877 199.600668 94.839591 C 199.819907 94.863829 205.771852 92.141083 210.570759 85.136273 Z M 205.179093 65.862947 C 205.179093 65.862947 207.740946 72.168892 204.488895 77.077106 Z M 205.179093 65.862947 " transform="matrix(0.962133,0,0,0.96697,60.566965,63.765663)"/>
<path style=" stroke:none;fill-rule:nonzero;fill:rgb(39.99939%,39.99939%,39.99939%);fill-opacity:1;" d="M 161.550781 231.207031 L 133.191406 236.273438 L 150.3125 218.394531 "/>
<path style="fill:none;stroke-width:1.918;stroke-linecap:round;stroke-linejoin:round;stroke:rgb(100%,100%,100%);stroke-opacity:1;stroke-miterlimit:4;" d="M 104.95826 173.160959 L 75.482739 178.400428 L 93.277671 159.9108 M 75.308159 143.529887 L 112.789979 178.800356 " transform="matrix(0.962133,0,0,0.96697,60.566965,63.765663)"/>
</g>
</svg>
