<?xml version="1.0" encoding="UTF-8"?>
<svg xmlns="http://www.w3.org/2000/svg" xmlns:xlink="http://www.w3.org/1999/xlink" width="75pt" height="74.999997pt" viewBox="0 0 75 74.999997" version="1.2">
<defs>
<clipPath id="clip1">
  <path d="M 1.089844 66 L 14 66 L 14 74 L 1.089844 74 Z M 1.089844 66 "/>
</clipPath>
</defs>
<g id="surface1">
<g clip-path="url(#clip1)" clip-rule="nonzero">
<path style=" stroke:none;fill-rule:nonzero;fill:rgb(94.509888%,35.289001%,14.118958%);fill-opacity:1;" d="M 13.796875 72.980469 L 1.089844 73.421875 L 7.605469 66.785156 Z M 13.796875 72.980469 "/>
</g>
<path style=" stroke:none;fill-rule:nonzero;fill:rgb(94.509888%,35.289001%,14.118958%);fill-opacity:1;" d="M 71.429688 40.082031 C 69.070312 58.515625 52.234375 71.539062 33.832031 69.171875 C 15.425781 66.808594 2.425781 49.949219 4.785156 31.515625 C 7.148438 13.082031 23.976562 0.0546875 42.386719 2.421875 C 60.789062 4.785156 73.792969 21.648438 71.429688 40.082031 "/>
<path style=" stroke:none;fill-rule:nonzero;fill:rgb(59.999084%,59.999084%,59.999084%);fill-opacity:1;" d="M 46.671875 26.230469 C 48.878906 28.582031 46.703125 34.140625 46.703125 34.140625 C 46.703125 34.140625 44.546875 41.996094 32.21875 52.1875 L 29.917969 49.925781 L 45.570312 33.902344 L 45.871094 33.492188 C 46.289062 32.8125 46.632812 26.1875 46.671875 26.230469 "/>
<path style="fill:none;stroke-width:1.918;stroke-linecap:round;stroke-linejoin:round;stroke:rgb(100%,100%,100%);stroke-opacity:1;stroke-miterlimit:4;" d="M 164.976107 87.526614 C 172.964254 96.024185 165.089214 116.110635 165.089214 116.110635 C 165.089214 116.110635 157.284865 144.497037 112.664351 181.324548 L 104.336885 173.151635 L 160.989103 115.249585 L 162.077753 113.767451 C 163.590553 111.311342 164.834724 87.371343 164.976107 87.526614 Z M 164.976107 87.526614 " transform="matrix(0.276288,0,0,0.276734,1.09091,2.008922)"/>
<path style="fill-rule:nonzero;fill:rgb(39.99939%,39.99939%,39.99939%);fill-opacity:1;stroke-width:1.201;stroke-linecap:round;stroke-linejoin:round;stroke:rgb(100%,100%,100%);stroke-opacity:1;stroke-miterlimit:4;" d="M 92.093107 161.111058 L 164.863001 87.328996 C 168.5531 91.704822 169.344846 96.433536 168.270334 103.166661 C 167.54928 107.824798 159.490442 117.155186 159.490442 117.155186 L 104.336885 173.151635 " transform="matrix(0.276288,0,0,0.276734,1.09091,2.008922)"/>
<path style=" stroke:none;fill-rule:nonzero;fill:rgb(100%,57.649231%,11.759949%);fill-opacity:1;" d="M 46.671875 26.246094 L 26.535156 46.59375 L 26.578125 46.554688 L 26.570312 46.558594 L 21.574219 41.625 C 31.992188 28.644531 38.726562 26.226562 38.726562 26.226562 C 38.726562 26.226562 43.113281 24.511719 46.242188 25.839844 C 46.480469 25.972656 46.585938 26.042969 46.671875 26.246094 "/>
<path style="fill:none;stroke-width:1.918;stroke-linecap:round;stroke-linejoin:round;stroke:rgb(100%,100%,100%);stroke-opacity:1;stroke-miterlimit:4;" d="M 164.976107 87.583076 L 92.093107 161.111058 L 92.248628 160.969902 L 92.220351 160.984018 L 74.13745 143.156058 C 111.844329 96.250034 136.21878 87.512499 136.21878 87.512499 C 136.21878 87.512499 152.096105 81.315765 163.420893 86.115058 C 164.28333 86.594987 164.665064 86.849067 164.976107 87.583076 Z M 164.976107 87.583076 " transform="matrix(0.276288,0,0,0.276734,1.09091,2.008922)"/>
<path style="fill-rule:nonzero;fill:rgb(59.999084%,59.999084%,59.999084%);fill-opacity:1;stroke-width:1.918;stroke-linecap:round;stroke-linejoin:round;stroke:rgb(100%,100%,100%);stroke-opacity:1;stroke-miterlimit:4;" d="M 112.664351 181.324548 C 95.274227 195.637731 73.020523 218.137943 42.778673 233.834452 L 49.508509 262.587859 L 20.991533 234.497883 L 92.093107 161.111058 " transform="matrix(0.276288,0,0,0.276734,1.09091,2.008922)"/>
<path style="fill-rule:nonzero;fill:rgb(94.509888%,35.289001%,14.118958%);fill-opacity:1;stroke-width:1.918;stroke-linecap:round;stroke-linejoin:round;stroke:rgb(100%,100%,100%);stroke-opacity:1;stroke-miterlimit:4;" d="M 74.618152 143.396023 L 92.291043 160.998133 L 51.473735 169.834477 L 74.236418 143.08548 Z M 74.618152 143.396023 " transform="matrix(0.276288,0,0,0.276734,1.09091,2.008922)"/>
<path style=" stroke:none;fill-rule:nonzero;fill:rgb(59.999084%,59.999084%,59.999084%);fill-opacity:1;" d="M 44.75 20.339844 C 44.273438 24.667969 47.382812 28.566406 51.703125 29.050781 C 56.023438 29.53125 59.914062 26.410156 60.398438 22.085938 C 60.878906 17.757812 57.761719 13.855469 53.441406 13.375 C 49.121094 12.898438 45.230469 16.011719 44.75 20.339844 "/>
<path style="fill:none;stroke-width:1.918;stroke-linecap:round;stroke-linejoin:round;stroke:rgb(100%,100%,100%);stroke-opacity:1;stroke-miterlimit:4;" d="M 158.020058 66.240341 C 156.295183 81.880388 167.54928 95.967722 183.186254 97.718053 C 198.823227 99.454267 212.904987 88.17593 214.658137 72.549999 C 216.39715 56.909952 205.114776 42.808502 189.477803 41.072288 C 173.840829 39.350189 159.75907 50.600295 158.020058 66.240341 Z M 158.020058 66.240341 " transform="matrix(0.276288,0,0,0.276734,1.09091,2.008922)"/>
<path style=" stroke:none;fill-rule:nonzero;fill:rgb(39.99939%,39.99939%,39.99939%);fill-opacity:1;" d="M 59.269531 25.570312 C 60.71875 23.445312 60.644531 20.265625 60.351562 19.324219 C 59.996094 18.171875 59.195312 16.292969 57.800781 15.320312 L 50.417969 22.128906 C 50.417969 22.128906 56.089844 28.234375 56.238281 28.253906 C 56.300781 28.261719 57.941406 27.507812 59.269531 25.570312 "/>
<path style="fill:none;stroke-width:1.918;stroke-linecap:round;stroke-linejoin:round;stroke:rgb(100%,100%,100%);stroke-opacity:1;stroke-miterlimit:4;" d="M 210.572165 85.141084 C 215.817479 77.462216 215.548851 65.972145 214.488478 62.570294 C 213.201891 58.406202 210.303537 51.616615 205.25616 48.101839 L 178.534749 72.70527 C 178.534749 72.70527 199.063579 94.767899 199.600835 94.838477 C 199.827048 94.866708 205.765139 92.142404 210.572165 85.141084 Z M 205.185468 65.859221 C 205.185468 65.859221 207.744503 72.168879 204.492691 77.081096 Z M 205.185468 65.859221 " transform="matrix(0.276288,0,0,0.276734,1.09091,2.008922)"/>
<path style=" stroke:none;fill-rule:nonzero;fill:rgb(39.99939%,39.99939%,39.99939%);fill-opacity:1;" d="M 30.089844 49.929688 L 21.945312 51.378906 L 26.863281 46.261719 "/>
<path style="fill:none;stroke-width:1.918;stroke-linecap:round;stroke-linejoin:round;stroke:rgb(100%,100%,100%);stroke-opacity:1;stroke-miterlimit:4;" d="M 104.958971 173.165751 L 75.480589 178.402626 L 93.280725 159.911235 M 75.31093 143.523063 L 112.791596 178.797861 " transform="matrix(0.276288,0,0,0.276734,1.09091,2.008922)"/>
</g>
</svg>
