<?xml version="1.0" encoding="UTF-8"?>
<svg xmlns="http://www.w3.org/2000/svg" xmlns:xlink="http://www.w3.org/1999/xlink" width="75pt" height="74.999997pt" viewBox="0 0 75 74.999997" version="1.2">
<defs>
<clipPath id="clip1">
  <path d="M 0 3.375 L 75 3.375 L 75 71.625 L 0 71.625 Z M 0 3.375 "/>
</clipPath>
</defs>
<g id="surface1">
<path style=" stroke:none;fill-rule:nonzero;fill:rgb(22.349548%,75.689697%,84.309387%);fill-opacity:1;" d="M 44.230469 37.5 C 44.230469 37.941406 44.1875 38.378906 44.101562 38.8125 C 44.015625 39.246094 43.886719 39.667969 43.71875 40.074219 C 43.550781 40.484375 43.34375 40.871094 43.097656 41.238281 C 42.851562 41.605469 42.570312 41.945312 42.257812 42.257812 C 41.945312 42.570312 41.605469 42.851562 41.238281 43.097656 C 40.871094 43.34375 40.484375 43.550781 40.074219 43.71875 C 39.667969 43.886719 39.246094 44.015625 38.8125 44.101562 C 38.378906 44.1875 37.941406 44.230469 37.5 44.230469 C 37.058594 44.230469 36.621094 44.1875 36.1875 44.101562 C 35.753906 44.015625 35.332031 43.886719 34.925781 43.71875 C 34.515625 43.550781 34.128906 43.34375 33.761719 43.097656 C 33.394531 42.851562 33.054688 42.570312 32.742188 42.257812 C 32.429688 41.945312 32.148438 41.605469 31.902344 41.238281 C 31.65625 40.871094 31.449219 40.484375 31.28125 40.074219 C 31.113281 39.667969 30.984375 39.246094 30.898438 38.8125 C 30.8125 38.378906 30.769531 37.941406 30.769531 37.5 C 30.769531 37.058594 30.8125 36.621094 30.898438 36.1875 C 30.984375 35.753906 31.113281 35.332031 31.28125 34.925781 C 31.449219 34.515625 31.65625 34.128906 31.902344 33.761719 C 32.148438 33.394531 32.429688 33.054688 32.742188 32.742188 C 33.054688 32.429688 33.394531 32.148438 33.761719 31.902344 C 34.128906 31.65625 34.515625 31.449219 34.925781 31.28125 C 35.332031 31.113281 35.753906 30.984375 36.1875 30.898438 C 36.621094 30.8125 37.058594 30.769531 37.5 30.769531 C 37.941406 30.769531 38.378906 30.8125 38.8125 30.898438 C 39.246094 30.984375 39.667969 31.113281 40.074219 31.28125 C 40.484375 31.449219 40.871094 31.65625 41.238281 31.902344 C 41.605469 32.148438 41.945312 32.429688 42.257812 32.742188 C 42.570312 33.054688 42.851562 33.394531 43.097656 33.761719 C 43.34375 34.128906 43.550781 34.515625 43.71875 34.925781 C 43.886719 35.332031 44.015625 35.753906 44.101562 36.1875 C 44.1875 36.621094 44.230469 37.058594 44.230469 37.5 Z M 44.230469 37.5 "/>
<path style=" stroke:none;fill-rule:nonzero;fill:rgb(12.159729%,12.939453%,16.859436%);fill-opacity:1;" d="M 37.5 45.191406 C 33.257812 45.191406 29.808594 41.742188 29.808594 37.5 C 29.808594 33.257812 33.257812 29.808594 37.5 29.808594 C 41.742188 29.808594 45.191406 33.257812 45.191406 37.5 C 45.191406 41.742188 41.742188 45.191406 37.5 45.191406 Z M 37.5 31.730469 C 34.316406 31.730469 31.730469 34.316406 31.730469 37.5 C 31.730469 40.683594 34.316406 43.269531 37.5 43.269531 C 40.683594 43.269531 43.269531 40.683594 43.269531 37.5 C 43.269531 34.316406 40.683594 31.730469 37.5 31.730469 Z M 37.5 31.730469 "/>
<path style=" stroke:none;fill-rule:nonzero;fill:rgb(22.349548%,75.689697%,84.309387%);fill-opacity:1;" d="M 74.519531 37.5 C 74.519531 32.332031 68.292969 27.855469 58.636719 25.195312 C 61.121094 15.488281 60.355469 7.851562 55.917969 5.261719 C 54.167969 4.242188 52.046875 4.054688 49.609375 4.707031 C 45.9375 5.6875 41.730469 8.5625 37.5 12.78125 C 33.269531 8.5625 29.0625 5.691406 25.390625 4.707031 C 22.953125 4.054688 20.832031 4.242188 19.082031 5.261719 C 14.644531 7.851562 13.878906 15.484375 16.363281 25.195312 C 6.707031 27.855469 0.480469 32.332031 0.480469 37.5 C 0.480469 42.667969 6.707031 47.144531 16.363281 49.808594 C 13.878906 59.515625 14.644531 67.148438 19.082031 69.738281 C 20.152344 70.363281 21.359375 70.675781 22.691406 70.675781 C 23.542969 70.675781 24.441406 70.550781 25.390625 70.296875 C 29.0625 69.3125 33.269531 66.4375 37.5 62.21875 C 41.730469 66.4375 45.9375 69.3125 49.609375 70.296875 C 50.558594 70.550781 51.457031 70.675781 52.308594 70.675781 C 53.640625 70.675781 54.847656 70.363281 55.917969 69.738281 C 60.355469 67.148438 61.117188 59.515625 58.636719 49.808594 C 68.292969 47.144531 74.519531 42.667969 74.519531 37.5 Z M 50.355469 7.492188 C 51.050781 7.304688 51.699219 7.210938 52.292969 7.210938 C 53.121094 7.210938 53.847656 7.390625 54.464844 7.753906 C 57.4375 9.488281 58.042969 15.847656 55.828125 24.496094 C 52.777344 23.808594 49.449219 23.292969 45.910156 22.972656 C 43.835938 19.980469 41.675781 17.253906 39.5 14.867188 C 43.363281 10.996094 47.152344 8.347656 50.355469 7.492188 Z M 47.839844 43.558594 C 46.707031 45.542969 45.515625 47.445312 44.289062 49.265625 C 42.117188 49.429688 39.851562 49.519531 37.5 49.519531 C 35.148438 49.519531 32.882812 49.429688 30.710938 49.265625 C 29.488281 47.445312 28.292969 45.542969 27.160156 43.558594 C 25.988281 41.503906 24.9375 39.480469 23.992188 37.5 C 24.9375 35.523438 25.988281 33.5 27.160156 31.445312 C 28.292969 29.457031 29.488281 27.554688 30.710938 25.734375 C 32.882812 25.570312 35.148438 25.480469 37.5 25.480469 C 39.851562 25.480469 42.117188 25.570312 44.289062 25.734375 C 45.511719 27.554688 46.707031 29.457031 47.839844 31.445312 C 49.011719 33.5 50.066406 35.519531 51.007812 37.5 C 50.066406 39.480469 49.011719 41.503906 47.839844 43.558594 Z M 52.542969 40.910156 C 53.542969 43.273438 54.371094 45.554688 55.039062 47.71875 C 52.851562 48.207031 50.492188 48.613281 47.96875 48.914062 C 48.777344 47.636719 49.574219 46.335938 50.347656 44.984375 C 51.125 43.621094 51.855469 42.261719 52.542969 40.910156 Z M 37.5 58.035156 C 35.925781 56.296875 34.355469 54.371094 32.824219 52.285156 C 34.355469 52.359375 35.910156 52.402344 37.5 52.402344 C 39.089844 52.402344 40.644531 52.359375 42.175781 52.285156 C 40.644531 54.371094 39.074219 56.296875 37.5 58.035156 Z M 27.03125 48.914062 C 24.507812 48.613281 22.148438 48.207031 19.960938 47.71875 C 20.628906 45.554688 21.457031 43.273438 22.457031 40.910156 C 23.144531 42.261719 23.875 43.621094 24.652344 44.984375 C 25.425781 46.335938 26.222656 47.640625 27.03125 48.914062 Z M 22.457031 34.09375 C 21.457031 31.726562 20.628906 29.445312 19.960938 27.28125 C 22.148438 26.792969 24.511719 26.386719 27.03125 26.085938 C 26.222656 27.359375 25.425781 28.664062 24.65625 30.015625 C 23.875 31.378906 23.144531 32.742188 22.457031 34.09375 Z M 37.5 16.964844 C 39.074219 18.703125 40.644531 20.628906 42.175781 22.714844 C 40.644531 22.640625 39.089844 22.597656 37.5 22.597656 C 35.910156 22.597656 34.355469 22.640625 32.824219 22.714844 C 34.355469 20.628906 35.925781 18.703125 37.5 16.964844 Z M 50.347656 30.015625 C 49.574219 28.664062 48.777344 27.363281 47.96875 26.085938 C 50.492188 26.386719 52.851562 26.792969 55.039062 27.28125 C 54.371094 29.449219 53.542969 31.726562 52.542969 34.09375 C 51.855469 32.742188 51.125 31.378906 50.347656 30.015625 Z M 20.535156 7.753906 C 21.152344 7.390625 21.878906 7.210938 22.707031 7.210938 C 23.300781 7.210938 23.949219 7.304688 24.644531 7.492188 C 27.847656 8.347656 31.636719 10.996094 35.5 14.867188 C 33.324219 17.253906 31.164062 19.980469 29.089844 22.972656 C 25.550781 23.289062 22.222656 23.808594 19.171875 24.492188 C 16.957031 15.847656 17.5625 9.488281 20.535156 7.753906 Z M 3.367188 37.5 C 3.367188 34.042969 8.558594 30.347656 17.148438 27.980469 C 18.082031 31.015625 19.304688 34.214844 20.808594 37.5 C 19.304688 40.785156 18.082031 43.984375 17.148438 47.019531 C 8.558594 44.652344 3.367188 40.957031 3.367188 37.5 Z M 24.644531 67.507812 C 22.980469 67.953125 21.597656 67.867188 20.535156 67.25 C 17.5625 65.511719 16.957031 59.152344 19.171875 50.507812 C 22.222656 51.191406 25.550781 51.710938 29.085938 52.027344 C 31.164062 55.023438 33.324219 57.746094 35.5 60.132812 C 31.636719 64.003906 27.847656 66.652344 24.644531 67.507812 Z M 54.464844 67.25 C 53.402344 67.867188 52.023438 67.953125 50.355469 67.507812 C 47.152344 66.652344 43.363281 64.003906 39.5 60.132812 C 41.675781 57.746094 43.835938 55.019531 45.910156 52.027344 C 49.449219 51.707031 52.777344 51.191406 55.828125 50.503906 C 58.042969 59.152344 57.4375 65.511719 54.464844 67.25 Z M 57.851562 47.019531 C 56.917969 43.984375 55.695312 40.785156 54.191406 37.5 C 55.695312 34.214844 56.917969 31.015625 57.851562 27.980469 C 66.441406 30.347656 71.632812 34.042969 71.632812 37.5 C 71.632812 40.957031 66.441406 44.652344 57.851562 47.019531 Z M 57.851562 47.019531 "/>
<g clip-path="url(#clip1)" clip-rule="nonzero">
<path style=" stroke:none;fill-rule:nonzero;fill:rgb(12.159729%,12.939453%,16.859436%);fill-opacity:1;" d="M 22.6875 71.15625 C 21.273438 71.15625 19.980469 70.816406 18.839844 70.152344 C 14.386719 67.550781 13.28125 60.273438 15.785156 50.140625 C 5.746094 47.289062 0 42.691406 0 37.5 C 0 32.308594 5.746094 27.710938 15.785156 24.859375 C 13.28125 14.726562 14.386719 7.449219 18.839844 4.847656 C 20.703125 3.757812 22.949219 3.554688 25.515625 4.242188 C 29.089844 5.199219 33.226562 7.914062 37.5 12.105469 C 41.773438 7.914062 45.910156 5.199219 49.484375 4.242188 C 52.050781 3.554688 54.296875 3.757812 56.160156 4.847656 C 60.613281 7.449219 61.71875 14.726562 59.214844 24.859375 C 69.253906 27.710938 75 32.308594 75 37.5 C 75 42.691406 69.253906 47.289062 59.214844 50.140625 C 61.71875 60.273438 60.613281 67.550781 56.160156 70.152344 C 54.308594 71.234375 52.039062 71.441406 49.484375 70.757812 C 45.910156 69.800781 41.773438 67.085938 37.5 62.894531 C 33.226562 67.085938 29.089844 69.800781 25.515625 70.757812 C 24.53125 71.023438 23.582031 71.15625 22.691406 71.15625 C 22.691406 71.15625 22.6875 71.15625 22.6875 71.15625 Z M 22.695312 4.808594 C 21.445312 4.808594 20.316406 5.097656 19.324219 5.679688 C 15.261719 8.050781 14.328125 15.300781 16.828125 25.074219 C 16.894531 25.328125 16.742188 25.589844 16.492188 25.65625 C 6.765625 28.339844 0.960938 32.765625 0.960938 37.5 C 0.960938 42.234375 6.765625 46.660156 16.492188 49.34375 C 16.746094 49.410156 16.894531 49.671875 16.828125 49.925781 C 14.328125 59.699219 15.261719 66.949219 19.324219 69.320312 C 20.3125 69.898438 21.445312 70.191406 22.6875 70.191406 C 22.6875 70.191406 22.691406 70.191406 22.691406 70.191406 C 23.5 70.191406 24.363281 70.070312 25.265625 69.828125 C 28.773438 68.890625 32.886719 66.140625 37.160156 61.878906 C 37.347656 61.691406 37.652344 61.691406 37.839844 61.878906 C 42.113281 66.140625 46.226562 68.890625 49.734375 69.828125 C 52.035156 70.445312 54.046875 70.273438 55.675781 69.320312 C 59.738281 66.949219 60.671875 59.699219 58.171875 49.925781 C 58.105469 49.671875 58.253906 49.410156 58.507812 49.34375 C 68.234375 46.660156 74.039062 42.234375 74.039062 37.5 C 74.039062 32.765625 68.234375 28.339844 58.507812 25.65625 C 58.253906 25.589844 58.105469 25.328125 58.171875 25.074219 C 60.667969 15.300781 59.738281 8.050781 55.675781 5.679688 C 54.042969 4.722656 52.042969 4.554688 49.730469 5.171875 C 46.226562 6.109375 42.113281 8.859375 37.839844 13.121094 C 37.652344 13.308594 37.347656 13.308594 37.160156 13.121094 C 32.886719 8.859375 28.773438 6.109375 25.265625 5.171875 C 24.363281 4.929688 23.503906 4.808594 22.695312 4.808594 Z M 52.292969 68.269531 C 51.65625 68.269531 50.96875 68.171875 50.230469 67.972656 C 47.027344 67.113281 43.199219 64.523438 39.160156 60.472656 C 38.980469 60.292969 38.972656 60 39.144531 59.808594 C 41.320312 57.421875 43.464844 54.710938 45.515625 51.753906 C 45.597656 51.636719 45.726562 51.5625 45.867188 51.550781 C 49.339844 51.234375 52.65625 50.726562 55.722656 50.035156 C 55.972656 49.980469 56.230469 50.132812 56.292969 50.386719 C 58.539062 59.160156 57.933594 65.777344 54.707031 67.664062 C 54.015625 68.066406 53.207031 68.269531 52.292969 68.269531 Z M 40.164062 60.117188 C 43.964844 63.859375 47.523438 66.253906 50.480469 67.042969 C 52.015625 67.453125 53.277344 67.382812 54.222656 66.832031 C 56.964844 65.230469 57.449219 59.070312 55.476562 51.074219 C 52.566406 51.710938 49.441406 52.183594 46.179688 52.488281 C 44.242188 55.265625 42.21875 57.832031 40.164062 60.117188 Z M 22.707031 68.269531 C 21.792969 68.269531 20.984375 68.066406 20.292969 67.664062 C 17.066406 65.777344 16.457031 59.160156 18.707031 50.386719 C 18.769531 50.132812 19.027344 49.984375 19.277344 50.035156 C 22.34375 50.726562 25.65625 51.234375 29.132812 51.550781 C 29.273438 51.5625 29.402344 51.636719 29.484375 51.753906 C 31.535156 54.710938 33.679688 57.421875 35.855469 59.808594 C 36.027344 60 36.023438 60.292969 35.839844 60.472656 C 31.800781 64.519531 27.972656 67.113281 24.769531 67.972656 C 24.03125 68.167969 23.34375 68.269531 22.707031 68.269531 Z M 19.523438 51.074219 C 17.550781 59.070312 18.035156 65.230469 20.777344 66.832031 C 21.722656 67.382812 22.984375 67.453125 24.519531 67.042969 C 27.476562 66.253906 31.035156 63.859375 34.835938 60.117188 C 32.78125 57.832031 30.761719 55.265625 28.820312 52.488281 C 25.558594 52.183594 22.433594 51.710938 19.523438 51.074219 Z M 37.5 58.515625 C 37.363281 58.515625 37.234375 58.457031 37.144531 58.355469 C 35.542969 56.589844 33.960938 54.640625 32.4375 52.570312 C 32.324219 52.421875 32.3125 52.222656 32.398438 52.058594 C 32.488281 51.894531 32.648438 51.792969 32.847656 51.804688 C 36.023438 51.960938 38.976562 51.960938 42.152344 51.804688 C 42.347656 51.792969 42.511719 51.894531 42.601562 52.058594 C 42.6875 52.222656 42.675781 52.421875 42.5625 52.570312 C 41.039062 54.640625 39.457031 56.585938 37.855469 58.355469 C 37.765625 58.457031 37.636719 58.515625 37.5 58.515625 Z M 33.8125 52.8125 C 35.015625 54.402344 36.253906 55.914062 37.5 57.316406 C 38.746094 55.914062 39.984375 54.402344 41.1875 52.8125 C 38.675781 52.90625 36.324219 52.90625 33.8125 52.8125 Z M 37.5 50 C 35.222656 50 32.925781 49.914062 30.675781 49.746094 C 30.527344 49.738281 30.394531 49.660156 30.3125 49.535156 C 29.023438 47.625 27.824219 45.691406 26.742188 43.796875 C 25.605469 41.808594 24.535156 39.757812 23.558594 37.707031 C 23.496094 37.574219 23.496094 37.425781 23.558594 37.292969 C 24.535156 35.242188 25.605469 33.191406 26.742188 31.203125 C 27.824219 29.3125 29.023438 27.378906 30.3125 25.464844 C 30.394531 25.339844 30.527344 25.261719 30.675781 25.25 C 35.179688 24.914062 39.820312 24.914062 44.324219 25.25 C 44.472656 25.261719 44.605469 25.339844 44.6875 25.464844 C 45.976562 27.378906 47.175781 29.3125 48.257812 31.203125 C 49.394531 33.191406 50.464844 35.242188 51.441406 37.292969 C 51.503906 37.425781 51.503906 37.574219 51.441406 37.707031 C 50.464844 39.757812 49.394531 41.808594 48.257812 43.796875 C 47.175781 45.691406 45.976562 47.625 44.6875 49.535156 C 44.609375 49.65625 44.472656 49.734375 44.324219 49.746094 C 42.074219 49.914062 39.777344 50 37.5 50 Z M 30.980469 48.804688 C 35.285156 49.113281 39.714844 49.113281 44.019531 48.804688 C 45.246094 46.976562 46.386719 45.128906 47.421875 43.316406 C 48.507812 41.417969 49.535156 39.460938 50.472656 37.5 C 49.535156 35.539062 48.507812 33.582031 47.421875 31.683594 C 46.390625 29.871094 45.246094 28.027344 44.019531 26.195312 C 39.710938 25.882812 35.285156 25.882812 30.976562 26.195312 C 29.753906 28.027344 28.609375 29.871094 27.574219 31.683594 C 26.488281 33.582031 25.464844 35.539062 24.523438 37.5 C 25.464844 39.460938 26.488281 41.417969 27.574219 43.316406 C 28.609375 45.128906 29.753906 46.976562 30.980469 48.804688 Z M 47.96875 49.394531 C 47.804688 49.394531 47.652344 49.3125 47.5625 49.171875 C 47.464844 49.011719 47.464844 48.8125 47.5625 48.65625 C 48.457031 47.25 49.230469 45.972656 49.929688 44.75 C 50.664062 43.460938 51.398438 42.097656 52.113281 40.691406 C 52.199219 40.523438 52.375 40.425781 52.558594 40.429688 C 52.746094 40.4375 52.914062 40.550781 52.984375 40.722656 C 53.960938 43.03125 54.808594 45.335938 55.5 47.578125 C 55.539062 47.707031 55.523438 47.84375 55.457031 47.960938 C 55.386719 48.078125 55.273438 48.160156 55.144531 48.1875 C 52.882812 48.691406 50.488281 49.097656 48.027344 49.390625 C 48.007812 49.394531 47.988281 49.394531 47.96875 49.394531 Z M 52.496094 42.050781 C 51.925781 43.144531 51.34375 44.207031 50.765625 45.222656 C 50.203125 46.207031 49.59375 47.222656 48.917969 48.308594 C 50.8125 48.058594 52.660156 47.738281 54.425781 47.359375 C 53.871094 45.617188 53.222656 43.835938 52.496094 42.050781 Z M 27.03125 49.394531 C 27.011719 49.394531 26.992188 49.394531 26.972656 49.390625 C 24.511719 49.097656 22.117188 48.691406 19.855469 48.1875 C 19.726562 48.160156 19.613281 48.074219 19.542969 47.960938 C 19.476562 47.84375 19.460938 47.703125 19.5 47.578125 C 20.191406 45.335938 21.039062 43.027344 22.015625 40.722656 C 22.085938 40.550781 22.253906 40.4375 22.441406 40.429688 C 22.617188 40.410156 22.800781 40.523438 22.886719 40.691406 C 23.601562 42.09375 24.335938 43.460938 25.070312 44.746094 C 25.769531 45.972656 26.546875 47.25 27.4375 48.65625 C 27.535156 48.8125 27.535156 49.011719 27.4375 49.171875 C 27.347656 49.3125 27.195312 49.394531 27.03125 49.394531 Z M 20.574219 47.359375 C 22.34375 47.738281 24.1875 48.058594 26.082031 48.308594 C 25.40625 47.222656 24.796875 46.207031 24.238281 45.222656 C 23.65625 44.207031 23.074219 43.140625 22.503906 42.050781 C 21.777344 43.835938 21.128906 45.617188 20.574219 47.359375 Z M 57.851562 47.5 C 57.644531 47.5 57.453125 47.367188 57.390625 47.160156 C 56.453125 44.105469 55.230469 40.921875 53.753906 37.699219 C 53.695312 37.574219 53.695312 37.425781 53.753906 37.300781 C 55.230469 34.078125 56.453125 30.894531 57.390625 27.839844 C 57.46875 27.589844 57.734375 27.449219 57.980469 27.515625 C 66.699219 29.917969 72.117188 33.746094 72.117188 37.5 C 72.117188 41.253906 66.699219 45.082031 57.976562 47.484375 C 57.9375 47.496094 57.890625 47.5 57.851562 47.5 Z M 54.71875 37.5 C 56.101562 40.535156 57.261719 43.535156 58.171875 46.429688 C 66.074219 44.179688 71.152344 40.695312 71.152344 37.5 C 71.152344 34.304688 66.074219 30.820312 58.171875 28.570312 C 57.261719 31.464844 56.101562 34.46875 54.71875 37.5 Z M 17.148438 47.5 C 17.105469 47.5 17.0625 47.496094 17.019531 47.484375 C 8.300781 45.082031 2.882812 41.253906 2.882812 37.5 C 2.882812 33.746094 8.300781 29.917969 17.019531 27.515625 C 17.269531 27.449219 17.53125 27.589844 17.609375 27.839844 C 18.546875 30.894531 19.769531 34.078125 21.246094 37.300781 C 21.304688 37.425781 21.304688 37.574219 21.246094 37.699219 C 19.769531 40.921875 18.546875 44.105469 17.609375 47.160156 C 17.546875 47.367188 17.355469 47.5 17.148438 47.5 Z M 16.828125 28.570312 C 8.925781 30.820312 3.847656 34.304688 3.847656 37.5 C 3.847656 40.695312 8.925781 44.179688 16.828125 46.429688 C 17.738281 43.535156 18.898438 40.535156 20.28125 37.5 C 18.898438 34.46875 17.738281 31.464844 16.828125 28.570312 Z M 52.542969 34.574219 C 52.363281 34.574219 52.195312 34.472656 52.113281 34.3125 C 51.386719 32.878906 50.671875 31.554688 49.929688 30.253906 C 49.230469 29.03125 48.457031 27.753906 47.5625 26.34375 C 47.464844 26.1875 47.464844 25.988281 47.5625 25.828125 C 47.660156 25.671875 47.839844 25.585938 48.027344 25.609375 C 50.492188 25.902344 52.886719 26.308594 55.144531 26.8125 C 55.277344 26.839844 55.390625 26.925781 55.457031 27.039062 C 55.523438 27.15625 55.539062 27.296875 55.5 27.421875 C 54.808594 29.667969 53.960938 31.976562 52.988281 34.28125 C 52.914062 34.453125 52.75 34.566406 52.5625 34.574219 C 52.554688 34.574219 52.546875 34.574219 52.542969 34.574219 Z M 50.761719 29.777344 C 51.351562 30.804688 51.921875 31.851562 52.496094 32.953125 C 53.222656 31.167969 53.867188 29.386719 54.421875 27.640625 C 52.65625 27.261719 50.8125 26.941406 48.914062 26.691406 C 49.597656 27.777344 50.203125 28.796875 50.761719 29.777344 Z M 22.457031 34.574219 C 22.449219 34.574219 22.445312 34.574219 22.4375 34.574219 C 22.253906 34.566406 22.085938 34.453125 22.011719 34.28125 C 21.039062 31.976562 20.191406 29.671875 19.5 27.425781 C 19.460938 27.296875 19.476562 27.15625 19.542969 27.042969 C 19.609375 26.925781 19.722656 26.84375 19.855469 26.8125 C 22.113281 26.308594 24.507812 25.902344 26.972656 25.609375 C 27.160156 25.589844 27.339844 25.675781 27.4375 25.832031 C 27.539062 25.988281 27.535156 26.1875 27.4375 26.34375 C 26.542969 27.753906 25.769531 29.03125 25.070312 30.253906 C 24.328125 31.554688 23.613281 32.878906 22.886719 34.3125 C 22.804688 34.472656 22.636719 34.574219 22.457031 34.574219 Z M 20.574219 27.640625 C 21.128906 29.386719 21.777344 31.167969 22.503906 32.953125 C 23.078125 31.851562 23.648438 30.804688 24.234375 29.777344 C 24.796875 28.796875 25.402344 27.777344 26.082031 26.691406 C 24.1875 26.941406 22.34375 27.261719 20.574219 27.640625 Z M 55.828125 24.976562 C 55.792969 24.976562 55.757812 24.972656 55.722656 24.964844 C 52.660156 24.273438 49.34375 23.765625 45.867188 23.449219 C 45.726562 23.4375 45.597656 23.363281 45.515625 23.246094 C 43.464844 20.289062 41.320312 17.578125 39.144531 15.191406 C 38.972656 15 38.976562 14.710938 39.160156 14.527344 C 43.199219 10.480469 47.027344 7.886719 50.230469 7.027344 C 52.027344 6.546875 53.535156 6.65625 54.707031 7.335938 C 57.933594 9.222656 58.542969 15.84375 56.296875 24.613281 C 56.238281 24.828125 56.046875 24.976562 55.828125 24.976562 Z M 46.179688 22.511719 C 49.441406 22.816406 52.566406 23.289062 55.476562 23.925781 C 57.449219 15.929688 56.964844 9.769531 54.21875 8.167969 C 53.277344 7.617188 52.015625 7.546875 50.480469 7.957031 C 47.523438 8.75 43.960938 11.140625 40.164062 14.882812 C 42.21875 17.167969 44.238281 19.730469 46.179688 22.511719 Z M 19.171875 24.976562 C 18.953125 24.976562 18.761719 24.828125 18.703125 24.613281 C 16.457031 15.839844 17.066406 9.222656 20.292969 7.335938 C 21.464844 6.65625 22.972656 6.546875 24.769531 7.027344 C 27.972656 7.886719 31.800781 10.480469 35.839844 14.527344 C 36.019531 14.710938 36.027344 15 35.855469 15.191406 C 33.679688 17.578125 31.535156 20.289062 29.484375 23.246094 C 29.402344 23.363281 29.273438 23.4375 29.128906 23.449219 C 25.65625 23.765625 22.339844 24.273438 19.273438 24.964844 C 19.242188 24.972656 19.207031 24.976562 19.171875 24.976562 Z M 20.777344 8.167969 C 18.035156 9.769531 17.550781 15.929688 19.523438 23.925781 C 22.433594 23.289062 25.558594 22.816406 28.820312 22.511719 C 30.761719 19.730469 32.78125 17.167969 34.835938 14.882812 C 31.035156 11.140625 27.476562 8.746094 24.519531 7.953125 C 22.988281 7.546875 21.722656 7.617188 20.777344 8.167969 Z M 42.175781 23.195312 C 42.167969 23.195312 42.160156 23.195312 42.152344 23.195312 C 38.976562 23.039062 36.027344 23.039062 32.847656 23.195312 C 32.648438 23.199219 32.488281 23.105469 32.398438 22.941406 C 32.3125 22.777344 32.324219 22.578125 32.4375 22.429688 C 33.960938 20.355469 35.546875 18.410156 37.144531 16.640625 C 37.328125 16.441406 37.675781 16.441406 37.859375 16.640625 C 39.453125 18.410156 41.039062 20.355469 42.566406 22.429688 C 42.675781 22.578125 42.6875 22.777344 42.601562 22.941406 C 42.515625 23.097656 42.351562 23.195312 42.175781 23.195312 Z M 37.5 22.117188 C 38.695312 22.117188 39.929688 22.140625 41.1875 22.191406 C 39.980469 20.597656 38.746094 19.085938 37.5 17.6875 C 36.253906 19.085938 35.019531 20.597656 33.8125 22.191406 C 35.070312 22.140625 36.304688 22.117188 37.5 22.117188 Z M 37.5 22.117188 "/>
</g>
</g>
</svg>
