<?xml version="1.0" encoding="UTF-8"?>
<svg xmlns="http://www.w3.org/2000/svg" xmlns:xlink="http://www.w3.org/1999/xlink" width="75pt" height="74.999997pt" viewBox="0 0 75 74.999997" version="1.2">
<defs>
<clipPath id="clip1">
  <path d="M 4.6875 0 L 70.6875 0 L 70.6875 75 L 4.6875 75 Z M 4.6875 0 "/>
</clipPath>
<clipPath id="clip2">
  <path d="M 47 8 L 70.6875 8 L 70.6875 75 L 47 75 Z M 47 8 "/>
</clipPath>
</defs>
<g id="surface1">
<g clip-path="url(#clip1)" clip-rule="nonzero">
<path style=" stroke:none;fill-rule:nonzero;fill:rgb(48.629761%,70.199585%,25.878906%);fill-opacity:1;" d="M 62.796875 14.71875 C 62.753906 14.324219 62.398438 14.148438 62.136719 14.148438 C 61.871094 14.148438 56.082031 13.710938 56.082031 13.710938 C 56.082031 13.710938 52.0625 9.738281 51.574219 9.34375 C 51.132812 8.910156 50.292969 9.039062 49.941406 9.125 C 49.898438 9.125 49.054688 9.390625 47.6875 9.824219 C 46.320312 5.9375 43.976562 2.398438 39.777344 2.398438 L 39.382812 2.398438 C 38.230469 0.914062 36.726562 0.214844 35.492188 0.214844 C 25.769531 0.214844 21.085938 12.226562 19.628906 18.34375 C 15.828125 19.523438 13.132812 20.308594 12.824219 20.441406 C 10.699219 21.09375 10.65625 21.140625 10.390625 23.105469 C 10.171875 24.589844 4.648438 66.835938 4.648438 66.835938 L 47.640625 74.785156 L 70.972656 69.808594 C 71.015625 69.71875 62.84375 15.109375 62.796875 14.71875 Z M 45.300781 10.433594 C 44.242188 10.742188 42.957031 11.132812 41.675781 11.570312 L 41.675781 10.785156 C 41.675781 8.425781 41.367188 6.503906 40.792969 4.972656 C 43 5.238281 44.371094 7.640625 45.300781 10.433594 Z M 38.097656 5.457031 C 38.671875 6.941406 39.070312 9.039062 39.070312 11.921875 L 39.070312 12.355469 C 36.683594 13.097656 34.164062 13.84375 31.558594 14.671875 C 33.015625 9.167969 35.800781 6.460938 38.097656 5.457031 Z M 35.269531 2.746094 C 35.710938 2.746094 36.152344 2.921875 36.503906 3.183594 C 33.367188 4.625 30.054688 8.25 28.683594 15.589844 C 26.605469 16.246094 24.617188 16.8125 22.71875 17.425781 C 24.308594 11.832031 28.289062 2.746094 35.269531 2.746094 Z M 35.269531 2.746094 "/>
</g>
<g clip-path="url(#clip2)" clip-rule="nonzero">
<path style=" stroke:none;fill-rule:nonzero;fill:rgb(33.329773%,54.508972%,18.429565%);fill-opacity:1;" d="M 62.136719 14.0625 C 61.871094 14.0625 56.082031 13.625 56.082031 13.625 C 56.082031 13.625 52.0625 9.648438 51.574219 9.257812 C 51.398438 9.082031 51.175781 8.992188 51 8.992188 L 47.773438 74.785156 L 71.105469 69.808594 C 71.105469 69.808594 62.929688 15.109375 62.886719 14.71875 C 62.710938 14.324219 62.398438 14.148438 62.136719 14.0625 Z M 62.136719 14.0625 "/>
</g>
<path style=" stroke:none;fill-rule:nonzero;fill:rgb(100%,100%,100%);fill-opacity:1;" d="M 39.371094 27.417969 L 36.589844 35.714844 C 36.589844 35.714844 34.066406 34.382812 31.070312 34.382812 C 26.59375 34.382812 26.375 37.171875 26.375 37.863281 C 26.375 41.640625 36.371094 43.105469 36.371094 52 C 36.371094 59.003906 31.894531 63.515625 25.851562 63.515625 C 18.550781 63.515625 14.902344 59.046875 14.902344 59.046875 L 16.855469 52.6875 C 16.855469 52.6875 20.679688 55.953125 23.898438 55.953125 C 26.027344 55.953125 26.894531 54.320312 26.894531 53.117188 C 26.894531 48.175781 18.726562 47.960938 18.726562 39.796875 C 18.726562 32.964844 23.679688 26.347656 33.71875 26.347656 C 37.457031 26.300781 39.371094 27.417969 39.371094 27.417969 Z M 39.371094 27.417969 "/>
</g>
</svg>
